%TF.GenerationSoftware,KiCad,Pcbnew,8.0.6*%
%TF.CreationDate,2024-11-06T21:14:03+01:00*%
%TF.ProjectId,ChocoEF,43686f63-6f45-4462-9e6b-696361645f70,rev?*%
%TF.SameCoordinates,Original*%
%TF.FileFunction,Legend,Bot*%
%TF.FilePolarity,Positive*%
%FSLAX46Y46*%
G04 Gerber Fmt 4.6, Leading zero omitted, Abs format (unit mm)*
G04 Created by KiCad (PCBNEW 8.0.6) date 2024-11-06 21:14:03*
%MOMM*%
%LPD*%
G01*
G04 APERTURE LIST*
%ADD10C,0.150000*%
G04 APERTURE END LIST*
D10*
X118000000Y-87000000D02*
X115000000Y-87000000D01*
X118000000Y-67000000D02*
X115000000Y-67000000D01*
X112000000Y-90000000D02*
G75*
G02*
X115000000Y-87000000I3000000J0D01*
G01*
X112000000Y-93000000D02*
X112000000Y-90000000D01*
X92000000Y-93000000D02*
X92000000Y-90000000D01*
X118000000Y-73000000D02*
X115000000Y-73000000D01*
X115000000Y-73000000D02*
G75*
G02*
X115000000Y-67000000I0J3000000D01*
G01*
X86000000Y-93000000D02*
X86000000Y-90000000D01*
X86000000Y-90000000D02*
G75*
G02*
X92000000Y-90000000I3000000J0D01*
G01*
X87418686Y-67365932D02*
X87418686Y-66615932D01*
X87418686Y-66615932D02*
X87240115Y-66615932D01*
X87240115Y-66615932D02*
X87132972Y-66651646D01*
X87132972Y-66651646D02*
X87061543Y-66723075D01*
X87061543Y-66723075D02*
X87025829Y-66794503D01*
X87025829Y-66794503D02*
X86990115Y-66937360D01*
X86990115Y-66937360D02*
X86990115Y-67044503D01*
X86990115Y-67044503D02*
X87025829Y-67187360D01*
X87025829Y-67187360D02*
X87061543Y-67258789D01*
X87061543Y-67258789D02*
X87132972Y-67330218D01*
X87132972Y-67330218D02*
X87240115Y-67365932D01*
X87240115Y-67365932D02*
X87418686Y-67365932D01*
X86668686Y-67365932D02*
X86668686Y-66615932D01*
X85882972Y-67365932D02*
X86132972Y-67008789D01*
X86311543Y-67365932D02*
X86311543Y-66615932D01*
X86311543Y-66615932D02*
X86025829Y-66615932D01*
X86025829Y-66615932D02*
X85954400Y-66651646D01*
X85954400Y-66651646D02*
X85918686Y-66687360D01*
X85918686Y-66687360D02*
X85882972Y-66758789D01*
X85882972Y-66758789D02*
X85882972Y-66865932D01*
X85882972Y-66865932D02*
X85918686Y-66937360D01*
X85918686Y-66937360D02*
X85954400Y-66973075D01*
X85954400Y-66973075D02*
X86025829Y-67008789D01*
X86025829Y-67008789D02*
X86311543Y-67008789D01*
X82132970Y-66865932D02*
X82704398Y-67080218D01*
X82704398Y-67080218D02*
X82132970Y-67294503D01*
X81775827Y-67080218D02*
X81204399Y-67080218D01*
X80847256Y-66865932D02*
X80275828Y-67080218D01*
X80275828Y-67080218D02*
X80847256Y-67294503D01*
X79347256Y-67365932D02*
X79347256Y-66615932D01*
X79347256Y-66615932D02*
X79168685Y-66615932D01*
X79168685Y-66615932D02*
X79061542Y-66651646D01*
X79061542Y-66651646D02*
X78990113Y-66723075D01*
X78990113Y-66723075D02*
X78954399Y-66794503D01*
X78954399Y-66794503D02*
X78918685Y-66937360D01*
X78918685Y-66937360D02*
X78918685Y-67044503D01*
X78918685Y-67044503D02*
X78954399Y-67187360D01*
X78954399Y-67187360D02*
X78990113Y-67258789D01*
X78990113Y-67258789D02*
X79061542Y-67330218D01*
X79061542Y-67330218D02*
X79168685Y-67365932D01*
X79168685Y-67365932D02*
X79347256Y-67365932D01*
X78454399Y-66615932D02*
X78382970Y-66615932D01*
X78382970Y-66615932D02*
X78311542Y-66651646D01*
X78311542Y-66651646D02*
X78275828Y-66687360D01*
X78275828Y-66687360D02*
X78240113Y-66758789D01*
X78240113Y-66758789D02*
X78204399Y-66901646D01*
X78204399Y-66901646D02*
X78204399Y-67080218D01*
X78204399Y-67080218D02*
X78240113Y-67223075D01*
X78240113Y-67223075D02*
X78275828Y-67294503D01*
X78275828Y-67294503D02*
X78311542Y-67330218D01*
X78311542Y-67330218D02*
X78382970Y-67365932D01*
X78382970Y-67365932D02*
X78454399Y-67365932D01*
X78454399Y-67365932D02*
X78525828Y-67330218D01*
X78525828Y-67330218D02*
X78561542Y-67294503D01*
X78561542Y-67294503D02*
X78597256Y-67223075D01*
X78597256Y-67223075D02*
X78632970Y-67080218D01*
X78632970Y-67080218D02*
X78632970Y-66901646D01*
X78632970Y-66901646D02*
X78597256Y-66758789D01*
X78597256Y-66758789D02*
X78561542Y-66687360D01*
X78561542Y-66687360D02*
X78525828Y-66651646D01*
X78525828Y-66651646D02*
X78454399Y-66615932D01*
X87543686Y-68537676D02*
X87436544Y-68573390D01*
X87436544Y-68573390D02*
X87257972Y-68573390D01*
X87257972Y-68573390D02*
X87186544Y-68537676D01*
X87186544Y-68537676D02*
X87150829Y-68501961D01*
X87150829Y-68501961D02*
X87115115Y-68430533D01*
X87115115Y-68430533D02*
X87115115Y-68359104D01*
X87115115Y-68359104D02*
X87150829Y-68287676D01*
X87150829Y-68287676D02*
X87186544Y-68251961D01*
X87186544Y-68251961D02*
X87257972Y-68216247D01*
X87257972Y-68216247D02*
X87400829Y-68180533D01*
X87400829Y-68180533D02*
X87472258Y-68144818D01*
X87472258Y-68144818D02*
X87507972Y-68109104D01*
X87507972Y-68109104D02*
X87543686Y-68037676D01*
X87543686Y-68037676D02*
X87543686Y-67966247D01*
X87543686Y-67966247D02*
X87507972Y-67894818D01*
X87507972Y-67894818D02*
X87472258Y-67859104D01*
X87472258Y-67859104D02*
X87400829Y-67823390D01*
X87400829Y-67823390D02*
X87222258Y-67823390D01*
X87222258Y-67823390D02*
X87115115Y-67859104D01*
X86900829Y-67823390D02*
X86472258Y-67823390D01*
X86686543Y-68573390D02*
X86686543Y-67823390D01*
X86222257Y-68573390D02*
X86222257Y-67823390D01*
X86222257Y-67823390D02*
X85936543Y-67823390D01*
X85936543Y-67823390D02*
X85865114Y-67859104D01*
X85865114Y-67859104D02*
X85829400Y-67894818D01*
X85829400Y-67894818D02*
X85793686Y-67966247D01*
X85793686Y-67966247D02*
X85793686Y-68073390D01*
X85793686Y-68073390D02*
X85829400Y-68144818D01*
X85829400Y-68144818D02*
X85865114Y-68180533D01*
X85865114Y-68180533D02*
X85936543Y-68216247D01*
X85936543Y-68216247D02*
X86222257Y-68216247D01*
X82043684Y-68073390D02*
X82615112Y-68287676D01*
X82615112Y-68287676D02*
X82043684Y-68501961D01*
X81686541Y-68287676D02*
X81115113Y-68287676D01*
X80757970Y-68073390D02*
X80186542Y-68287676D01*
X80186542Y-68287676D02*
X80757970Y-68501961D01*
X79257970Y-68573390D02*
X79257970Y-67823390D01*
X79257970Y-67823390D02*
X79079399Y-67823390D01*
X79079399Y-67823390D02*
X78972256Y-67859104D01*
X78972256Y-67859104D02*
X78900827Y-67930533D01*
X78900827Y-67930533D02*
X78865113Y-68001961D01*
X78865113Y-68001961D02*
X78829399Y-68144818D01*
X78829399Y-68144818D02*
X78829399Y-68251961D01*
X78829399Y-68251961D02*
X78865113Y-68394818D01*
X78865113Y-68394818D02*
X78900827Y-68466247D01*
X78900827Y-68466247D02*
X78972256Y-68537676D01*
X78972256Y-68537676D02*
X79079399Y-68573390D01*
X79079399Y-68573390D02*
X79257970Y-68573390D01*
X78115113Y-68573390D02*
X78543684Y-68573390D01*
X78329399Y-68573390D02*
X78329399Y-67823390D01*
X78329399Y-67823390D02*
X78400827Y-67930533D01*
X78400827Y-67930533D02*
X78472256Y-68001961D01*
X78472256Y-68001961D02*
X78543684Y-68037676D01*
X87561543Y-69745134D02*
X87454401Y-69780848D01*
X87454401Y-69780848D02*
X87275829Y-69780848D01*
X87275829Y-69780848D02*
X87204401Y-69745134D01*
X87204401Y-69745134D02*
X87168686Y-69709419D01*
X87168686Y-69709419D02*
X87132972Y-69637991D01*
X87132972Y-69637991D02*
X87132972Y-69566562D01*
X87132972Y-69566562D02*
X87168686Y-69495134D01*
X87168686Y-69495134D02*
X87204401Y-69459419D01*
X87204401Y-69459419D02*
X87275829Y-69423705D01*
X87275829Y-69423705D02*
X87418686Y-69387991D01*
X87418686Y-69387991D02*
X87490115Y-69352276D01*
X87490115Y-69352276D02*
X87525829Y-69316562D01*
X87525829Y-69316562D02*
X87561543Y-69245134D01*
X87561543Y-69245134D02*
X87561543Y-69173705D01*
X87561543Y-69173705D02*
X87525829Y-69102276D01*
X87525829Y-69102276D02*
X87490115Y-69066562D01*
X87490115Y-69066562D02*
X87418686Y-69030848D01*
X87418686Y-69030848D02*
X87240115Y-69030848D01*
X87240115Y-69030848D02*
X87132972Y-69066562D01*
X86454400Y-69780848D02*
X86811543Y-69780848D01*
X86811543Y-69780848D02*
X86811543Y-69030848D01*
X86204400Y-69780848D02*
X86204400Y-69030848D01*
X86204400Y-69030848D02*
X85918686Y-69030848D01*
X85918686Y-69030848D02*
X85847257Y-69066562D01*
X85847257Y-69066562D02*
X85811543Y-69102276D01*
X85811543Y-69102276D02*
X85775829Y-69173705D01*
X85775829Y-69173705D02*
X85775829Y-69280848D01*
X85775829Y-69280848D02*
X85811543Y-69352276D01*
X85811543Y-69352276D02*
X85847257Y-69387991D01*
X85847257Y-69387991D02*
X85918686Y-69423705D01*
X85918686Y-69423705D02*
X86204400Y-69423705D01*
X82025827Y-69280848D02*
X82597255Y-69495134D01*
X82597255Y-69495134D02*
X82025827Y-69709419D01*
X81668684Y-69495134D02*
X81097256Y-69495134D01*
X80740113Y-69280848D02*
X80168685Y-69495134D01*
X80168685Y-69495134D02*
X80740113Y-69709419D01*
X79240113Y-69780848D02*
X79240113Y-69030848D01*
X79240113Y-69030848D02*
X79061542Y-69030848D01*
X79061542Y-69030848D02*
X78954399Y-69066562D01*
X78954399Y-69066562D02*
X78882970Y-69137991D01*
X78882970Y-69137991D02*
X78847256Y-69209419D01*
X78847256Y-69209419D02*
X78811542Y-69352276D01*
X78811542Y-69352276D02*
X78811542Y-69459419D01*
X78811542Y-69459419D02*
X78847256Y-69602276D01*
X78847256Y-69602276D02*
X78882970Y-69673705D01*
X78882970Y-69673705D02*
X78954399Y-69745134D01*
X78954399Y-69745134D02*
X79061542Y-69780848D01*
X79061542Y-69780848D02*
X79240113Y-69780848D01*
X78525827Y-69102276D02*
X78490113Y-69066562D01*
X78490113Y-69066562D02*
X78418685Y-69030848D01*
X78418685Y-69030848D02*
X78240113Y-69030848D01*
X78240113Y-69030848D02*
X78168685Y-69066562D01*
X78168685Y-69066562D02*
X78132970Y-69102276D01*
X78132970Y-69102276D02*
X78097256Y-69173705D01*
X78097256Y-69173705D02*
X78097256Y-69245134D01*
X78097256Y-69245134D02*
X78132970Y-69352276D01*
X78132970Y-69352276D02*
X78561542Y-69780848D01*
X78561542Y-69780848D02*
X78097256Y-69780848D01*
X87632972Y-70988306D02*
X87632972Y-70238306D01*
X87632972Y-70238306D02*
X87382972Y-70774020D01*
X87382972Y-70774020D02*
X87132972Y-70238306D01*
X87132972Y-70238306D02*
X87132972Y-70988306D01*
X86811543Y-70952592D02*
X86704401Y-70988306D01*
X86704401Y-70988306D02*
X86525829Y-70988306D01*
X86525829Y-70988306D02*
X86454401Y-70952592D01*
X86454401Y-70952592D02*
X86418686Y-70916877D01*
X86418686Y-70916877D02*
X86382972Y-70845449D01*
X86382972Y-70845449D02*
X86382972Y-70774020D01*
X86382972Y-70774020D02*
X86418686Y-70702592D01*
X86418686Y-70702592D02*
X86454401Y-70666877D01*
X86454401Y-70666877D02*
X86525829Y-70631163D01*
X86525829Y-70631163D02*
X86668686Y-70595449D01*
X86668686Y-70595449D02*
X86740115Y-70559734D01*
X86740115Y-70559734D02*
X86775829Y-70524020D01*
X86775829Y-70524020D02*
X86811543Y-70452592D01*
X86811543Y-70452592D02*
X86811543Y-70381163D01*
X86811543Y-70381163D02*
X86775829Y-70309734D01*
X86775829Y-70309734D02*
X86740115Y-70274020D01*
X86740115Y-70274020D02*
X86668686Y-70238306D01*
X86668686Y-70238306D02*
X86490115Y-70238306D01*
X86490115Y-70238306D02*
X86382972Y-70274020D01*
X86132972Y-70238306D02*
X85668686Y-70238306D01*
X85668686Y-70238306D02*
X85918686Y-70524020D01*
X85918686Y-70524020D02*
X85811543Y-70524020D01*
X85811543Y-70524020D02*
X85740115Y-70559734D01*
X85740115Y-70559734D02*
X85704400Y-70595449D01*
X85704400Y-70595449D02*
X85668686Y-70666877D01*
X85668686Y-70666877D02*
X85668686Y-70845449D01*
X85668686Y-70845449D02*
X85704400Y-70916877D01*
X85704400Y-70916877D02*
X85740115Y-70952592D01*
X85740115Y-70952592D02*
X85811543Y-70988306D01*
X85811543Y-70988306D02*
X86025829Y-70988306D01*
X86025829Y-70988306D02*
X86097257Y-70952592D01*
X86097257Y-70952592D02*
X86132972Y-70916877D01*
X81918684Y-70488306D02*
X82490112Y-70702592D01*
X82490112Y-70702592D02*
X81918684Y-70916877D01*
X81561541Y-70702592D02*
X80990113Y-70702592D01*
X80632970Y-70488306D02*
X80061542Y-70702592D01*
X80061542Y-70702592D02*
X80632970Y-70916877D01*
X79132970Y-70988306D02*
X79132970Y-70238306D01*
X79132970Y-70238306D02*
X78954399Y-70238306D01*
X78954399Y-70238306D02*
X78847256Y-70274020D01*
X78847256Y-70274020D02*
X78775827Y-70345449D01*
X78775827Y-70345449D02*
X78740113Y-70416877D01*
X78740113Y-70416877D02*
X78704399Y-70559734D01*
X78704399Y-70559734D02*
X78704399Y-70666877D01*
X78704399Y-70666877D02*
X78740113Y-70809734D01*
X78740113Y-70809734D02*
X78775827Y-70881163D01*
X78775827Y-70881163D02*
X78847256Y-70952592D01*
X78847256Y-70952592D02*
X78954399Y-70988306D01*
X78954399Y-70988306D02*
X79132970Y-70988306D01*
X78454399Y-70238306D02*
X77990113Y-70238306D01*
X77990113Y-70238306D02*
X78240113Y-70524020D01*
X78240113Y-70524020D02*
X78132970Y-70524020D01*
X78132970Y-70524020D02*
X78061542Y-70559734D01*
X78061542Y-70559734D02*
X78025827Y-70595449D01*
X78025827Y-70595449D02*
X77990113Y-70666877D01*
X77990113Y-70666877D02*
X77990113Y-70845449D01*
X77990113Y-70845449D02*
X78025827Y-70916877D01*
X78025827Y-70916877D02*
X78061542Y-70952592D01*
X78061542Y-70952592D02*
X78132970Y-70988306D01*
X78132970Y-70988306D02*
X78347256Y-70988306D01*
X78347256Y-70988306D02*
X78418684Y-70952592D01*
X78418684Y-70952592D02*
X78454399Y-70916877D01*
X87632972Y-72195764D02*
X87632972Y-71445764D01*
X87632972Y-71445764D02*
X87382972Y-71981478D01*
X87382972Y-71981478D02*
X87132972Y-71445764D01*
X87132972Y-71445764D02*
X87132972Y-72195764D01*
X86811543Y-72160050D02*
X86704401Y-72195764D01*
X86704401Y-72195764D02*
X86525829Y-72195764D01*
X86525829Y-72195764D02*
X86454401Y-72160050D01*
X86454401Y-72160050D02*
X86418686Y-72124335D01*
X86418686Y-72124335D02*
X86382972Y-72052907D01*
X86382972Y-72052907D02*
X86382972Y-71981478D01*
X86382972Y-71981478D02*
X86418686Y-71910050D01*
X86418686Y-71910050D02*
X86454401Y-71874335D01*
X86454401Y-71874335D02*
X86525829Y-71838621D01*
X86525829Y-71838621D02*
X86668686Y-71802907D01*
X86668686Y-71802907D02*
X86740115Y-71767192D01*
X86740115Y-71767192D02*
X86775829Y-71731478D01*
X86775829Y-71731478D02*
X86811543Y-71660050D01*
X86811543Y-71660050D02*
X86811543Y-71588621D01*
X86811543Y-71588621D02*
X86775829Y-71517192D01*
X86775829Y-71517192D02*
X86740115Y-71481478D01*
X86740115Y-71481478D02*
X86668686Y-71445764D01*
X86668686Y-71445764D02*
X86490115Y-71445764D01*
X86490115Y-71445764D02*
X86382972Y-71481478D01*
X86097257Y-71517192D02*
X86061543Y-71481478D01*
X86061543Y-71481478D02*
X85990115Y-71445764D01*
X85990115Y-71445764D02*
X85811543Y-71445764D01*
X85811543Y-71445764D02*
X85740115Y-71481478D01*
X85740115Y-71481478D02*
X85704400Y-71517192D01*
X85704400Y-71517192D02*
X85668686Y-71588621D01*
X85668686Y-71588621D02*
X85668686Y-71660050D01*
X85668686Y-71660050D02*
X85704400Y-71767192D01*
X85704400Y-71767192D02*
X86132972Y-72195764D01*
X86132972Y-72195764D02*
X85668686Y-72195764D01*
X81918684Y-71695764D02*
X82490112Y-71910050D01*
X82490112Y-71910050D02*
X81918684Y-72124335D01*
X81561541Y-71910050D02*
X80990113Y-71910050D01*
X80632970Y-71695764D02*
X80061542Y-71910050D01*
X80061542Y-71910050D02*
X80632970Y-72124335D01*
X79132970Y-72195764D02*
X79132970Y-71445764D01*
X79132970Y-71445764D02*
X78954399Y-71445764D01*
X78954399Y-71445764D02*
X78847256Y-71481478D01*
X78847256Y-71481478D02*
X78775827Y-71552907D01*
X78775827Y-71552907D02*
X78740113Y-71624335D01*
X78740113Y-71624335D02*
X78704399Y-71767192D01*
X78704399Y-71767192D02*
X78704399Y-71874335D01*
X78704399Y-71874335D02*
X78740113Y-72017192D01*
X78740113Y-72017192D02*
X78775827Y-72088621D01*
X78775827Y-72088621D02*
X78847256Y-72160050D01*
X78847256Y-72160050D02*
X78954399Y-72195764D01*
X78954399Y-72195764D02*
X79132970Y-72195764D01*
X78061542Y-71695764D02*
X78061542Y-72195764D01*
X78240113Y-71410050D02*
X78418684Y-71945764D01*
X78418684Y-71945764D02*
X77954399Y-71945764D01*
X87632972Y-73403222D02*
X87632972Y-72653222D01*
X87632972Y-72653222D02*
X87382972Y-73188936D01*
X87382972Y-73188936D02*
X87132972Y-72653222D01*
X87132972Y-72653222D02*
X87132972Y-73403222D01*
X86811543Y-73367508D02*
X86704401Y-73403222D01*
X86704401Y-73403222D02*
X86525829Y-73403222D01*
X86525829Y-73403222D02*
X86454401Y-73367508D01*
X86454401Y-73367508D02*
X86418686Y-73331793D01*
X86418686Y-73331793D02*
X86382972Y-73260365D01*
X86382972Y-73260365D02*
X86382972Y-73188936D01*
X86382972Y-73188936D02*
X86418686Y-73117508D01*
X86418686Y-73117508D02*
X86454401Y-73081793D01*
X86454401Y-73081793D02*
X86525829Y-73046079D01*
X86525829Y-73046079D02*
X86668686Y-73010365D01*
X86668686Y-73010365D02*
X86740115Y-72974650D01*
X86740115Y-72974650D02*
X86775829Y-72938936D01*
X86775829Y-72938936D02*
X86811543Y-72867508D01*
X86811543Y-72867508D02*
X86811543Y-72796079D01*
X86811543Y-72796079D02*
X86775829Y-72724650D01*
X86775829Y-72724650D02*
X86740115Y-72688936D01*
X86740115Y-72688936D02*
X86668686Y-72653222D01*
X86668686Y-72653222D02*
X86490115Y-72653222D01*
X86490115Y-72653222D02*
X86382972Y-72688936D01*
X86132972Y-72653222D02*
X85668686Y-72653222D01*
X85668686Y-72653222D02*
X85918686Y-72938936D01*
X85918686Y-72938936D02*
X85811543Y-72938936D01*
X85811543Y-72938936D02*
X85740115Y-72974650D01*
X85740115Y-72974650D02*
X85704400Y-73010365D01*
X85704400Y-73010365D02*
X85668686Y-73081793D01*
X85668686Y-73081793D02*
X85668686Y-73260365D01*
X85668686Y-73260365D02*
X85704400Y-73331793D01*
X85704400Y-73331793D02*
X85740115Y-73367508D01*
X85740115Y-73367508D02*
X85811543Y-73403222D01*
X85811543Y-73403222D02*
X86025829Y-73403222D01*
X86025829Y-73403222D02*
X86097257Y-73367508D01*
X86097257Y-73367508D02*
X86132972Y-73331793D01*
X81918684Y-72903222D02*
X82490112Y-73117508D01*
X82490112Y-73117508D02*
X81918684Y-73331793D01*
X81561541Y-73117508D02*
X80990113Y-73117508D01*
X80632970Y-72903222D02*
X80061542Y-73117508D01*
X80061542Y-73117508D02*
X80632970Y-73331793D01*
X79132970Y-73403222D02*
X79132970Y-72653222D01*
X79132970Y-72653222D02*
X78954399Y-72653222D01*
X78954399Y-72653222D02*
X78847256Y-72688936D01*
X78847256Y-72688936D02*
X78775827Y-72760365D01*
X78775827Y-72760365D02*
X78740113Y-72831793D01*
X78740113Y-72831793D02*
X78704399Y-72974650D01*
X78704399Y-72974650D02*
X78704399Y-73081793D01*
X78704399Y-73081793D02*
X78740113Y-73224650D01*
X78740113Y-73224650D02*
X78775827Y-73296079D01*
X78775827Y-73296079D02*
X78847256Y-73367508D01*
X78847256Y-73367508D02*
X78954399Y-73403222D01*
X78954399Y-73403222D02*
X79132970Y-73403222D01*
X78025827Y-72653222D02*
X78382970Y-72653222D01*
X78382970Y-72653222D02*
X78418684Y-73010365D01*
X78418684Y-73010365D02*
X78382970Y-72974650D01*
X78382970Y-72974650D02*
X78311542Y-72938936D01*
X78311542Y-72938936D02*
X78132970Y-72938936D01*
X78132970Y-72938936D02*
X78061542Y-72974650D01*
X78061542Y-72974650D02*
X78025827Y-73010365D01*
X78025827Y-73010365D02*
X77990113Y-73081793D01*
X77990113Y-73081793D02*
X77990113Y-73260365D01*
X77990113Y-73260365D02*
X78025827Y-73331793D01*
X78025827Y-73331793D02*
X78061542Y-73367508D01*
X78061542Y-73367508D02*
X78132970Y-73403222D01*
X78132970Y-73403222D02*
X78311542Y-73403222D01*
X78311542Y-73403222D02*
X78382970Y-73367508D01*
X78382970Y-73367508D02*
X78418684Y-73331793D01*
X87668685Y-73860680D02*
X87240114Y-73860680D01*
X87454399Y-74610680D02*
X87454399Y-73860680D01*
X87168685Y-74682108D02*
X86597256Y-74682108D01*
X86454398Y-74574966D02*
X86347256Y-74610680D01*
X86347256Y-74610680D02*
X86168684Y-74610680D01*
X86168684Y-74610680D02*
X86097256Y-74574966D01*
X86097256Y-74574966D02*
X86061541Y-74539251D01*
X86061541Y-74539251D02*
X86025827Y-74467823D01*
X86025827Y-74467823D02*
X86025827Y-74396394D01*
X86025827Y-74396394D02*
X86061541Y-74324966D01*
X86061541Y-74324966D02*
X86097256Y-74289251D01*
X86097256Y-74289251D02*
X86168684Y-74253537D01*
X86168684Y-74253537D02*
X86311541Y-74217823D01*
X86311541Y-74217823D02*
X86382970Y-74182108D01*
X86382970Y-74182108D02*
X86418684Y-74146394D01*
X86418684Y-74146394D02*
X86454398Y-74074966D01*
X86454398Y-74074966D02*
X86454398Y-74003537D01*
X86454398Y-74003537D02*
X86418684Y-73932108D01*
X86418684Y-73932108D02*
X86382970Y-73896394D01*
X86382970Y-73896394D02*
X86311541Y-73860680D01*
X86311541Y-73860680D02*
X86132970Y-73860680D01*
X86132970Y-73860680D02*
X86025827Y-73896394D01*
X85418684Y-74574966D02*
X85490112Y-74610680D01*
X85490112Y-74610680D02*
X85632970Y-74610680D01*
X85632970Y-74610680D02*
X85704398Y-74574966D01*
X85704398Y-74574966D02*
X85740112Y-74503537D01*
X85740112Y-74503537D02*
X85740112Y-74217823D01*
X85740112Y-74217823D02*
X85704398Y-74146394D01*
X85704398Y-74146394D02*
X85632970Y-74110680D01*
X85632970Y-74110680D02*
X85490112Y-74110680D01*
X85490112Y-74110680D02*
X85418684Y-74146394D01*
X85418684Y-74146394D02*
X85382970Y-74217823D01*
X85382970Y-74217823D02*
X85382970Y-74289251D01*
X85382970Y-74289251D02*
X85740112Y-74360680D01*
X85061541Y-74110680D02*
X85061541Y-74610680D01*
X85061541Y-74182108D02*
X85025827Y-74146394D01*
X85025827Y-74146394D02*
X84954398Y-74110680D01*
X84954398Y-74110680D02*
X84847255Y-74110680D01*
X84847255Y-74110680D02*
X84775827Y-74146394D01*
X84775827Y-74146394D02*
X84740113Y-74217823D01*
X84740113Y-74217823D02*
X84740113Y-74610680D01*
X84418684Y-74574966D02*
X84347256Y-74610680D01*
X84347256Y-74610680D02*
X84204399Y-74610680D01*
X84204399Y-74610680D02*
X84132970Y-74574966D01*
X84132970Y-74574966D02*
X84097256Y-74503537D01*
X84097256Y-74503537D02*
X84097256Y-74467823D01*
X84097256Y-74467823D02*
X84132970Y-74396394D01*
X84132970Y-74396394D02*
X84204399Y-74360680D01*
X84204399Y-74360680D02*
X84311542Y-74360680D01*
X84311542Y-74360680D02*
X84382970Y-74324966D01*
X84382970Y-74324966D02*
X84418684Y-74253537D01*
X84418684Y-74253537D02*
X84418684Y-74217823D01*
X84418684Y-74217823D02*
X84382970Y-74146394D01*
X84382970Y-74146394D02*
X84311542Y-74110680D01*
X84311542Y-74110680D02*
X84204399Y-74110680D01*
X84204399Y-74110680D02*
X84132970Y-74146394D01*
X83490113Y-74574966D02*
X83561541Y-74610680D01*
X83561541Y-74610680D02*
X83704399Y-74610680D01*
X83704399Y-74610680D02*
X83775827Y-74574966D01*
X83775827Y-74574966D02*
X83811541Y-74503537D01*
X83811541Y-74503537D02*
X83811541Y-74217823D01*
X83811541Y-74217823D02*
X83775827Y-74146394D01*
X83775827Y-74146394D02*
X83704399Y-74110680D01*
X83704399Y-74110680D02*
X83561541Y-74110680D01*
X83561541Y-74110680D02*
X83490113Y-74146394D01*
X83490113Y-74146394D02*
X83454399Y-74217823D01*
X83454399Y-74217823D02*
X83454399Y-74289251D01*
X83454399Y-74289251D02*
X83811541Y-74360680D01*
X81990113Y-74110680D02*
X82561541Y-74324966D01*
X82561541Y-74324966D02*
X81990113Y-74539251D01*
X81632970Y-74324966D02*
X81061542Y-74324966D01*
X80704399Y-74110680D02*
X80132971Y-74324966D01*
X80132971Y-74324966D02*
X80704399Y-74539251D01*
X79204399Y-74610680D02*
X79204399Y-73860680D01*
X79204399Y-73860680D02*
X79025828Y-73860680D01*
X79025828Y-73860680D02*
X78918685Y-73896394D01*
X78918685Y-73896394D02*
X78847256Y-73967823D01*
X78847256Y-73967823D02*
X78811542Y-74039251D01*
X78811542Y-74039251D02*
X78775828Y-74182108D01*
X78775828Y-74182108D02*
X78775828Y-74289251D01*
X78775828Y-74289251D02*
X78811542Y-74432108D01*
X78811542Y-74432108D02*
X78847256Y-74503537D01*
X78847256Y-74503537D02*
X78918685Y-74574966D01*
X78918685Y-74574966D02*
X79025828Y-74610680D01*
X79025828Y-74610680D02*
X79204399Y-74610680D01*
X78132971Y-73860680D02*
X78275828Y-73860680D01*
X78275828Y-73860680D02*
X78347256Y-73896394D01*
X78347256Y-73896394D02*
X78382971Y-73932108D01*
X78382971Y-73932108D02*
X78454399Y-74039251D01*
X78454399Y-74039251D02*
X78490113Y-74182108D01*
X78490113Y-74182108D02*
X78490113Y-74467823D01*
X78490113Y-74467823D02*
X78454399Y-74539251D01*
X78454399Y-74539251D02*
X78418685Y-74574966D01*
X78418685Y-74574966D02*
X78347256Y-74610680D01*
X78347256Y-74610680D02*
X78204399Y-74610680D01*
X78204399Y-74610680D02*
X78132971Y-74574966D01*
X78132971Y-74574966D02*
X78097256Y-74539251D01*
X78097256Y-74539251D02*
X78061542Y-74467823D01*
X78061542Y-74467823D02*
X78061542Y-74289251D01*
X78061542Y-74289251D02*
X78097256Y-74217823D01*
X78097256Y-74217823D02*
X78132971Y-74182108D01*
X78132971Y-74182108D02*
X78204399Y-74146394D01*
X78204399Y-74146394D02*
X78347256Y-74146394D01*
X78347256Y-74146394D02*
X78418685Y-74182108D01*
X78418685Y-74182108D02*
X78454399Y-74217823D01*
X78454399Y-74217823D02*
X78490113Y-74289251D01*
X87704399Y-75782424D02*
X87597257Y-75818138D01*
X87597257Y-75818138D02*
X87418685Y-75818138D01*
X87418685Y-75818138D02*
X87347257Y-75782424D01*
X87347257Y-75782424D02*
X87311542Y-75746709D01*
X87311542Y-75746709D02*
X87275828Y-75675281D01*
X87275828Y-75675281D02*
X87275828Y-75603852D01*
X87275828Y-75603852D02*
X87311542Y-75532424D01*
X87311542Y-75532424D02*
X87347257Y-75496709D01*
X87347257Y-75496709D02*
X87418685Y-75460995D01*
X87418685Y-75460995D02*
X87561542Y-75425281D01*
X87561542Y-75425281D02*
X87632971Y-75389566D01*
X87632971Y-75389566D02*
X87668685Y-75353852D01*
X87668685Y-75353852D02*
X87704399Y-75282424D01*
X87704399Y-75282424D02*
X87704399Y-75210995D01*
X87704399Y-75210995D02*
X87668685Y-75139566D01*
X87668685Y-75139566D02*
X87632971Y-75103852D01*
X87632971Y-75103852D02*
X87561542Y-75068138D01*
X87561542Y-75068138D02*
X87382971Y-75068138D01*
X87382971Y-75068138D02*
X87275828Y-75103852D01*
X87061542Y-75068138D02*
X86632971Y-75068138D01*
X86847256Y-75818138D02*
X86847256Y-75068138D01*
X86382970Y-75818138D02*
X86382970Y-75068138D01*
X86382970Y-75068138D02*
X86097256Y-75068138D01*
X86097256Y-75068138D02*
X86025827Y-75103852D01*
X86025827Y-75103852D02*
X85990113Y-75139566D01*
X85990113Y-75139566D02*
X85954399Y-75210995D01*
X85954399Y-75210995D02*
X85954399Y-75318138D01*
X85954399Y-75318138D02*
X85990113Y-75389566D01*
X85990113Y-75389566D02*
X86025827Y-75425281D01*
X86025827Y-75425281D02*
X86097256Y-75460995D01*
X86097256Y-75460995D02*
X86382970Y-75460995D01*
X85811542Y-75889566D02*
X85240113Y-75889566D01*
X85061541Y-75425281D02*
X84811541Y-75425281D01*
X84704398Y-75818138D02*
X85061541Y-75818138D01*
X85061541Y-75818138D02*
X85061541Y-75068138D01*
X85061541Y-75068138D02*
X84704398Y-75068138D01*
X84382970Y-75818138D02*
X84382970Y-75068138D01*
X84382970Y-75068138D02*
X83954399Y-75818138D01*
X83954399Y-75818138D02*
X83954399Y-75068138D01*
X81882970Y-75318138D02*
X82454398Y-75532424D01*
X82454398Y-75532424D02*
X81882970Y-75746709D01*
X81525827Y-75532424D02*
X80954399Y-75532424D01*
X80597256Y-75318138D02*
X80025828Y-75532424D01*
X80025828Y-75532424D02*
X80597256Y-75746709D01*
X79097256Y-75818138D02*
X79097256Y-75068138D01*
X79097256Y-75068138D02*
X78918685Y-75068138D01*
X78918685Y-75068138D02*
X78811542Y-75103852D01*
X78811542Y-75103852D02*
X78740113Y-75175281D01*
X78740113Y-75175281D02*
X78704399Y-75246709D01*
X78704399Y-75246709D02*
X78668685Y-75389566D01*
X78668685Y-75389566D02*
X78668685Y-75496709D01*
X78668685Y-75496709D02*
X78704399Y-75639566D01*
X78704399Y-75639566D02*
X78740113Y-75710995D01*
X78740113Y-75710995D02*
X78811542Y-75782424D01*
X78811542Y-75782424D02*
X78918685Y-75818138D01*
X78918685Y-75818138D02*
X79097256Y-75818138D01*
X78240113Y-75389566D02*
X78311542Y-75353852D01*
X78311542Y-75353852D02*
X78347256Y-75318138D01*
X78347256Y-75318138D02*
X78382970Y-75246709D01*
X78382970Y-75246709D02*
X78382970Y-75210995D01*
X78382970Y-75210995D02*
X78347256Y-75139566D01*
X78347256Y-75139566D02*
X78311542Y-75103852D01*
X78311542Y-75103852D02*
X78240113Y-75068138D01*
X78240113Y-75068138D02*
X78097256Y-75068138D01*
X78097256Y-75068138D02*
X78025828Y-75103852D01*
X78025828Y-75103852D02*
X77990113Y-75139566D01*
X77990113Y-75139566D02*
X77954399Y-75210995D01*
X77954399Y-75210995D02*
X77954399Y-75246709D01*
X77954399Y-75246709D02*
X77990113Y-75318138D01*
X77990113Y-75318138D02*
X78025828Y-75353852D01*
X78025828Y-75353852D02*
X78097256Y-75389566D01*
X78097256Y-75389566D02*
X78240113Y-75389566D01*
X78240113Y-75389566D02*
X78311542Y-75425281D01*
X78311542Y-75425281D02*
X78347256Y-75460995D01*
X78347256Y-75460995D02*
X78382970Y-75532424D01*
X78382970Y-75532424D02*
X78382970Y-75675281D01*
X78382970Y-75675281D02*
X78347256Y-75746709D01*
X78347256Y-75746709D02*
X78311542Y-75782424D01*
X78311542Y-75782424D02*
X78240113Y-75818138D01*
X78240113Y-75818138D02*
X78097256Y-75818138D01*
X78097256Y-75818138D02*
X78025828Y-75782424D01*
X78025828Y-75782424D02*
X77990113Y-75746709D01*
X77990113Y-75746709D02*
X77954399Y-75675281D01*
X77954399Y-75675281D02*
X77954399Y-75532424D01*
X77954399Y-75532424D02*
X77990113Y-75460995D01*
X77990113Y-75460995D02*
X78025828Y-75425281D01*
X78025828Y-75425281D02*
X78097256Y-75389566D01*
X87079401Y-77025596D02*
X87329401Y-76668453D01*
X87507972Y-77025596D02*
X87507972Y-76275596D01*
X87507972Y-76275596D02*
X87222258Y-76275596D01*
X87222258Y-76275596D02*
X87150829Y-76311310D01*
X87150829Y-76311310D02*
X87115115Y-76347024D01*
X87115115Y-76347024D02*
X87079401Y-76418453D01*
X87079401Y-76418453D02*
X87079401Y-76525596D01*
X87079401Y-76525596D02*
X87115115Y-76597024D01*
X87115115Y-76597024D02*
X87150829Y-76632739D01*
X87150829Y-76632739D02*
X87222258Y-76668453D01*
X87222258Y-76668453D02*
X87507972Y-76668453D01*
X86793686Y-76989882D02*
X86686544Y-77025596D01*
X86686544Y-77025596D02*
X86507972Y-77025596D01*
X86507972Y-77025596D02*
X86436544Y-76989882D01*
X86436544Y-76989882D02*
X86400829Y-76954167D01*
X86400829Y-76954167D02*
X86365115Y-76882739D01*
X86365115Y-76882739D02*
X86365115Y-76811310D01*
X86365115Y-76811310D02*
X86400829Y-76739882D01*
X86400829Y-76739882D02*
X86436544Y-76704167D01*
X86436544Y-76704167D02*
X86507972Y-76668453D01*
X86507972Y-76668453D02*
X86650829Y-76632739D01*
X86650829Y-76632739D02*
X86722258Y-76597024D01*
X86722258Y-76597024D02*
X86757972Y-76561310D01*
X86757972Y-76561310D02*
X86793686Y-76489882D01*
X86793686Y-76489882D02*
X86793686Y-76418453D01*
X86793686Y-76418453D02*
X86757972Y-76347024D01*
X86757972Y-76347024D02*
X86722258Y-76311310D01*
X86722258Y-76311310D02*
X86650829Y-76275596D01*
X86650829Y-76275596D02*
X86472258Y-76275596D01*
X86472258Y-76275596D02*
X86365115Y-76311310D01*
X86150829Y-76275596D02*
X85722258Y-76275596D01*
X85936543Y-77025596D02*
X85936543Y-76275596D01*
X82043684Y-76525596D02*
X82615112Y-76739882D01*
X82615112Y-76739882D02*
X82043684Y-76954167D01*
X81686541Y-76739882D02*
X81115113Y-76739882D01*
X80757970Y-76525596D02*
X80186542Y-76739882D01*
X80186542Y-76739882D02*
X80757970Y-76954167D01*
X79257970Y-77025596D02*
X79257970Y-76275596D01*
X79257970Y-76275596D02*
X79079399Y-76275596D01*
X79079399Y-76275596D02*
X78972256Y-76311310D01*
X78972256Y-76311310D02*
X78900827Y-76382739D01*
X78900827Y-76382739D02*
X78865113Y-76454167D01*
X78865113Y-76454167D02*
X78829399Y-76597024D01*
X78829399Y-76597024D02*
X78829399Y-76704167D01*
X78829399Y-76704167D02*
X78865113Y-76847024D01*
X78865113Y-76847024D02*
X78900827Y-76918453D01*
X78900827Y-76918453D02*
X78972256Y-76989882D01*
X78972256Y-76989882D02*
X79079399Y-77025596D01*
X79079399Y-77025596D02*
X79257970Y-77025596D01*
X78472256Y-77025596D02*
X78329399Y-77025596D01*
X78329399Y-77025596D02*
X78257970Y-76989882D01*
X78257970Y-76989882D02*
X78222256Y-76954167D01*
X78222256Y-76954167D02*
X78150827Y-76847024D01*
X78150827Y-76847024D02*
X78115113Y-76704167D01*
X78115113Y-76704167D02*
X78115113Y-76418453D01*
X78115113Y-76418453D02*
X78150827Y-76347024D01*
X78150827Y-76347024D02*
X78186542Y-76311310D01*
X78186542Y-76311310D02*
X78257970Y-76275596D01*
X78257970Y-76275596D02*
X78400827Y-76275596D01*
X78400827Y-76275596D02*
X78472256Y-76311310D01*
X78472256Y-76311310D02*
X78507970Y-76347024D01*
X78507970Y-76347024D02*
X78543684Y-76418453D01*
X78543684Y-76418453D02*
X78543684Y-76597024D01*
X78543684Y-76597024D02*
X78507970Y-76668453D01*
X78507970Y-76668453D02*
X78472256Y-76704167D01*
X78472256Y-76704167D02*
X78400827Y-76739882D01*
X78400827Y-76739882D02*
X78257970Y-76739882D01*
X78257970Y-76739882D02*
X78186542Y-76704167D01*
X78186542Y-76704167D02*
X78150827Y-76668453D01*
X78150827Y-76668453D02*
X78115113Y-76597024D01*
G36*
X111003767Y-79856172D02*
G01*
X111003767Y-80415000D01*
X111058926Y-80415000D01*
X111118851Y-80415000D01*
X111178096Y-80415000D01*
X111249597Y-80415000D01*
X111304075Y-80415000D01*
X111364000Y-80415000D01*
X111429374Y-80415000D01*
X111500194Y-80415000D01*
X111576463Y-80415000D01*
X111658180Y-80415000D01*
X111701081Y-80415000D01*
X111758195Y-80412030D01*
X111811936Y-80403123D01*
X111862304Y-80388278D01*
X111909298Y-80367494D01*
X111952918Y-80340773D01*
X111993165Y-80308113D01*
X112030038Y-80269515D01*
X112063537Y-80224979D01*
X112091471Y-80177596D01*
X112114671Y-80127649D01*
X112133135Y-80075138D01*
X112146866Y-80020063D01*
X112155862Y-79962423D01*
X112160123Y-79902220D01*
X112160501Y-79877421D01*
X112158689Y-79822680D01*
X112153250Y-79769954D01*
X112144187Y-79719243D01*
X112131498Y-79670547D01*
X112115183Y-79623866D01*
X112095243Y-79579200D01*
X112065219Y-79526202D01*
X112044486Y-79495914D01*
X112010815Y-79454869D01*
X111974526Y-79419298D01*
X111935619Y-79389199D01*
X111883303Y-79359271D01*
X111826897Y-79337893D01*
X111778827Y-79326948D01*
X111728139Y-79321476D01*
X111701813Y-79320792D01*
X111075575Y-79320792D01*
X111003767Y-79555997D01*
X111669573Y-79555997D01*
X111721878Y-79562531D01*
X111767661Y-79582130D01*
X111806922Y-79614797D01*
X111839662Y-79660530D01*
X111855442Y-79692529D01*
X111872057Y-79741535D01*
X111882519Y-79794214D01*
X111886673Y-79844766D01*
X111886949Y-79862278D01*
X111884245Y-79919004D01*
X111876130Y-79971214D01*
X111862606Y-80018907D01*
X111839991Y-80068841D01*
X111810013Y-80112627D01*
X111772189Y-80148047D01*
X111725017Y-80171857D01*
X111672016Y-80179794D01*
X111269504Y-80179794D01*
X111269504Y-79927247D01*
X111003767Y-79856172D01*
G37*
G36*
X110807396Y-79320792D02*
G01*
X110541660Y-79320792D01*
X110541660Y-80415000D01*
X110807396Y-80415000D01*
X110807396Y-79320792D01*
G37*
G36*
X110424423Y-79555997D02*
G01*
X110424423Y-79320792D01*
X109284298Y-79320792D01*
X109353907Y-79555997D01*
X109760083Y-79555997D01*
X109760083Y-80407916D01*
X110025819Y-80407916D01*
X110025819Y-79555997D01*
X110424423Y-79555997D01*
G37*
G36*
X109170969Y-79364267D02*
G01*
X108905233Y-79293436D01*
X108905233Y-79789738D01*
X108342497Y-79789738D01*
X108342497Y-79320792D01*
X108076761Y-79320792D01*
X108076761Y-80415000D01*
X108342497Y-80415000D01*
X108342497Y-80024944D01*
X108905233Y-80024944D01*
X108905233Y-80415000D01*
X109170969Y-80415000D01*
X109170969Y-79364267D01*
G37*
G36*
X107000139Y-79976584D02*
G01*
X107000139Y-79320792D01*
X106734402Y-79320792D01*
X106734402Y-79976828D01*
X106736573Y-80026931D01*
X106746218Y-80089327D01*
X106763581Y-80146686D01*
X106788659Y-80199008D01*
X106821455Y-80246292D01*
X106861966Y-80288538D01*
X106910195Y-80325747D01*
X106966140Y-80357918D01*
X106981332Y-80365174D01*
X107027761Y-80384031D01*
X107077135Y-80399692D01*
X107129455Y-80412157D01*
X107184721Y-80421426D01*
X107242933Y-80427499D01*
X107304090Y-80430375D01*
X107329378Y-80430631D01*
X107384909Y-80429298D01*
X107437839Y-80425299D01*
X107488167Y-80418633D01*
X107551223Y-80405599D01*
X107609655Y-80387824D01*
X107663461Y-80365310D01*
X107712641Y-80338056D01*
X107757196Y-80306062D01*
X107787577Y-80278956D01*
X107821915Y-80240604D01*
X107850432Y-80198971D01*
X107873129Y-80154060D01*
X107890007Y-80105868D01*
X107901065Y-80054397D01*
X107906302Y-79999646D01*
X107906768Y-79976828D01*
X107906768Y-79363046D01*
X107641032Y-79293436D01*
X107641032Y-79976584D01*
X107636249Y-80029666D01*
X107618579Y-80082003D01*
X107587890Y-80124007D01*
X107544181Y-80155680D01*
X107504989Y-80171978D01*
X107456073Y-80184343D01*
X107404626Y-80191555D01*
X107352992Y-80194853D01*
X107317898Y-80195425D01*
X107258078Y-80193395D01*
X107204524Y-80187304D01*
X107146393Y-80173980D01*
X107098054Y-80154312D01*
X107052971Y-80122336D01*
X107021988Y-80081223D01*
X107014793Y-80065488D01*
X107002944Y-80017884D01*
X107000139Y-79976584D01*
G37*
G36*
X106580041Y-79555997D02*
G01*
X105846580Y-79555997D01*
X105834578Y-79556384D01*
X105786740Y-79566988D01*
X105779642Y-79570453D01*
X105741002Y-79605132D01*
X105728122Y-79655160D01*
X105736182Y-79695460D01*
X105753615Y-79723029D01*
X105795878Y-79751029D01*
X105845114Y-79758475D01*
X106314305Y-79758475D01*
X106314305Y-79648077D01*
X106580041Y-79719396D01*
X106580041Y-80415000D01*
X105813118Y-80415000D01*
X105781146Y-80414259D01*
X105730473Y-80409733D01*
X105673978Y-80398871D01*
X105622189Y-80382084D01*
X105575106Y-80359372D01*
X105532728Y-80330736D01*
X105507082Y-80308643D01*
X105470430Y-80266510D01*
X105444251Y-80219959D01*
X105428543Y-80168990D01*
X105423307Y-80113604D01*
X105426290Y-80084295D01*
X105696859Y-80084295D01*
X105704919Y-80121664D01*
X105722382Y-80147096D01*
X105764825Y-80172925D01*
X105814340Y-80179794D01*
X106314305Y-80179794D01*
X106314305Y-79993681D01*
X105814340Y-79993681D01*
X105804390Y-79993937D01*
X105754989Y-80004183D01*
X105751412Y-80005740D01*
X105711391Y-80036423D01*
X105696859Y-80084295D01*
X105426290Y-80084295D01*
X105427459Y-80072815D01*
X105439847Y-80027232D01*
X105464544Y-79978522D01*
X105500274Y-79934627D01*
X105539681Y-79900836D01*
X105587194Y-79870582D01*
X105561548Y-79850799D01*
X105536475Y-79828939D01*
X105500642Y-79787746D01*
X105475046Y-79742813D01*
X105459689Y-79694140D01*
X105454570Y-79641727D01*
X105458905Y-79590665D01*
X105471911Y-79542259D01*
X105493588Y-79496509D01*
X105523935Y-79453415D01*
X105545244Y-79429714D01*
X105584690Y-79395392D01*
X105629050Y-79367547D01*
X105678323Y-79346177D01*
X105732510Y-79331282D01*
X105791610Y-79322864D01*
X105842427Y-79320792D01*
X106508233Y-79320792D01*
X106580041Y-79555997D01*
G37*
G36*
X105342218Y-80179794D02*
G01*
X105076482Y-80179794D01*
X105076482Y-80415000D01*
X105342218Y-80415000D01*
X105342218Y-80179794D01*
G37*
G36*
X104558443Y-79320792D02*
G01*
X103861129Y-79320792D01*
X103930739Y-79555997D01*
X104526935Y-79555997D01*
X104575657Y-79562262D01*
X104624784Y-79584763D01*
X104662035Y-79617875D01*
X104693933Y-79663516D01*
X104705965Y-79686912D01*
X104724502Y-79736072D01*
X104736972Y-79788208D01*
X104742963Y-79837049D01*
X104744312Y-79875223D01*
X104741426Y-79933103D01*
X104732771Y-79985659D01*
X104718346Y-80032891D01*
X104694223Y-80081267D01*
X104662246Y-80122397D01*
X104620912Y-80155075D01*
X104574153Y-80174188D01*
X104526935Y-80179794D01*
X103861129Y-80179794D01*
X103930739Y-80415000D01*
X104558443Y-80415000D01*
X104612714Y-80412072D01*
X104664032Y-80403291D01*
X104712396Y-80388656D01*
X104757806Y-80368166D01*
X104800262Y-80341822D01*
X104839765Y-80309624D01*
X104876313Y-80271572D01*
X104909908Y-80227665D01*
X104941009Y-80177562D01*
X104966838Y-80124644D01*
X104987396Y-80068912D01*
X105002682Y-80010365D01*
X105011116Y-79961502D01*
X105016177Y-79910836D01*
X105017864Y-79858370D01*
X105016005Y-79802996D01*
X105010429Y-79749957D01*
X105001137Y-79699253D01*
X104988127Y-79650886D01*
X104971400Y-79604854D01*
X104945265Y-79550598D01*
X104913321Y-79499991D01*
X104898917Y-79480771D01*
X104865815Y-79443276D01*
X104820637Y-79403437D01*
X104771237Y-79371410D01*
X104717616Y-79347194D01*
X104659773Y-79330790D01*
X104610459Y-79323291D01*
X104558443Y-79320792D01*
G37*
G36*
X103253522Y-79306168D02*
G01*
X103311003Y-79311388D01*
X103366057Y-79320089D01*
X103418684Y-79332271D01*
X103468883Y-79347933D01*
X103516655Y-79367076D01*
X103562001Y-79389699D01*
X103604919Y-79415802D01*
X103618698Y-79425442D01*
X103657412Y-79456102D01*
X103702906Y-79501043D01*
X103741401Y-79550624D01*
X103772897Y-79604846D01*
X103797394Y-79663709D01*
X103811173Y-79710901D01*
X103821015Y-79760703D01*
X103826921Y-79813116D01*
X103828889Y-79868140D01*
X103826310Y-79930086D01*
X103818570Y-79988796D01*
X103805671Y-80044269D01*
X103787612Y-80096507D01*
X103764394Y-80145508D01*
X103736016Y-80191273D01*
X103702478Y-80233802D01*
X103663781Y-80273094D01*
X103618447Y-80310017D01*
X103569275Y-80342017D01*
X103516262Y-80369093D01*
X103459411Y-80391247D01*
X103398721Y-80408477D01*
X103350683Y-80418170D01*
X103300486Y-80425093D01*
X103248130Y-80429246D01*
X103193614Y-80430631D01*
X103148990Y-80429770D01*
X103091568Y-80425944D01*
X103036520Y-80419058D01*
X102983845Y-80409111D01*
X102933545Y-80396103D01*
X102885618Y-80380034D01*
X102840064Y-80360905D01*
X102786461Y-80332690D01*
X102756530Y-80313702D01*
X102715254Y-80282708D01*
X102678322Y-80248701D01*
X102645736Y-80211679D01*
X102617495Y-80171644D01*
X102593598Y-80128595D01*
X102574046Y-80082532D01*
X102558839Y-80033454D01*
X102547977Y-79981363D01*
X102541460Y-79926259D01*
X102539287Y-79868140D01*
X102812839Y-79868140D01*
X102813622Y-79898889D01*
X102818608Y-79948503D01*
X102829203Y-79997833D01*
X102842496Y-80033145D01*
X102873656Y-80084279D01*
X102916074Y-80125766D01*
X102958114Y-80152009D01*
X103007360Y-80172077D01*
X103063810Y-80185970D01*
X103127466Y-80193689D01*
X103179936Y-80195425D01*
X103232222Y-80193929D01*
X103286826Y-80188556D01*
X103335934Y-80179275D01*
X103384612Y-80164162D01*
X103424626Y-80145325D01*
X103467140Y-80114480D01*
X103501319Y-80075525D01*
X103527161Y-80028460D01*
X103544667Y-79973286D01*
X103552670Y-79923308D01*
X103555337Y-79868140D01*
X103554467Y-79835286D01*
X103549452Y-79786392D01*
X103538483Y-79736787D01*
X103519678Y-79688377D01*
X103491291Y-79645526D01*
X103453756Y-79609938D01*
X103407075Y-79581613D01*
X103351246Y-79560550D01*
X103299997Y-79548930D01*
X103242894Y-79541957D01*
X103179936Y-79539633D01*
X103142643Y-79540473D01*
X103090196Y-79544881D01*
X103041939Y-79553066D01*
X103000996Y-79564593D01*
X102952671Y-79585758D01*
X102911504Y-79613548D01*
X102870114Y-79657602D01*
X102845056Y-79700299D01*
X102827158Y-79749621D01*
X102816419Y-79805568D01*
X102812839Y-79868140D01*
X102539287Y-79868140D01*
X102541722Y-79807552D01*
X102549026Y-79750109D01*
X102561200Y-79695811D01*
X102578244Y-79644658D01*
X102600157Y-79596649D01*
X102626940Y-79551784D01*
X102658592Y-79510064D01*
X102695114Y-79471489D01*
X102717698Y-79451259D01*
X102766295Y-79414714D01*
X102819463Y-79383390D01*
X102877204Y-79357287D01*
X102923510Y-79341135D01*
X102972387Y-79327920D01*
X103023836Y-79317642D01*
X103077857Y-79310301D01*
X103134450Y-79305896D01*
X103193614Y-79304427D01*
X103253522Y-79306168D01*
G37*
G36*
X101318073Y-79320792D02*
G01*
X101052337Y-79320792D01*
X101052337Y-80415000D01*
X101318073Y-80415000D01*
X101318073Y-79785830D01*
X101646091Y-80379096D01*
X101818527Y-80379096D01*
X102146545Y-79810743D01*
X102146545Y-80415000D01*
X102412281Y-80415000D01*
X102412281Y-79363534D01*
X102146545Y-79293436D01*
X101730355Y-80066709D01*
X101318073Y-79320792D01*
G37*
G36*
X100209943Y-79320792D02*
G01*
X99951534Y-79320792D01*
X100708931Y-80407184D01*
X100967340Y-80407184D01*
X100209943Y-79320792D01*
G37*
G36*
X98768178Y-79856172D02*
G01*
X98768178Y-80415000D01*
X98823336Y-80415000D01*
X98883262Y-80415000D01*
X98942506Y-80415000D01*
X99014008Y-80415000D01*
X99068485Y-80415000D01*
X99128411Y-80415000D01*
X99193784Y-80415000D01*
X99264605Y-80415000D01*
X99340873Y-80415000D01*
X99422590Y-80415000D01*
X99465491Y-80415000D01*
X99522606Y-80412030D01*
X99576347Y-80403123D01*
X99626714Y-80388278D01*
X99673708Y-80367494D01*
X99717328Y-80340773D01*
X99757575Y-80308113D01*
X99794448Y-80269515D01*
X99827947Y-80224979D01*
X99855881Y-80177596D01*
X99879081Y-80127649D01*
X99897546Y-80075138D01*
X99911276Y-80020063D01*
X99920272Y-79962423D01*
X99924533Y-79902220D01*
X99924912Y-79877421D01*
X99923099Y-79822680D01*
X99917661Y-79769954D01*
X99908597Y-79719243D01*
X99895908Y-79670547D01*
X99879593Y-79623866D01*
X99859653Y-79579200D01*
X99829630Y-79526202D01*
X99808896Y-79495914D01*
X99775225Y-79454869D01*
X99738936Y-79419298D01*
X99700029Y-79389199D01*
X99647714Y-79359271D01*
X99591307Y-79337893D01*
X99543237Y-79326948D01*
X99492549Y-79321476D01*
X99466224Y-79320792D01*
X98839985Y-79320792D01*
X98768178Y-79555997D01*
X99433984Y-79555997D01*
X99486288Y-79562531D01*
X99532071Y-79582130D01*
X99571332Y-79614797D01*
X99604072Y-79660530D01*
X99619852Y-79692529D01*
X99636468Y-79741535D01*
X99646929Y-79794214D01*
X99651083Y-79844766D01*
X99651360Y-79862278D01*
X99648655Y-79919004D01*
X99640541Y-79971214D01*
X99627017Y-80018907D01*
X99604401Y-80068841D01*
X99574423Y-80112627D01*
X99536599Y-80148047D01*
X99489427Y-80171857D01*
X99436426Y-80179794D01*
X99033914Y-80179794D01*
X99033914Y-79927247D01*
X98768178Y-79856172D01*
G37*
G36*
X98306070Y-79993681D02*
G01*
X98306070Y-80179794D01*
X97522783Y-80179794D01*
X97592637Y-80415000D01*
X98571806Y-80415000D01*
X98571806Y-79320792D01*
X97522783Y-79320792D01*
X97592637Y-79555997D01*
X98306070Y-79555997D01*
X98306070Y-79758475D01*
X97641730Y-79758475D01*
X97641730Y-79993681D01*
X98306070Y-79993681D01*
G37*
G36*
X96536775Y-79320792D02*
G01*
X96271039Y-79320792D01*
X96271039Y-79373151D01*
X96271039Y-79427648D01*
X96271039Y-79501379D01*
X96271039Y-79561218D01*
X96271039Y-79629606D01*
X96271039Y-79706543D01*
X96271039Y-79792028D01*
X96271039Y-79886061D01*
X96271039Y-79936284D01*
X96271039Y-79988643D01*
X96271039Y-80043140D01*
X96271039Y-80099774D01*
X96271039Y-80158545D01*
X96271039Y-80219453D01*
X96271039Y-80282498D01*
X96271039Y-80347680D01*
X96271039Y-80415000D01*
X96536775Y-80415000D01*
X97099510Y-79693750D01*
X97099510Y-80415000D01*
X97365247Y-80415000D01*
X97365247Y-79363534D01*
X97099510Y-79293436D01*
X96536775Y-80014441D01*
X96536775Y-79320792D01*
G37*
G36*
X95804046Y-79993681D02*
G01*
X95804046Y-80179794D01*
X95020760Y-80179794D01*
X95090613Y-80415000D01*
X96069783Y-80415000D01*
X96069783Y-79320792D01*
X95020760Y-79320792D01*
X95090613Y-79555997D01*
X95804046Y-79555997D01*
X95804046Y-79758475D01*
X95139706Y-79758475D01*
X95139706Y-79993681D01*
X95804046Y-79993681D01*
G37*
G36*
X94863223Y-79715000D02*
G01*
X94597487Y-79645635D01*
X94597487Y-79835900D01*
X94543113Y-79835900D01*
X94482448Y-79835900D01*
X94417739Y-79835900D01*
X94359771Y-79835900D01*
X94293714Y-79835900D01*
X94219568Y-79835900D01*
X94165643Y-79835900D01*
X94137333Y-79835900D01*
X94086821Y-79825184D01*
X94049223Y-79793035D01*
X94031332Y-79759696D01*
X94019883Y-79711290D01*
X94019120Y-79694483D01*
X94025787Y-79642841D01*
X94048266Y-79598551D01*
X94075540Y-79573583D01*
X94121702Y-79557096D01*
X94138554Y-79555997D01*
X94863223Y-79555997D01*
X94791416Y-79320792D01*
X94135868Y-79320792D01*
X94086966Y-79323097D01*
X94029810Y-79332461D01*
X93977066Y-79349028D01*
X93928735Y-79372799D01*
X93884817Y-79403773D01*
X93845311Y-79441950D01*
X93823725Y-79468314D01*
X93793271Y-79515546D01*
X93770297Y-79565560D01*
X93754803Y-79618355D01*
X93746789Y-79673932D01*
X93745568Y-79706939D01*
X93749320Y-79764865D01*
X93760577Y-79818841D01*
X93779339Y-79868867D01*
X93805606Y-79914943D01*
X93839377Y-79957069D01*
X93852302Y-79970233D01*
X93893145Y-80003769D01*
X93938433Y-80030494D01*
X93983460Y-80048879D01*
X93714305Y-80407916D01*
X94019120Y-80407916D01*
X94254081Y-80071106D01*
X94597487Y-80071106D01*
X94597487Y-80407916D01*
X94863223Y-80407916D01*
X94863223Y-79715000D01*
G37*
G36*
X93275400Y-80274316D02*
G01*
X93181122Y-80055474D01*
X92877529Y-80055474D01*
X93089531Y-79604357D01*
X93468108Y-80422815D01*
X93740194Y-80422815D01*
X93224842Y-79377456D01*
X92964968Y-79307847D01*
X92430564Y-80422815D01*
X92703872Y-80422815D01*
X92772260Y-80274316D01*
X93275400Y-80274316D01*
G37*
G36*
X92348499Y-79320792D02*
G01*
X92082762Y-79320792D01*
X92082762Y-80179794D01*
X91318527Y-80179794D01*
X91388136Y-80415000D01*
X91448158Y-80415000D01*
X91501616Y-80415000D01*
X91571955Y-80415000D01*
X91628226Y-80415000D01*
X91692001Y-80415000D01*
X91763277Y-80415000D01*
X91842057Y-80415000D01*
X91928340Y-80415000D01*
X92022125Y-80415000D01*
X92071832Y-80415000D01*
X92123414Y-80415000D01*
X92176871Y-80415000D01*
X92232205Y-80415000D01*
X92289414Y-80415000D01*
X92348499Y-80415000D01*
X92348499Y-80362640D01*
X92348499Y-80308143D01*
X92348499Y-80234412D01*
X92348499Y-80174573D01*
X92348499Y-80106185D01*
X92348499Y-80029248D01*
X92348499Y-79943763D01*
X92348499Y-79849730D01*
X92348499Y-79799508D01*
X92348499Y-79747148D01*
X92348499Y-79692651D01*
X92348499Y-79636017D01*
X92348499Y-79577247D01*
X92348499Y-79516338D01*
X92348499Y-79453293D01*
X92348499Y-79388111D01*
X92348499Y-79320792D01*
G37*
G36*
X90871318Y-79993681D02*
G01*
X90924277Y-79991456D01*
X90973732Y-79984781D01*
X91030625Y-79970180D01*
X91082043Y-79948626D01*
X91127988Y-79920120D01*
X91168458Y-79884661D01*
X91196894Y-79851287D01*
X91224997Y-79807278D01*
X91245071Y-79760490D01*
X91257115Y-79710924D01*
X91261129Y-79658579D01*
X91257343Y-79605892D01*
X91245983Y-79556639D01*
X91227049Y-79510820D01*
X91200542Y-79468436D01*
X91166462Y-79429487D01*
X91153418Y-79417267D01*
X91110631Y-79384481D01*
X91063052Y-79358477D01*
X91010682Y-79339258D01*
X90953521Y-79326821D01*
X90902226Y-79321639D01*
X90869852Y-79320792D01*
X90129308Y-79320792D01*
X90200139Y-79555997D01*
X90868143Y-79555997D01*
X90919210Y-79563415D01*
X90962298Y-79591306D01*
X90979517Y-79618768D01*
X90987577Y-79657847D01*
X90974912Y-79707145D01*
X90936916Y-79742382D01*
X90929936Y-79746018D01*
X90880734Y-79758037D01*
X90868143Y-79758475D01*
X90491520Y-79758475D01*
X90440596Y-79760566D01*
X90381405Y-79769062D01*
X90327175Y-79784094D01*
X90277907Y-79805660D01*
X90233600Y-79833763D01*
X90194254Y-79868400D01*
X90173028Y-79892320D01*
X90143001Y-79936757D01*
X90121553Y-79984094D01*
X90108685Y-80034332D01*
X90104395Y-80087470D01*
X90108156Y-80138958D01*
X90119439Y-80186995D01*
X90142109Y-80238675D01*
X90169690Y-80279233D01*
X90204792Y-80316339D01*
X90211374Y-80322187D01*
X90253809Y-80353729D01*
X90300881Y-80378745D01*
X90352590Y-80397235D01*
X90408936Y-80409199D01*
X90459432Y-80414184D01*
X90491276Y-80415000D01*
X91261129Y-80415000D01*
X91191276Y-80179794D01*
X90496894Y-80179794D01*
X90445553Y-80173069D01*
X90402738Y-80147783D01*
X90386007Y-80122885D01*
X90377947Y-80088203D01*
X90391625Y-80039965D01*
X90429292Y-80008273D01*
X90432658Y-80006625D01*
X90481632Y-79994300D01*
X90496894Y-79993681D01*
X90871318Y-79993681D01*
G37*
G36*
X89296440Y-80038133D02*
G01*
X89296440Y-80407184D01*
X89562176Y-80407184D01*
X89562176Y-80032759D01*
X90088520Y-79320792D01*
X89787857Y-79320792D01*
X89427110Y-79830526D01*
X89066852Y-79320792D01*
X88765945Y-79320792D01*
X89296440Y-80038133D01*
G37*
G36*
X88707326Y-79555997D02*
G01*
X87973865Y-79555997D01*
X87961864Y-79556384D01*
X87914025Y-79566988D01*
X87906927Y-79570453D01*
X87868287Y-79605132D01*
X87855407Y-79655160D01*
X87863467Y-79695460D01*
X87880900Y-79723029D01*
X87923163Y-79751029D01*
X87972400Y-79758475D01*
X88441590Y-79758475D01*
X88441590Y-79648077D01*
X88707326Y-79719396D01*
X88707326Y-80415000D01*
X87940404Y-80415000D01*
X87908431Y-80414259D01*
X87857758Y-80409733D01*
X87801264Y-80398871D01*
X87749475Y-80382084D01*
X87702391Y-80359372D01*
X87660013Y-80330736D01*
X87634367Y-80308643D01*
X87597716Y-80266510D01*
X87571536Y-80219959D01*
X87555828Y-80168990D01*
X87550592Y-80113604D01*
X87553575Y-80084295D01*
X87824144Y-80084295D01*
X87832204Y-80121664D01*
X87849668Y-80147096D01*
X87892110Y-80172925D01*
X87941625Y-80179794D01*
X88441590Y-80179794D01*
X88441590Y-79993681D01*
X87941625Y-79993681D01*
X87931675Y-79993937D01*
X87882274Y-80004183D01*
X87878698Y-80005740D01*
X87838677Y-80036423D01*
X87824144Y-80084295D01*
X87553575Y-80084295D01*
X87554744Y-80072815D01*
X87567132Y-80027232D01*
X87591829Y-79978522D01*
X87627559Y-79934627D01*
X87666966Y-79900836D01*
X87714479Y-79870582D01*
X87688834Y-79850799D01*
X87663761Y-79828939D01*
X87627927Y-79787746D01*
X87602332Y-79742813D01*
X87586974Y-79694140D01*
X87581855Y-79641727D01*
X87586191Y-79590665D01*
X87599196Y-79542259D01*
X87620873Y-79496509D01*
X87651220Y-79453415D01*
X87672529Y-79429714D01*
X87711976Y-79395392D01*
X87756335Y-79367547D01*
X87805608Y-79346177D01*
X87859795Y-79331282D01*
X87918895Y-79322864D01*
X87969713Y-79320792D01*
X88635519Y-79320792D01*
X88707326Y-79555997D01*
G37*
G36*
X86765840Y-79320792D02*
G01*
X86507431Y-79320792D01*
X87264828Y-80407184D01*
X87523237Y-80407184D01*
X86765840Y-79320792D01*
G37*
G36*
X86021388Y-79320792D02*
G01*
X85324074Y-79320792D01*
X85393684Y-79555997D01*
X85989880Y-79555997D01*
X86038602Y-79562262D01*
X86087729Y-79584763D01*
X86124980Y-79617875D01*
X86156878Y-79663516D01*
X86168910Y-79686912D01*
X86187447Y-79736072D01*
X86199917Y-79788208D01*
X86205908Y-79837049D01*
X86207256Y-79875223D01*
X86204371Y-79933103D01*
X86195716Y-79985659D01*
X86181290Y-80032891D01*
X86157168Y-80081267D01*
X86125191Y-80122397D01*
X86083857Y-80155075D01*
X86037097Y-80174188D01*
X85989880Y-80179794D01*
X85324074Y-80179794D01*
X85393684Y-80415000D01*
X86021388Y-80415000D01*
X86075659Y-80412072D01*
X86126977Y-80403291D01*
X86175341Y-80388656D01*
X86220751Y-80368166D01*
X86263207Y-80341822D01*
X86302710Y-80309624D01*
X86339258Y-80271572D01*
X86372853Y-80227665D01*
X86403954Y-80177562D01*
X86429783Y-80124644D01*
X86450341Y-80068912D01*
X86465627Y-80010365D01*
X86474061Y-79961502D01*
X86479122Y-79910836D01*
X86480808Y-79858370D01*
X86478950Y-79802996D01*
X86473374Y-79749957D01*
X86464082Y-79699253D01*
X86451072Y-79650886D01*
X86434345Y-79604854D01*
X86408209Y-79550598D01*
X86376266Y-79499991D01*
X86361862Y-79480771D01*
X86328760Y-79443276D01*
X86283582Y-79403437D01*
X86234182Y-79371410D01*
X86180561Y-79347194D01*
X86122718Y-79330790D01*
X86073404Y-79323291D01*
X86021388Y-79320792D01*
G37*
G36*
X85213677Y-79364267D02*
G01*
X84947940Y-79293436D01*
X84947940Y-79789738D01*
X84385205Y-79789738D01*
X84385205Y-79320792D01*
X84119469Y-79320792D01*
X84119469Y-80415000D01*
X84385205Y-80415000D01*
X84385205Y-80024944D01*
X84947940Y-80024944D01*
X84947940Y-80415000D01*
X85213677Y-80415000D01*
X85213677Y-79364267D01*
G37*
G36*
X83421003Y-79306168D02*
G01*
X83478484Y-79311388D01*
X83533538Y-79320089D01*
X83586164Y-79332271D01*
X83636364Y-79347933D01*
X83684136Y-79367076D01*
X83729481Y-79389699D01*
X83772400Y-79415802D01*
X83786179Y-79425442D01*
X83824893Y-79456102D01*
X83870387Y-79501043D01*
X83908882Y-79550624D01*
X83940378Y-79604846D01*
X83964874Y-79663709D01*
X83978654Y-79710901D01*
X83988496Y-79760703D01*
X83994402Y-79813116D01*
X83996370Y-79868140D01*
X83993790Y-79930086D01*
X83986051Y-79988796D01*
X83973152Y-80044269D01*
X83955093Y-80096507D01*
X83931875Y-80145508D01*
X83903497Y-80191273D01*
X83869959Y-80233802D01*
X83831262Y-80273094D01*
X83785928Y-80310017D01*
X83736755Y-80342017D01*
X83683743Y-80369093D01*
X83626892Y-80391247D01*
X83566201Y-80408477D01*
X83518164Y-80418170D01*
X83467967Y-80425093D01*
X83415611Y-80429246D01*
X83361095Y-80430631D01*
X83316470Y-80429770D01*
X83259049Y-80425944D01*
X83204000Y-80419058D01*
X83151326Y-80409111D01*
X83101025Y-80396103D01*
X83053098Y-80380034D01*
X83007545Y-80360905D01*
X82953942Y-80332690D01*
X82924011Y-80313702D01*
X82882734Y-80282708D01*
X82845803Y-80248701D01*
X82813217Y-80211679D01*
X82784975Y-80171644D01*
X82761079Y-80128595D01*
X82741527Y-80082532D01*
X82726320Y-80033454D01*
X82715458Y-79981363D01*
X82708940Y-79926259D01*
X82706768Y-79868140D01*
X82980320Y-79868140D01*
X82981103Y-79898889D01*
X82986089Y-79948503D01*
X82996684Y-79997833D01*
X83009976Y-80033145D01*
X83041136Y-80084279D01*
X83083555Y-80125766D01*
X83125595Y-80152009D01*
X83174840Y-80172077D01*
X83231291Y-80185970D01*
X83294947Y-80193689D01*
X83347417Y-80195425D01*
X83399703Y-80193929D01*
X83454307Y-80188556D01*
X83503415Y-80179275D01*
X83552092Y-80164162D01*
X83592106Y-80145325D01*
X83634621Y-80114480D01*
X83668800Y-80075525D01*
X83694642Y-80028460D01*
X83712148Y-79973286D01*
X83720151Y-79923308D01*
X83722818Y-79868140D01*
X83721948Y-79835286D01*
X83716933Y-79786392D01*
X83705964Y-79736787D01*
X83687159Y-79688377D01*
X83658772Y-79645526D01*
X83621237Y-79609938D01*
X83574555Y-79581613D01*
X83518727Y-79560550D01*
X83467478Y-79548930D01*
X83410374Y-79541957D01*
X83347417Y-79539633D01*
X83310124Y-79540473D01*
X83257677Y-79544881D01*
X83209420Y-79553066D01*
X83168477Y-79564593D01*
X83120151Y-79585758D01*
X83078985Y-79613548D01*
X83037595Y-79657602D01*
X83012537Y-79700299D01*
X82994639Y-79749621D01*
X82983900Y-79805568D01*
X82980320Y-79868140D01*
X82706768Y-79868140D01*
X82709203Y-79807552D01*
X82716507Y-79750109D01*
X82728681Y-79695811D01*
X82745725Y-79644658D01*
X82767638Y-79596649D01*
X82794421Y-79551784D01*
X82826073Y-79510064D01*
X82862595Y-79471489D01*
X82885179Y-79451259D01*
X82933775Y-79414714D01*
X82986944Y-79383390D01*
X83044685Y-79357287D01*
X83090990Y-79341135D01*
X83139868Y-79327920D01*
X83191317Y-79317642D01*
X83245338Y-79310301D01*
X83301930Y-79305896D01*
X83361095Y-79304427D01*
X83421003Y-79306168D01*
G37*
G36*
X82198499Y-79320792D02*
G01*
X81501185Y-79320792D01*
X81570795Y-79555997D01*
X82166991Y-79555997D01*
X82215713Y-79562262D01*
X82264840Y-79584763D01*
X82302091Y-79617875D01*
X82333989Y-79663516D01*
X82346021Y-79686912D01*
X82364558Y-79736072D01*
X82377028Y-79788208D01*
X82383019Y-79837049D01*
X82384367Y-79875223D01*
X82381482Y-79933103D01*
X82372827Y-79985659D01*
X82358401Y-80032891D01*
X82334279Y-80081267D01*
X82302302Y-80122397D01*
X82260968Y-80155075D01*
X82214208Y-80174188D01*
X82166991Y-80179794D01*
X81501185Y-80179794D01*
X81570795Y-80415000D01*
X82198499Y-80415000D01*
X82252770Y-80412072D01*
X82304088Y-80403291D01*
X82352452Y-80388656D01*
X82397862Y-80368166D01*
X82440318Y-80341822D01*
X82479821Y-80309624D01*
X82516369Y-80271572D01*
X82549964Y-80227665D01*
X82581064Y-80177562D01*
X82606894Y-80124644D01*
X82627452Y-80068912D01*
X82642738Y-80010365D01*
X82651172Y-79961502D01*
X82656233Y-79910836D01*
X82657919Y-79858370D01*
X82656061Y-79802996D01*
X82650485Y-79749957D01*
X82641193Y-79699253D01*
X82628183Y-79650886D01*
X82611456Y-79604854D01*
X82585320Y-79550598D01*
X82553377Y-79499991D01*
X82538973Y-79480771D01*
X82505871Y-79443276D01*
X82460693Y-79403437D01*
X82411293Y-79371410D01*
X82357672Y-79347194D01*
X82299829Y-79330790D01*
X82250515Y-79323291D01*
X82198499Y-79320792D01*
G37*
G36*
X80893578Y-79306168D02*
G01*
X80951059Y-79311388D01*
X81006113Y-79320089D01*
X81058739Y-79332271D01*
X81108939Y-79347933D01*
X81156711Y-79367076D01*
X81202057Y-79389699D01*
X81244975Y-79415802D01*
X81258754Y-79425442D01*
X81297468Y-79456102D01*
X81342962Y-79501043D01*
X81381457Y-79550624D01*
X81412953Y-79604846D01*
X81437449Y-79663709D01*
X81451229Y-79710901D01*
X81461071Y-79760703D01*
X81466977Y-79813116D01*
X81468945Y-79868140D01*
X81466365Y-79930086D01*
X81458626Y-79988796D01*
X81445727Y-80044269D01*
X81427668Y-80096507D01*
X81404450Y-80145508D01*
X81376072Y-80191273D01*
X81342534Y-80233802D01*
X81303837Y-80273094D01*
X81258503Y-80310017D01*
X81209330Y-80342017D01*
X81156318Y-80369093D01*
X81099467Y-80391247D01*
X81038776Y-80408477D01*
X80990739Y-80418170D01*
X80940542Y-80425093D01*
X80888186Y-80429246D01*
X80833670Y-80430631D01*
X80789045Y-80429770D01*
X80731624Y-80425944D01*
X80676575Y-80419058D01*
X80623901Y-80409111D01*
X80573600Y-80396103D01*
X80525673Y-80380034D01*
X80480120Y-80360905D01*
X80426517Y-80332690D01*
X80396586Y-80313702D01*
X80355309Y-80282708D01*
X80318378Y-80248701D01*
X80285792Y-80211679D01*
X80257550Y-80171644D01*
X80233654Y-80128595D01*
X80214102Y-80082532D01*
X80198895Y-80033454D01*
X80188033Y-79981363D01*
X80181515Y-79926259D01*
X80179343Y-79868140D01*
X80452895Y-79868140D01*
X80453678Y-79898889D01*
X80458664Y-79948503D01*
X80469259Y-79997833D01*
X80482551Y-80033145D01*
X80513711Y-80084279D01*
X80556130Y-80125766D01*
X80598170Y-80152009D01*
X80647415Y-80172077D01*
X80703866Y-80185970D01*
X80767522Y-80193689D01*
X80819992Y-80195425D01*
X80872278Y-80193929D01*
X80926882Y-80188556D01*
X80975990Y-80179275D01*
X81024668Y-80164162D01*
X81064681Y-80145325D01*
X81107196Y-80114480D01*
X81141375Y-80075525D01*
X81167217Y-80028460D01*
X81184723Y-79973286D01*
X81192726Y-79923308D01*
X81195393Y-79868140D01*
X81194523Y-79835286D01*
X81189508Y-79786392D01*
X81178539Y-79736787D01*
X81159734Y-79688377D01*
X81131347Y-79645526D01*
X81093812Y-79609938D01*
X81047130Y-79581613D01*
X80991302Y-79560550D01*
X80940053Y-79548930D01*
X80882949Y-79541957D01*
X80819992Y-79539633D01*
X80782699Y-79540473D01*
X80730252Y-79544881D01*
X80681995Y-79553066D01*
X80641052Y-79564593D01*
X80592726Y-79585758D01*
X80551560Y-79613548D01*
X80510170Y-79657602D01*
X80485112Y-79700299D01*
X80467214Y-79749621D01*
X80456475Y-79805568D01*
X80452895Y-79868140D01*
X80179343Y-79868140D01*
X80181778Y-79807552D01*
X80189082Y-79750109D01*
X80201256Y-79695811D01*
X80218300Y-79644658D01*
X80240213Y-79596649D01*
X80266996Y-79551784D01*
X80298648Y-79510064D01*
X80335170Y-79471489D01*
X80357754Y-79451259D01*
X80406351Y-79414714D01*
X80459519Y-79383390D01*
X80517260Y-79357287D01*
X80563565Y-79341135D01*
X80612443Y-79327920D01*
X80663892Y-79317642D01*
X80717913Y-79310301D01*
X80774505Y-79305896D01*
X80833670Y-79304427D01*
X80893578Y-79306168D01*
G37*
G36*
X79786601Y-79993681D02*
G01*
X79786601Y-80179794D01*
X79003314Y-80179794D01*
X79073167Y-80415000D01*
X80052337Y-80415000D01*
X80052337Y-79320792D01*
X79003314Y-79320792D01*
X79073167Y-79555997D01*
X79786601Y-79555997D01*
X79786601Y-79758475D01*
X79122260Y-79758475D01*
X79122260Y-79993681D01*
X79786601Y-79993681D01*
G37*
G36*
X78580041Y-79993681D02*
G01*
X78580041Y-80407916D01*
X78845777Y-80407916D01*
X78845777Y-80355896D01*
X78845777Y-80301752D01*
X78845777Y-80228498D01*
X78845777Y-80169046D01*
X78845777Y-80101101D01*
X78845777Y-80024662D01*
X78845777Y-79939731D01*
X78845777Y-79846306D01*
X78845777Y-79796409D01*
X78845777Y-79744388D01*
X78845777Y-79690244D01*
X78845777Y-79633977D01*
X78845777Y-79575586D01*
X78845777Y-79515073D01*
X78845777Y-79452436D01*
X78845777Y-79387675D01*
X78845777Y-79320792D01*
X78795954Y-79320792D01*
X78744097Y-79320792D01*
X78673937Y-79320792D01*
X78616996Y-79320792D01*
X78551921Y-79320792D01*
X78478711Y-79320792D01*
X78397367Y-79320792D01*
X78307888Y-79320792D01*
X78210275Y-79320792D01*
X78158418Y-79320792D01*
X78104527Y-79320792D01*
X78048603Y-79320792D01*
X77990645Y-79320792D01*
X77930653Y-79320792D01*
X77868628Y-79320792D01*
X77804570Y-79320792D01*
X77875644Y-79555997D01*
X78580041Y-79555997D01*
X78580041Y-79758475D01*
X77923516Y-79758475D01*
X77923516Y-79993681D01*
X78580041Y-79993681D01*
G37*
M02*
