%TF.GenerationSoftware,KiCad,Pcbnew,8.0.6*%
%TF.CreationDate,2024-11-06T21:14:03+01:00*%
%TF.ProjectId,ChocoEF,43686f63-6f45-4462-9e6b-696361645f70,rev?*%
%TF.SameCoordinates,Original*%
%TF.FileFunction,Legend,Top*%
%TF.FilePolarity,Positive*%
%FSLAX46Y46*%
G04 Gerber Fmt 4.6, Leading zero omitted, Abs format (unit mm)*
G04 Created by KiCad (PCBNEW 8.0.6) date 2024-11-06 21:14:03*
%MOMM*%
%LPD*%
G01*
G04 APERTURE LIST*
%ADD10C,0.150000*%
%ADD11C,0.187500*%
%ADD12C,0.300000*%
%ADD13C,0.076200*%
%ADD14C,0.125000*%
%ADD15C,0.120000*%
%ADD16C,0.127000*%
%ADD17C,0.066040*%
%ADD18C,0.254000*%
%ADD19C,0.500000*%
G04 APERTURE END LIST*
D10*
X115012600Y-73025000D02*
G75*
G02*
X115012600Y-67025000I0J3000000D01*
G01*
X118012600Y-73025000D02*
X115012600Y-73025000D01*
X118012600Y-67025000D02*
X115012600Y-67025000D01*
X111988600Y-89993600D02*
G75*
G02*
X114988600Y-86993600I3000001J-1D01*
G01*
X111988600Y-92993600D02*
X111988600Y-89993600D01*
X117988600Y-86993600D02*
X114988600Y-86993600D01*
X85998800Y-89992200D02*
G75*
G02*
X91998800Y-89992200I3000000J0D01*
G01*
X91998800Y-92992200D02*
X91998800Y-89992200D01*
X85998800Y-92992200D02*
X85998800Y-89992200D01*
D11*
X94522628Y-88653014D02*
X94522628Y-87903014D01*
X94522628Y-87903014D02*
X94701199Y-87903014D01*
X94701199Y-87903014D02*
X94808342Y-87938728D01*
X94808342Y-87938728D02*
X94879771Y-88010157D01*
X94879771Y-88010157D02*
X94915485Y-88081585D01*
X94915485Y-88081585D02*
X94951199Y-88224442D01*
X94951199Y-88224442D02*
X94951199Y-88331585D01*
X94951199Y-88331585D02*
X94915485Y-88474442D01*
X94915485Y-88474442D02*
X94879771Y-88545871D01*
X94879771Y-88545871D02*
X94808342Y-88617300D01*
X94808342Y-88617300D02*
X94701199Y-88653014D01*
X94701199Y-88653014D02*
X94522628Y-88653014D01*
X95236914Y-88438728D02*
X95594057Y-88438728D01*
X95165485Y-88653014D02*
X95415485Y-87903014D01*
X95415485Y-87903014D02*
X95665485Y-88653014D01*
X95808342Y-87903014D02*
X96236914Y-87903014D01*
X96022628Y-88653014D02*
X96022628Y-87903014D01*
X109265957Y-90219571D02*
X109301671Y-90112428D01*
X109301671Y-90112428D02*
X109337385Y-90076714D01*
X109337385Y-90076714D02*
X109408814Y-90041000D01*
X109408814Y-90041000D02*
X109515957Y-90041000D01*
X109515957Y-90041000D02*
X109587385Y-90076714D01*
X109587385Y-90076714D02*
X109623100Y-90112428D01*
X109623100Y-90112428D02*
X109658814Y-90183857D01*
X109658814Y-90183857D02*
X109658814Y-90469571D01*
X109658814Y-90469571D02*
X108908814Y-90469571D01*
X108908814Y-90469571D02*
X108908814Y-90219571D01*
X108908814Y-90219571D02*
X108944528Y-90148143D01*
X108944528Y-90148143D02*
X108980242Y-90112428D01*
X108980242Y-90112428D02*
X109051671Y-90076714D01*
X109051671Y-90076714D02*
X109123100Y-90076714D01*
X109123100Y-90076714D02*
X109194528Y-90112428D01*
X109194528Y-90112428D02*
X109230242Y-90148143D01*
X109230242Y-90148143D02*
X109265957Y-90219571D01*
X109265957Y-90219571D02*
X109265957Y-90469571D01*
X108980242Y-89755285D02*
X108944528Y-89719571D01*
X108944528Y-89719571D02*
X108908814Y-89648143D01*
X108908814Y-89648143D02*
X108908814Y-89469571D01*
X108908814Y-89469571D02*
X108944528Y-89398143D01*
X108944528Y-89398143D02*
X108980242Y-89362428D01*
X108980242Y-89362428D02*
X109051671Y-89326714D01*
X109051671Y-89326714D02*
X109123100Y-89326714D01*
X109123100Y-89326714D02*
X109230242Y-89362428D01*
X109230242Y-89362428D02*
X109658814Y-89791000D01*
X109658814Y-89791000D02*
X109658814Y-89326714D01*
D10*
X87784780Y-81578723D02*
X87784780Y-81007295D01*
X87784780Y-81293009D02*
X88784780Y-81293009D01*
X88784780Y-81293009D02*
X88641923Y-81197771D01*
X88641923Y-81197771D02*
X88546685Y-81102533D01*
X88546685Y-81102533D02*
X88499066Y-81007295D01*
X88689542Y-81959676D02*
X88737161Y-82007295D01*
X88737161Y-82007295D02*
X88784780Y-82102533D01*
X88784780Y-82102533D02*
X88784780Y-82340628D01*
X88784780Y-82340628D02*
X88737161Y-82435866D01*
X88737161Y-82435866D02*
X88689542Y-82483485D01*
X88689542Y-82483485D02*
X88594304Y-82531104D01*
X88594304Y-82531104D02*
X88499066Y-82531104D01*
X88499066Y-82531104D02*
X88356209Y-82483485D01*
X88356209Y-82483485D02*
X87784780Y-81912057D01*
X87784780Y-81912057D02*
X87784780Y-82531104D01*
X88165733Y-82959676D02*
X88165733Y-83721581D01*
X88689542Y-84150152D02*
X88737161Y-84197771D01*
X88737161Y-84197771D02*
X88784780Y-84293009D01*
X88784780Y-84293009D02*
X88784780Y-84531104D01*
X88784780Y-84531104D02*
X88737161Y-84626342D01*
X88737161Y-84626342D02*
X88689542Y-84673961D01*
X88689542Y-84673961D02*
X88594304Y-84721580D01*
X88594304Y-84721580D02*
X88499066Y-84721580D01*
X88499066Y-84721580D02*
X88356209Y-84673961D01*
X88356209Y-84673961D02*
X87784780Y-84102533D01*
X87784780Y-84102533D02*
X87784780Y-84721580D01*
X88784780Y-85340628D02*
X88784780Y-85435866D01*
X88784780Y-85435866D02*
X88737161Y-85531104D01*
X88737161Y-85531104D02*
X88689542Y-85578723D01*
X88689542Y-85578723D02*
X88594304Y-85626342D01*
X88594304Y-85626342D02*
X88403828Y-85673961D01*
X88403828Y-85673961D02*
X88165733Y-85673961D01*
X88165733Y-85673961D02*
X87975257Y-85626342D01*
X87975257Y-85626342D02*
X87880019Y-85578723D01*
X87880019Y-85578723D02*
X87832400Y-85531104D01*
X87832400Y-85531104D02*
X87784780Y-85435866D01*
X87784780Y-85435866D02*
X87784780Y-85340628D01*
X87784780Y-85340628D02*
X87832400Y-85245390D01*
X87832400Y-85245390D02*
X87880019Y-85197771D01*
X87880019Y-85197771D02*
X87975257Y-85150152D01*
X87975257Y-85150152D02*
X88165733Y-85102533D01*
X88165733Y-85102533D02*
X88403828Y-85102533D01*
X88403828Y-85102533D02*
X88594304Y-85150152D01*
X88594304Y-85150152D02*
X88689542Y-85197771D01*
X88689542Y-85197771D02*
X88737161Y-85245390D01*
X88737161Y-85245390D02*
X88784780Y-85340628D01*
X88784780Y-85959676D02*
X87784780Y-86293009D01*
X87784780Y-86293009D02*
X88784780Y-86626342D01*
D11*
X92490143Y-89071414D02*
X92918715Y-89071414D01*
X92704429Y-89821414D02*
X92704429Y-89071414D01*
X93454429Y-89785700D02*
X93383001Y-89821414D01*
X93383001Y-89821414D02*
X93240144Y-89821414D01*
X93240144Y-89821414D02*
X93168715Y-89785700D01*
X93168715Y-89785700D02*
X93133001Y-89714271D01*
X93133001Y-89714271D02*
X93133001Y-89428557D01*
X93133001Y-89428557D02*
X93168715Y-89357128D01*
X93168715Y-89357128D02*
X93240144Y-89321414D01*
X93240144Y-89321414D02*
X93383001Y-89321414D01*
X93383001Y-89321414D02*
X93454429Y-89357128D01*
X93454429Y-89357128D02*
X93490144Y-89428557D01*
X93490144Y-89428557D02*
X93490144Y-89499985D01*
X93490144Y-89499985D02*
X93133001Y-89571414D01*
X93811572Y-89821414D02*
X93811572Y-89321414D01*
X93811572Y-89392842D02*
X93847286Y-89357128D01*
X93847286Y-89357128D02*
X93918715Y-89321414D01*
X93918715Y-89321414D02*
X94025858Y-89321414D01*
X94025858Y-89321414D02*
X94097286Y-89357128D01*
X94097286Y-89357128D02*
X94133001Y-89428557D01*
X94133001Y-89428557D02*
X94133001Y-89821414D01*
X94133001Y-89428557D02*
X94168715Y-89357128D01*
X94168715Y-89357128D02*
X94240143Y-89321414D01*
X94240143Y-89321414D02*
X94347286Y-89321414D01*
X94347286Y-89321414D02*
X94418715Y-89357128D01*
X94418715Y-89357128D02*
X94454429Y-89428557D01*
X94454429Y-89428557D02*
X94454429Y-89821414D01*
X94811572Y-89321414D02*
X94811572Y-90071414D01*
X94811572Y-89357128D02*
X94883001Y-89321414D01*
X94883001Y-89321414D02*
X95025858Y-89321414D01*
X95025858Y-89321414D02*
X95097286Y-89357128D01*
X95097286Y-89357128D02*
X95133001Y-89392842D01*
X95133001Y-89392842D02*
X95168715Y-89464271D01*
X95168715Y-89464271D02*
X95168715Y-89678557D01*
X95168715Y-89678557D02*
X95133001Y-89749985D01*
X95133001Y-89749985D02*
X95097286Y-89785700D01*
X95097286Y-89785700D02*
X95025858Y-89821414D01*
X95025858Y-89821414D02*
X94883001Y-89821414D01*
X94883001Y-89821414D02*
X94811572Y-89785700D01*
X96061572Y-89821414D02*
X96061572Y-89071414D01*
X96061572Y-89071414D02*
X96347286Y-89071414D01*
X96347286Y-89071414D02*
X96418715Y-89107128D01*
X96418715Y-89107128D02*
X96454429Y-89142842D01*
X96454429Y-89142842D02*
X96490143Y-89214271D01*
X96490143Y-89214271D02*
X96490143Y-89321414D01*
X96490143Y-89321414D02*
X96454429Y-89392842D01*
X96454429Y-89392842D02*
X96418715Y-89428557D01*
X96418715Y-89428557D02*
X96347286Y-89464271D01*
X96347286Y-89464271D02*
X96061572Y-89464271D01*
X96811572Y-89821414D02*
X96811572Y-89321414D01*
X96811572Y-89464271D02*
X96847286Y-89392842D01*
X96847286Y-89392842D02*
X96883001Y-89357128D01*
X96883001Y-89357128D02*
X96954429Y-89321414D01*
X96954429Y-89321414D02*
X97025858Y-89321414D01*
X97383001Y-89821414D02*
X97311572Y-89785700D01*
X97311572Y-89785700D02*
X97275858Y-89749985D01*
X97275858Y-89749985D02*
X97240144Y-89678557D01*
X97240144Y-89678557D02*
X97240144Y-89464271D01*
X97240144Y-89464271D02*
X97275858Y-89392842D01*
X97275858Y-89392842D02*
X97311572Y-89357128D01*
X97311572Y-89357128D02*
X97383001Y-89321414D01*
X97383001Y-89321414D02*
X97490144Y-89321414D01*
X97490144Y-89321414D02*
X97561572Y-89357128D01*
X97561572Y-89357128D02*
X97597287Y-89392842D01*
X97597287Y-89392842D02*
X97633001Y-89464271D01*
X97633001Y-89464271D02*
X97633001Y-89678557D01*
X97633001Y-89678557D02*
X97597287Y-89749985D01*
X97597287Y-89749985D02*
X97561572Y-89785700D01*
X97561572Y-89785700D02*
X97490144Y-89821414D01*
X97490144Y-89821414D02*
X97383001Y-89821414D01*
X97954429Y-89821414D02*
X97954429Y-89071414D01*
X97954429Y-89357128D02*
X98025858Y-89321414D01*
X98025858Y-89321414D02*
X98168715Y-89321414D01*
X98168715Y-89321414D02*
X98240143Y-89357128D01*
X98240143Y-89357128D02*
X98275858Y-89392842D01*
X98275858Y-89392842D02*
X98311572Y-89464271D01*
X98311572Y-89464271D02*
X98311572Y-89678557D01*
X98311572Y-89678557D02*
X98275858Y-89749985D01*
X98275858Y-89749985D02*
X98240143Y-89785700D01*
X98240143Y-89785700D02*
X98168715Y-89821414D01*
X98168715Y-89821414D02*
X98025858Y-89821414D01*
X98025858Y-89821414D02*
X97954429Y-89785700D01*
X98918714Y-89785700D02*
X98847286Y-89821414D01*
X98847286Y-89821414D02*
X98704429Y-89821414D01*
X98704429Y-89821414D02*
X98633000Y-89785700D01*
X98633000Y-89785700D02*
X98597286Y-89714271D01*
X98597286Y-89714271D02*
X98597286Y-89428557D01*
X98597286Y-89428557D02*
X98633000Y-89357128D01*
X98633000Y-89357128D02*
X98704429Y-89321414D01*
X98704429Y-89321414D02*
X98847286Y-89321414D01*
X98847286Y-89321414D02*
X98918714Y-89357128D01*
X98918714Y-89357128D02*
X98954429Y-89428557D01*
X98954429Y-89428557D02*
X98954429Y-89499985D01*
X98954429Y-89499985D02*
X98597286Y-89571414D01*
X109444528Y-82831713D02*
X109444528Y-82474571D01*
X109658814Y-82903142D02*
X108908814Y-82653142D01*
X108908814Y-82653142D02*
X109658814Y-82403142D01*
X108980242Y-82188856D02*
X108944528Y-82153142D01*
X108944528Y-82153142D02*
X108908814Y-82081714D01*
X108908814Y-82081714D02*
X108908814Y-81903142D01*
X108908814Y-81903142D02*
X108944528Y-81831714D01*
X108944528Y-81831714D02*
X108980242Y-81795999D01*
X108980242Y-81795999D02*
X109051671Y-81760285D01*
X109051671Y-81760285D02*
X109123100Y-81760285D01*
X109123100Y-81760285D02*
X109230242Y-81795999D01*
X109230242Y-81795999D02*
X109658814Y-82224571D01*
X109658814Y-82224571D02*
X109658814Y-81760285D01*
X92137628Y-87903014D02*
X92601914Y-87903014D01*
X92601914Y-87903014D02*
X92351914Y-88188728D01*
X92351914Y-88188728D02*
X92459057Y-88188728D01*
X92459057Y-88188728D02*
X92530486Y-88224442D01*
X92530486Y-88224442D02*
X92566200Y-88260157D01*
X92566200Y-88260157D02*
X92601914Y-88331585D01*
X92601914Y-88331585D02*
X92601914Y-88510157D01*
X92601914Y-88510157D02*
X92566200Y-88581585D01*
X92566200Y-88581585D02*
X92530486Y-88617300D01*
X92530486Y-88617300D02*
X92459057Y-88653014D01*
X92459057Y-88653014D02*
X92244771Y-88653014D01*
X92244771Y-88653014D02*
X92173343Y-88617300D01*
X92173343Y-88617300D02*
X92137628Y-88581585D01*
X92816200Y-87903014D02*
X93066200Y-88653014D01*
X93066200Y-88653014D02*
X93316200Y-87903014D01*
X93494771Y-87903014D02*
X93959057Y-87903014D01*
X93959057Y-87903014D02*
X93709057Y-88188728D01*
X93709057Y-88188728D02*
X93816200Y-88188728D01*
X93816200Y-88188728D02*
X93887629Y-88224442D01*
X93887629Y-88224442D02*
X93923343Y-88260157D01*
X93923343Y-88260157D02*
X93959057Y-88331585D01*
X93959057Y-88331585D02*
X93959057Y-88510157D01*
X93959057Y-88510157D02*
X93923343Y-88581585D01*
X93923343Y-88581585D02*
X93887629Y-88617300D01*
X93887629Y-88617300D02*
X93816200Y-88653014D01*
X93816200Y-88653014D02*
X93601914Y-88653014D01*
X93601914Y-88653014D02*
X93530486Y-88617300D01*
X93530486Y-88617300D02*
X93494771Y-88581585D01*
X97294771Y-87938728D02*
X97223343Y-87903014D01*
X97223343Y-87903014D02*
X97116200Y-87903014D01*
X97116200Y-87903014D02*
X97009057Y-87938728D01*
X97009057Y-87938728D02*
X96937628Y-88010157D01*
X96937628Y-88010157D02*
X96901914Y-88081585D01*
X96901914Y-88081585D02*
X96866200Y-88224442D01*
X96866200Y-88224442D02*
X96866200Y-88331585D01*
X96866200Y-88331585D02*
X96901914Y-88474442D01*
X96901914Y-88474442D02*
X96937628Y-88545871D01*
X96937628Y-88545871D02*
X97009057Y-88617300D01*
X97009057Y-88617300D02*
X97116200Y-88653014D01*
X97116200Y-88653014D02*
X97187628Y-88653014D01*
X97187628Y-88653014D02*
X97294771Y-88617300D01*
X97294771Y-88617300D02*
X97330485Y-88581585D01*
X97330485Y-88581585D02*
X97330485Y-88331585D01*
X97330485Y-88331585D02*
X97187628Y-88331585D01*
X97651914Y-88653014D02*
X97651914Y-87903014D01*
X97651914Y-87903014D02*
X98080485Y-88653014D01*
X98080485Y-88653014D02*
X98080485Y-87903014D01*
X98437628Y-88653014D02*
X98437628Y-87903014D01*
X98437628Y-87903014D02*
X98616199Y-87903014D01*
X98616199Y-87903014D02*
X98723342Y-87938728D01*
X98723342Y-87938728D02*
X98794771Y-88010157D01*
X98794771Y-88010157D02*
X98830485Y-88081585D01*
X98830485Y-88081585D02*
X98866199Y-88224442D01*
X98866199Y-88224442D02*
X98866199Y-88331585D01*
X98866199Y-88331585D02*
X98830485Y-88474442D01*
X98830485Y-88474442D02*
X98794771Y-88545871D01*
X98794771Y-88545871D02*
X98723342Y-88617300D01*
X98723342Y-88617300D02*
X98616199Y-88653014D01*
X98616199Y-88653014D02*
X98437628Y-88653014D01*
D12*
X73528571Y-89106900D02*
X74671429Y-89106900D01*
X74100000Y-89678328D02*
X74100000Y-88535471D01*
D11*
X109265957Y-87679571D02*
X109301671Y-87572428D01*
X109301671Y-87572428D02*
X109337385Y-87536714D01*
X109337385Y-87536714D02*
X109408814Y-87501000D01*
X109408814Y-87501000D02*
X109515957Y-87501000D01*
X109515957Y-87501000D02*
X109587385Y-87536714D01*
X109587385Y-87536714D02*
X109623100Y-87572428D01*
X109623100Y-87572428D02*
X109658814Y-87643857D01*
X109658814Y-87643857D02*
X109658814Y-87929571D01*
X109658814Y-87929571D02*
X108908814Y-87929571D01*
X108908814Y-87929571D02*
X108908814Y-87679571D01*
X108908814Y-87679571D02*
X108944528Y-87608143D01*
X108944528Y-87608143D02*
X108980242Y-87572428D01*
X108980242Y-87572428D02*
X109051671Y-87536714D01*
X109051671Y-87536714D02*
X109123100Y-87536714D01*
X109123100Y-87536714D02*
X109194528Y-87572428D01*
X109194528Y-87572428D02*
X109230242Y-87608143D01*
X109230242Y-87608143D02*
X109265957Y-87679571D01*
X109265957Y-87679571D02*
X109265957Y-87929571D01*
X109658814Y-86786714D02*
X109658814Y-87215285D01*
X109658814Y-87001000D02*
X108908814Y-87001000D01*
X108908814Y-87001000D02*
X109015957Y-87072428D01*
X109015957Y-87072428D02*
X109087385Y-87143857D01*
X109087385Y-87143857D02*
X109123100Y-87215285D01*
X109444528Y-85371713D02*
X109444528Y-85014571D01*
X109658814Y-85443142D02*
X108908814Y-85193142D01*
X108908814Y-85193142D02*
X109658814Y-84943142D01*
X109658814Y-84300285D02*
X109658814Y-84728856D01*
X109658814Y-84514571D02*
X108908814Y-84514571D01*
X108908814Y-84514571D02*
X109015957Y-84585999D01*
X109015957Y-84585999D02*
X109087385Y-84657428D01*
X109087385Y-84657428D02*
X109123100Y-84728856D01*
D12*
X74106900Y-83671428D02*
X74106900Y-82528571D01*
D13*
X82632331Y-73846580D02*
X82661359Y-73759495D01*
X82661359Y-73759495D02*
X82661359Y-73614352D01*
X82661359Y-73614352D02*
X82632331Y-73556295D01*
X82632331Y-73556295D02*
X82603302Y-73527266D01*
X82603302Y-73527266D02*
X82545245Y-73498237D01*
X82545245Y-73498237D02*
X82487188Y-73498237D01*
X82487188Y-73498237D02*
X82429131Y-73527266D01*
X82429131Y-73527266D02*
X82400102Y-73556295D01*
X82400102Y-73556295D02*
X82371073Y-73614352D01*
X82371073Y-73614352D02*
X82342045Y-73730466D01*
X82342045Y-73730466D02*
X82313016Y-73788523D01*
X82313016Y-73788523D02*
X82283988Y-73817552D01*
X82283988Y-73817552D02*
X82225931Y-73846580D01*
X82225931Y-73846580D02*
X82167873Y-73846580D01*
X82167873Y-73846580D02*
X82109816Y-73817552D01*
X82109816Y-73817552D02*
X82080788Y-73788523D01*
X82080788Y-73788523D02*
X82051759Y-73730466D01*
X82051759Y-73730466D02*
X82051759Y-73585323D01*
X82051759Y-73585323D02*
X82080788Y-73498237D01*
X82632331Y-73004752D02*
X82661359Y-73062809D01*
X82661359Y-73062809D02*
X82661359Y-73178924D01*
X82661359Y-73178924D02*
X82632331Y-73236981D01*
X82632331Y-73236981D02*
X82574273Y-73266009D01*
X82574273Y-73266009D02*
X82342045Y-73266009D01*
X82342045Y-73266009D02*
X82283988Y-73236981D01*
X82283988Y-73236981D02*
X82254959Y-73178924D01*
X82254959Y-73178924D02*
X82254959Y-73062809D01*
X82254959Y-73062809D02*
X82283988Y-73004752D01*
X82283988Y-73004752D02*
X82342045Y-72975724D01*
X82342045Y-72975724D02*
X82400102Y-72975724D01*
X82400102Y-72975724D02*
X82458159Y-73266009D01*
X82632331Y-72482238D02*
X82661359Y-72540295D01*
X82661359Y-72540295D02*
X82661359Y-72656410D01*
X82661359Y-72656410D02*
X82632331Y-72714467D01*
X82632331Y-72714467D02*
X82574273Y-72743495D01*
X82574273Y-72743495D02*
X82342045Y-72743495D01*
X82342045Y-72743495D02*
X82283988Y-72714467D01*
X82283988Y-72714467D02*
X82254959Y-72656410D01*
X82254959Y-72656410D02*
X82254959Y-72540295D01*
X82254959Y-72540295D02*
X82283988Y-72482238D01*
X82283988Y-72482238D02*
X82342045Y-72453210D01*
X82342045Y-72453210D02*
X82400102Y-72453210D01*
X82400102Y-72453210D02*
X82458159Y-72743495D01*
X82632331Y-71959724D02*
X82661359Y-72017781D01*
X82661359Y-72017781D02*
X82661359Y-72133896D01*
X82661359Y-72133896D02*
X82632331Y-72191953D01*
X82632331Y-72191953D02*
X82574273Y-72220981D01*
X82574273Y-72220981D02*
X82342045Y-72220981D01*
X82342045Y-72220981D02*
X82283988Y-72191953D01*
X82283988Y-72191953D02*
X82254959Y-72133896D01*
X82254959Y-72133896D02*
X82254959Y-72017781D01*
X82254959Y-72017781D02*
X82283988Y-71959724D01*
X82283988Y-71959724D02*
X82342045Y-71930696D01*
X82342045Y-71930696D02*
X82400102Y-71930696D01*
X82400102Y-71930696D02*
X82458159Y-72220981D01*
X82661359Y-71408182D02*
X82051759Y-71408182D01*
X82632331Y-71408182D02*
X82661359Y-71466239D01*
X82661359Y-71466239D02*
X82661359Y-71582353D01*
X82661359Y-71582353D02*
X82632331Y-71640410D01*
X82632331Y-71640410D02*
X82603302Y-71669439D01*
X82603302Y-71669439D02*
X82545245Y-71698467D01*
X82545245Y-71698467D02*
X82371073Y-71698467D01*
X82371073Y-71698467D02*
X82313016Y-71669439D01*
X82313016Y-71669439D02*
X82283988Y-71640410D01*
X82283988Y-71640410D02*
X82254959Y-71582353D01*
X82254959Y-71582353D02*
X82254959Y-71466239D01*
X82254959Y-71466239D02*
X82283988Y-71408182D01*
X82254959Y-70856639D02*
X82661359Y-70856639D01*
X82254959Y-71117896D02*
X82574273Y-71117896D01*
X82574273Y-71117896D02*
X82632331Y-71088867D01*
X82632331Y-71088867D02*
X82661359Y-71030810D01*
X82661359Y-71030810D02*
X82661359Y-70943724D01*
X82661359Y-70943724D02*
X82632331Y-70885667D01*
X82632331Y-70885667D02*
X82603302Y-70856639D01*
X82661359Y-70566353D02*
X82254959Y-70566353D01*
X82051759Y-70566353D02*
X82080788Y-70595381D01*
X82080788Y-70595381D02*
X82109816Y-70566353D01*
X82109816Y-70566353D02*
X82080788Y-70537324D01*
X82080788Y-70537324D02*
X82051759Y-70566353D01*
X82051759Y-70566353D02*
X82109816Y-70566353D01*
X82254959Y-70276067D02*
X82661359Y-70276067D01*
X82313016Y-70276067D02*
X82283988Y-70247038D01*
X82283988Y-70247038D02*
X82254959Y-70188981D01*
X82254959Y-70188981D02*
X82254959Y-70101895D01*
X82254959Y-70101895D02*
X82283988Y-70043838D01*
X82283988Y-70043838D02*
X82342045Y-70014810D01*
X82342045Y-70014810D02*
X82661359Y-70014810D01*
X82661359Y-69637438D02*
X82632331Y-69695495D01*
X82632331Y-69695495D02*
X82603302Y-69724524D01*
X82603302Y-69724524D02*
X82545245Y-69753552D01*
X82545245Y-69753552D02*
X82371073Y-69753552D01*
X82371073Y-69753552D02*
X82313016Y-69724524D01*
X82313016Y-69724524D02*
X82283988Y-69695495D01*
X82283988Y-69695495D02*
X82254959Y-69637438D01*
X82254959Y-69637438D02*
X82254959Y-69550352D01*
X82254959Y-69550352D02*
X82283988Y-69492295D01*
X82283988Y-69492295D02*
X82313016Y-69463267D01*
X82313016Y-69463267D02*
X82371073Y-69434238D01*
X82371073Y-69434238D02*
X82545245Y-69434238D01*
X82545245Y-69434238D02*
X82603302Y-69463267D01*
X82603302Y-69463267D02*
X82632331Y-69492295D01*
X82632331Y-69492295D02*
X82661359Y-69550352D01*
X82661359Y-69550352D02*
X82661359Y-69637438D01*
X82051759Y-69231038D02*
X82661359Y-68824638D01*
X82051759Y-68824638D02*
X82661359Y-69231038D01*
X82661359Y-68592410D02*
X82051759Y-68592410D01*
X82487188Y-68331152D02*
X82487188Y-68040867D01*
X82661359Y-68389209D02*
X82051759Y-68186009D01*
X82051759Y-68186009D02*
X82661359Y-67982809D01*
X82051759Y-67663495D02*
X82051759Y-67547381D01*
X82051759Y-67547381D02*
X82080788Y-67489324D01*
X82080788Y-67489324D02*
X82138845Y-67431267D01*
X82138845Y-67431267D02*
X82254959Y-67402238D01*
X82254959Y-67402238D02*
X82458159Y-67402238D01*
X82458159Y-67402238D02*
X82574273Y-67431267D01*
X82574273Y-67431267D02*
X82632331Y-67489324D01*
X82632331Y-67489324D02*
X82661359Y-67547381D01*
X82661359Y-67547381D02*
X82661359Y-67663495D01*
X82661359Y-67663495D02*
X82632331Y-67721553D01*
X82632331Y-67721553D02*
X82574273Y-67779610D01*
X82574273Y-67779610D02*
X82458159Y-67808638D01*
X82458159Y-67808638D02*
X82254959Y-67808638D01*
X82254959Y-67808638D02*
X82138845Y-67779610D01*
X82138845Y-67779610D02*
X82080788Y-67721553D01*
X82080788Y-67721553D02*
X82051759Y-67663495D01*
D10*
X94809580Y-70716666D02*
X94857200Y-70764285D01*
X94857200Y-70764285D02*
X94904819Y-70907142D01*
X94904819Y-70907142D02*
X94904819Y-71002380D01*
X94904819Y-71002380D02*
X94857200Y-71145237D01*
X94857200Y-71145237D02*
X94761961Y-71240475D01*
X94761961Y-71240475D02*
X94666723Y-71288094D01*
X94666723Y-71288094D02*
X94476247Y-71335713D01*
X94476247Y-71335713D02*
X94333390Y-71335713D01*
X94333390Y-71335713D02*
X94142914Y-71288094D01*
X94142914Y-71288094D02*
X94047676Y-71240475D01*
X94047676Y-71240475D02*
X93952438Y-71145237D01*
X93952438Y-71145237D02*
X93904819Y-71002380D01*
X93904819Y-71002380D02*
X93904819Y-70907142D01*
X93904819Y-70907142D02*
X93952438Y-70764285D01*
X93952438Y-70764285D02*
X94000057Y-70716666D01*
X94904819Y-69764285D02*
X94904819Y-70335713D01*
X94904819Y-70049999D02*
X93904819Y-70049999D01*
X93904819Y-70049999D02*
X94047676Y-70145237D01*
X94047676Y-70145237D02*
X94142914Y-70240475D01*
X94142914Y-70240475D02*
X94190533Y-70335713D01*
D14*
X112530952Y-79156380D02*
X112578571Y-79180190D01*
X112578571Y-79180190D02*
X112650000Y-79180190D01*
X112650000Y-79180190D02*
X112721428Y-79156380D01*
X112721428Y-79156380D02*
X112769047Y-79108761D01*
X112769047Y-79108761D02*
X112792857Y-79061142D01*
X112792857Y-79061142D02*
X112816666Y-78965904D01*
X112816666Y-78965904D02*
X112816666Y-78894476D01*
X112816666Y-78894476D02*
X112792857Y-78799238D01*
X112792857Y-78799238D02*
X112769047Y-78751619D01*
X112769047Y-78751619D02*
X112721428Y-78704000D01*
X112721428Y-78704000D02*
X112650000Y-78680190D01*
X112650000Y-78680190D02*
X112602381Y-78680190D01*
X112602381Y-78680190D02*
X112530952Y-78704000D01*
X112530952Y-78704000D02*
X112507143Y-78727809D01*
X112507143Y-78727809D02*
X112507143Y-78894476D01*
X112507143Y-78894476D02*
X112602381Y-78894476D01*
X112292857Y-78680190D02*
X112292857Y-79180190D01*
X112292857Y-79180190D02*
X112007143Y-78680190D01*
X112007143Y-78680190D02*
X112007143Y-79180190D01*
X111769047Y-78680190D02*
X111769047Y-79180190D01*
X111769047Y-79180190D02*
X111649999Y-79180190D01*
X111649999Y-79180190D02*
X111578571Y-79156380D01*
X111578571Y-79156380D02*
X111530952Y-79108761D01*
X111530952Y-79108761D02*
X111507142Y-79061142D01*
X111507142Y-79061142D02*
X111483333Y-78965904D01*
X111483333Y-78965904D02*
X111483333Y-78894476D01*
X111483333Y-78894476D02*
X111507142Y-78799238D01*
X111507142Y-78799238D02*
X111530952Y-78751619D01*
X111530952Y-78751619D02*
X111578571Y-78704000D01*
X111578571Y-78704000D02*
X111649999Y-78680190D01*
X111649999Y-78680190D02*
X111769047Y-78680190D01*
X97409999Y-62170190D02*
X97409999Y-62670190D01*
X97409999Y-62670190D02*
X97290951Y-62670190D01*
X97290951Y-62670190D02*
X97219523Y-62646380D01*
X97219523Y-62646380D02*
X97171904Y-62598761D01*
X97171904Y-62598761D02*
X97148094Y-62551142D01*
X97148094Y-62551142D02*
X97124285Y-62455904D01*
X97124285Y-62455904D02*
X97124285Y-62384476D01*
X97124285Y-62384476D02*
X97148094Y-62289238D01*
X97148094Y-62289238D02*
X97171904Y-62241619D01*
X97171904Y-62241619D02*
X97219523Y-62194000D01*
X97219523Y-62194000D02*
X97290951Y-62170190D01*
X97290951Y-62170190D02*
X97409999Y-62170190D01*
X96909999Y-62170190D02*
X96909999Y-62670190D01*
X96386190Y-62170190D02*
X96552856Y-62408285D01*
X96671904Y-62170190D02*
X96671904Y-62670190D01*
X96671904Y-62670190D02*
X96481428Y-62670190D01*
X96481428Y-62670190D02*
X96433809Y-62646380D01*
X96433809Y-62646380D02*
X96409999Y-62622571D01*
X96409999Y-62622571D02*
X96386190Y-62574952D01*
X96386190Y-62574952D02*
X96386190Y-62503523D01*
X96386190Y-62503523D02*
X96409999Y-62455904D01*
X96409999Y-62455904D02*
X96433809Y-62432095D01*
X96433809Y-62432095D02*
X96481428Y-62408285D01*
X96481428Y-62408285D02*
X96671904Y-62408285D01*
X104252141Y-78823047D02*
X104014046Y-78823047D01*
X104299760Y-78680190D02*
X104133094Y-79180190D01*
X104133094Y-79180190D02*
X103966427Y-78680190D01*
X103537856Y-78680190D02*
X103823570Y-78680190D01*
X103680713Y-78680190D02*
X103680713Y-79180190D01*
X103680713Y-79180190D02*
X103728332Y-79108761D01*
X103728332Y-79108761D02*
X103775951Y-79061142D01*
X103775951Y-79061142D02*
X103823570Y-79037333D01*
X109812380Y-78942095D02*
X109740952Y-78918285D01*
X109740952Y-78918285D02*
X109717142Y-78894476D01*
X109717142Y-78894476D02*
X109693333Y-78846857D01*
X109693333Y-78846857D02*
X109693333Y-78775428D01*
X109693333Y-78775428D02*
X109717142Y-78727809D01*
X109717142Y-78727809D02*
X109740952Y-78704000D01*
X109740952Y-78704000D02*
X109788571Y-78680190D01*
X109788571Y-78680190D02*
X109979047Y-78680190D01*
X109979047Y-78680190D02*
X109979047Y-79180190D01*
X109979047Y-79180190D02*
X109812380Y-79180190D01*
X109812380Y-79180190D02*
X109764761Y-79156380D01*
X109764761Y-79156380D02*
X109740952Y-79132571D01*
X109740952Y-79132571D02*
X109717142Y-79084952D01*
X109717142Y-79084952D02*
X109717142Y-79037333D01*
X109717142Y-79037333D02*
X109740952Y-78989714D01*
X109740952Y-78989714D02*
X109764761Y-78965904D01*
X109764761Y-78965904D02*
X109812380Y-78942095D01*
X109812380Y-78942095D02*
X109979047Y-78942095D01*
X109502856Y-79132571D02*
X109479047Y-79156380D01*
X109479047Y-79156380D02*
X109431428Y-79180190D01*
X109431428Y-79180190D02*
X109312380Y-79180190D01*
X109312380Y-79180190D02*
X109264761Y-79156380D01*
X109264761Y-79156380D02*
X109240952Y-79132571D01*
X109240952Y-79132571D02*
X109217142Y-79084952D01*
X109217142Y-79084952D02*
X109217142Y-79037333D01*
X109217142Y-79037333D02*
X109240952Y-78965904D01*
X109240952Y-78965904D02*
X109526666Y-78680190D01*
X109526666Y-78680190D02*
X109217142Y-78680190D01*
X112792856Y-62170190D02*
X112792856Y-62670190D01*
X112792856Y-62670190D02*
X112626189Y-62313047D01*
X112626189Y-62313047D02*
X112459523Y-62670190D01*
X112459523Y-62670190D02*
X112459523Y-62170190D01*
X112245236Y-62194000D02*
X112173808Y-62170190D01*
X112173808Y-62170190D02*
X112054760Y-62170190D01*
X112054760Y-62170190D02*
X112007141Y-62194000D01*
X112007141Y-62194000D02*
X111983332Y-62217809D01*
X111983332Y-62217809D02*
X111959522Y-62265428D01*
X111959522Y-62265428D02*
X111959522Y-62313047D01*
X111959522Y-62313047D02*
X111983332Y-62360666D01*
X111983332Y-62360666D02*
X112007141Y-62384476D01*
X112007141Y-62384476D02*
X112054760Y-62408285D01*
X112054760Y-62408285D02*
X112149998Y-62432095D01*
X112149998Y-62432095D02*
X112197617Y-62455904D01*
X112197617Y-62455904D02*
X112221427Y-62479714D01*
X112221427Y-62479714D02*
X112245236Y-62527333D01*
X112245236Y-62527333D02*
X112245236Y-62574952D01*
X112245236Y-62574952D02*
X112221427Y-62622571D01*
X112221427Y-62622571D02*
X112197617Y-62646380D01*
X112197617Y-62646380D02*
X112149998Y-62670190D01*
X112149998Y-62670190D02*
X112030951Y-62670190D01*
X112030951Y-62670190D02*
X111959522Y-62646380D01*
X111483332Y-62170190D02*
X111769046Y-62170190D01*
X111626189Y-62170190D02*
X111626189Y-62670190D01*
X111626189Y-62670190D02*
X111673808Y-62598761D01*
X111673808Y-62598761D02*
X111721427Y-62551142D01*
X111721427Y-62551142D02*
X111769046Y-62527333D01*
X107907380Y-78942095D02*
X107835952Y-78918285D01*
X107835952Y-78918285D02*
X107812142Y-78894476D01*
X107812142Y-78894476D02*
X107788333Y-78846857D01*
X107788333Y-78846857D02*
X107788333Y-78775428D01*
X107788333Y-78775428D02*
X107812142Y-78727809D01*
X107812142Y-78727809D02*
X107835952Y-78704000D01*
X107835952Y-78704000D02*
X107883571Y-78680190D01*
X107883571Y-78680190D02*
X108074047Y-78680190D01*
X108074047Y-78680190D02*
X108074047Y-79180190D01*
X108074047Y-79180190D02*
X107907380Y-79180190D01*
X107907380Y-79180190D02*
X107859761Y-79156380D01*
X107859761Y-79156380D02*
X107835952Y-79132571D01*
X107835952Y-79132571D02*
X107812142Y-79084952D01*
X107812142Y-79084952D02*
X107812142Y-79037333D01*
X107812142Y-79037333D02*
X107835952Y-78989714D01*
X107835952Y-78989714D02*
X107859761Y-78965904D01*
X107859761Y-78965904D02*
X107907380Y-78942095D01*
X107907380Y-78942095D02*
X108074047Y-78942095D01*
X107312142Y-78680190D02*
X107597856Y-78680190D01*
X107454999Y-78680190D02*
X107454999Y-79180190D01*
X107454999Y-79180190D02*
X107502618Y-79108761D01*
X107502618Y-79108761D02*
X107550237Y-79061142D01*
X107550237Y-79061142D02*
X107597856Y-79037333D01*
X97290952Y-79156380D02*
X97338571Y-79180190D01*
X97338571Y-79180190D02*
X97410000Y-79180190D01*
X97410000Y-79180190D02*
X97481428Y-79156380D01*
X97481428Y-79156380D02*
X97529047Y-79108761D01*
X97529047Y-79108761D02*
X97552857Y-79061142D01*
X97552857Y-79061142D02*
X97576666Y-78965904D01*
X97576666Y-78965904D02*
X97576666Y-78894476D01*
X97576666Y-78894476D02*
X97552857Y-78799238D01*
X97552857Y-78799238D02*
X97529047Y-78751619D01*
X97529047Y-78751619D02*
X97481428Y-78704000D01*
X97481428Y-78704000D02*
X97410000Y-78680190D01*
X97410000Y-78680190D02*
X97362381Y-78680190D01*
X97362381Y-78680190D02*
X97290952Y-78704000D01*
X97290952Y-78704000D02*
X97267143Y-78727809D01*
X97267143Y-78727809D02*
X97267143Y-78894476D01*
X97267143Y-78894476D02*
X97362381Y-78894476D01*
X97052857Y-78680190D02*
X97052857Y-79180190D01*
X97052857Y-79180190D02*
X96767143Y-78680190D01*
X96767143Y-78680190D02*
X96767143Y-79180190D01*
X96529047Y-78680190D02*
X96529047Y-79180190D01*
X96529047Y-79180190D02*
X96409999Y-79180190D01*
X96409999Y-79180190D02*
X96338571Y-79156380D01*
X96338571Y-79156380D02*
X96290952Y-79108761D01*
X96290952Y-79108761D02*
X96267142Y-79061142D01*
X96267142Y-79061142D02*
X96243333Y-78965904D01*
X96243333Y-78965904D02*
X96243333Y-78894476D01*
X96243333Y-78894476D02*
X96267142Y-78799238D01*
X96267142Y-78799238D02*
X96290952Y-78751619D01*
X96290952Y-78751619D02*
X96338571Y-78704000D01*
X96338571Y-78704000D02*
X96409999Y-78680190D01*
X96409999Y-78680190D02*
X96529047Y-78680190D01*
X102585237Y-62194000D02*
X102513809Y-62170190D01*
X102513809Y-62170190D02*
X102394761Y-62170190D01*
X102394761Y-62170190D02*
X102347142Y-62194000D01*
X102347142Y-62194000D02*
X102323333Y-62217809D01*
X102323333Y-62217809D02*
X102299523Y-62265428D01*
X102299523Y-62265428D02*
X102299523Y-62313047D01*
X102299523Y-62313047D02*
X102323333Y-62360666D01*
X102323333Y-62360666D02*
X102347142Y-62384476D01*
X102347142Y-62384476D02*
X102394761Y-62408285D01*
X102394761Y-62408285D02*
X102489999Y-62432095D01*
X102489999Y-62432095D02*
X102537618Y-62455904D01*
X102537618Y-62455904D02*
X102561428Y-62479714D01*
X102561428Y-62479714D02*
X102585237Y-62527333D01*
X102585237Y-62527333D02*
X102585237Y-62574952D01*
X102585237Y-62574952D02*
X102561428Y-62622571D01*
X102561428Y-62622571D02*
X102537618Y-62646380D01*
X102537618Y-62646380D02*
X102489999Y-62670190D01*
X102489999Y-62670190D02*
X102370952Y-62670190D01*
X102370952Y-62670190D02*
X102299523Y-62646380D01*
X101847143Y-62170190D02*
X102085238Y-62170190D01*
X102085238Y-62170190D02*
X102085238Y-62670190D01*
X101680476Y-62170190D02*
X101680476Y-62670190D01*
X101680476Y-62670190D02*
X101490000Y-62670190D01*
X101490000Y-62670190D02*
X101442381Y-62646380D01*
X101442381Y-62646380D02*
X101418571Y-62622571D01*
X101418571Y-62622571D02*
X101394762Y-62574952D01*
X101394762Y-62574952D02*
X101394762Y-62503523D01*
X101394762Y-62503523D02*
X101418571Y-62455904D01*
X101418571Y-62455904D02*
X101442381Y-62432095D01*
X101442381Y-62432095D02*
X101490000Y-62408285D01*
X101490000Y-62408285D02*
X101680476Y-62408285D01*
X100033332Y-62194000D02*
X99961904Y-62170190D01*
X99961904Y-62170190D02*
X99842856Y-62170190D01*
X99842856Y-62170190D02*
X99795237Y-62194000D01*
X99795237Y-62194000D02*
X99771428Y-62217809D01*
X99771428Y-62217809D02*
X99747618Y-62265428D01*
X99747618Y-62265428D02*
X99747618Y-62313047D01*
X99747618Y-62313047D02*
X99771428Y-62360666D01*
X99771428Y-62360666D02*
X99795237Y-62384476D01*
X99795237Y-62384476D02*
X99842856Y-62408285D01*
X99842856Y-62408285D02*
X99938094Y-62432095D01*
X99938094Y-62432095D02*
X99985713Y-62455904D01*
X99985713Y-62455904D02*
X100009523Y-62479714D01*
X100009523Y-62479714D02*
X100033332Y-62527333D01*
X100033332Y-62527333D02*
X100033332Y-62574952D01*
X100033332Y-62574952D02*
X100009523Y-62622571D01*
X100009523Y-62622571D02*
X99985713Y-62646380D01*
X99985713Y-62646380D02*
X99938094Y-62670190D01*
X99938094Y-62670190D02*
X99819047Y-62670190D01*
X99819047Y-62670190D02*
X99747618Y-62646380D01*
X99604761Y-62670190D02*
X99319047Y-62670190D01*
X99461904Y-62170190D02*
X99461904Y-62670190D01*
X99152381Y-62170190D02*
X99152381Y-62670190D01*
X99152381Y-62670190D02*
X98961905Y-62670190D01*
X98961905Y-62670190D02*
X98914286Y-62646380D01*
X98914286Y-62646380D02*
X98890476Y-62622571D01*
X98890476Y-62622571D02*
X98866667Y-62574952D01*
X98866667Y-62574952D02*
X98866667Y-62503523D01*
X98866667Y-62503523D02*
X98890476Y-62455904D01*
X98890476Y-62455904D02*
X98914286Y-62432095D01*
X98914286Y-62432095D02*
X98961905Y-62408285D01*
X98961905Y-62408285D02*
X99152381Y-62408285D01*
X110252856Y-62170190D02*
X110252856Y-62670190D01*
X110252856Y-62670190D02*
X110086189Y-62313047D01*
X110086189Y-62313047D02*
X109919523Y-62670190D01*
X109919523Y-62670190D02*
X109919523Y-62170190D01*
X109705236Y-62194000D02*
X109633808Y-62170190D01*
X109633808Y-62170190D02*
X109514760Y-62170190D01*
X109514760Y-62170190D02*
X109467141Y-62194000D01*
X109467141Y-62194000D02*
X109443332Y-62217809D01*
X109443332Y-62217809D02*
X109419522Y-62265428D01*
X109419522Y-62265428D02*
X109419522Y-62313047D01*
X109419522Y-62313047D02*
X109443332Y-62360666D01*
X109443332Y-62360666D02*
X109467141Y-62384476D01*
X109467141Y-62384476D02*
X109514760Y-62408285D01*
X109514760Y-62408285D02*
X109609998Y-62432095D01*
X109609998Y-62432095D02*
X109657617Y-62455904D01*
X109657617Y-62455904D02*
X109681427Y-62479714D01*
X109681427Y-62479714D02*
X109705236Y-62527333D01*
X109705236Y-62527333D02*
X109705236Y-62574952D01*
X109705236Y-62574952D02*
X109681427Y-62622571D01*
X109681427Y-62622571D02*
X109657617Y-62646380D01*
X109657617Y-62646380D02*
X109609998Y-62670190D01*
X109609998Y-62670190D02*
X109490951Y-62670190D01*
X109490951Y-62670190D02*
X109419522Y-62646380D01*
X109229046Y-62622571D02*
X109205237Y-62646380D01*
X109205237Y-62646380D02*
X109157618Y-62670190D01*
X109157618Y-62670190D02*
X109038570Y-62670190D01*
X109038570Y-62670190D02*
X108990951Y-62646380D01*
X108990951Y-62646380D02*
X108967142Y-62622571D01*
X108967142Y-62622571D02*
X108943332Y-62574952D01*
X108943332Y-62574952D02*
X108943332Y-62527333D01*
X108943332Y-62527333D02*
X108967142Y-62455904D01*
X108967142Y-62455904D02*
X109252856Y-62170190D01*
X109252856Y-62170190D02*
X108943332Y-62170190D01*
X104168809Y-62170190D02*
X104335475Y-62408285D01*
X104454523Y-62170190D02*
X104454523Y-62670190D01*
X104454523Y-62670190D02*
X104264047Y-62670190D01*
X104264047Y-62670190D02*
X104216428Y-62646380D01*
X104216428Y-62646380D02*
X104192618Y-62622571D01*
X104192618Y-62622571D02*
X104168809Y-62574952D01*
X104168809Y-62574952D02*
X104168809Y-62503523D01*
X104168809Y-62503523D02*
X104192618Y-62455904D01*
X104192618Y-62455904D02*
X104216428Y-62432095D01*
X104216428Y-62432095D02*
X104264047Y-62408285D01*
X104264047Y-62408285D02*
X104454523Y-62408285D01*
X103978332Y-62194000D02*
X103906904Y-62170190D01*
X103906904Y-62170190D02*
X103787856Y-62170190D01*
X103787856Y-62170190D02*
X103740237Y-62194000D01*
X103740237Y-62194000D02*
X103716428Y-62217809D01*
X103716428Y-62217809D02*
X103692618Y-62265428D01*
X103692618Y-62265428D02*
X103692618Y-62313047D01*
X103692618Y-62313047D02*
X103716428Y-62360666D01*
X103716428Y-62360666D02*
X103740237Y-62384476D01*
X103740237Y-62384476D02*
X103787856Y-62408285D01*
X103787856Y-62408285D02*
X103883094Y-62432095D01*
X103883094Y-62432095D02*
X103930713Y-62455904D01*
X103930713Y-62455904D02*
X103954523Y-62479714D01*
X103954523Y-62479714D02*
X103978332Y-62527333D01*
X103978332Y-62527333D02*
X103978332Y-62574952D01*
X103978332Y-62574952D02*
X103954523Y-62622571D01*
X103954523Y-62622571D02*
X103930713Y-62646380D01*
X103930713Y-62646380D02*
X103883094Y-62670190D01*
X103883094Y-62670190D02*
X103764047Y-62670190D01*
X103764047Y-62670190D02*
X103692618Y-62646380D01*
X103549761Y-62670190D02*
X103264047Y-62670190D01*
X103406904Y-62170190D02*
X103406904Y-62670190D01*
X115594761Y-79180190D02*
X115428095Y-78680190D01*
X115428095Y-78680190D02*
X115261428Y-79180190D01*
X115094762Y-78680190D02*
X115094762Y-79180190D01*
X115094762Y-79180190D02*
X114928095Y-78823047D01*
X114928095Y-78823047D02*
X114761429Y-79180190D01*
X114761429Y-79180190D02*
X114761429Y-78680190D01*
X114428095Y-79180190D02*
X114332857Y-79180190D01*
X114332857Y-79180190D02*
X114285238Y-79156380D01*
X114285238Y-79156380D02*
X114237619Y-79108761D01*
X114237619Y-79108761D02*
X114213809Y-79013523D01*
X114213809Y-79013523D02*
X114213809Y-78846857D01*
X114213809Y-78846857D02*
X114237619Y-78751619D01*
X114237619Y-78751619D02*
X114285238Y-78704000D01*
X114285238Y-78704000D02*
X114332857Y-78680190D01*
X114332857Y-78680190D02*
X114428095Y-78680190D01*
X114428095Y-78680190D02*
X114475714Y-78704000D01*
X114475714Y-78704000D02*
X114523333Y-78751619D01*
X114523333Y-78751619D02*
X114547142Y-78846857D01*
X114547142Y-78846857D02*
X114547142Y-79013523D01*
X114547142Y-79013523D02*
X114523333Y-79108761D01*
X114523333Y-79108761D02*
X114475714Y-79156380D01*
X114475714Y-79156380D02*
X114428095Y-79180190D01*
X114070951Y-79180190D02*
X113785237Y-79180190D01*
X113928094Y-78680190D02*
X113928094Y-79180190D01*
X115059047Y-62432095D02*
X114892380Y-62432095D01*
X114820952Y-62170190D02*
X115059047Y-62170190D01*
X115059047Y-62170190D02*
X115059047Y-62670190D01*
X115059047Y-62670190D02*
X114820952Y-62670190D01*
X114606666Y-62170190D02*
X114606666Y-62670190D01*
X114606666Y-62670190D02*
X114320952Y-62170190D01*
X114320952Y-62170190D02*
X114320952Y-62670190D01*
X102349721Y-78882667D02*
X102111626Y-78882667D01*
X102397340Y-78739810D02*
X102230674Y-79239810D01*
X102230674Y-79239810D02*
X102064007Y-78739810D01*
X101921150Y-79192191D02*
X101897341Y-79216000D01*
X101897341Y-79216000D02*
X101849722Y-79239810D01*
X101849722Y-79239810D02*
X101730674Y-79239810D01*
X101730674Y-79239810D02*
X101683055Y-79216000D01*
X101683055Y-79216000D02*
X101659246Y-79192191D01*
X101659246Y-79192191D02*
X101635436Y-79144572D01*
X101635436Y-79144572D02*
X101635436Y-79096953D01*
X101635436Y-79096953D02*
X101659246Y-79025524D01*
X101659246Y-79025524D02*
X101944960Y-78739810D01*
X101944960Y-78739810D02*
X101635436Y-78739810D01*
X99997618Y-79180190D02*
X99830952Y-78680190D01*
X99830952Y-78680190D02*
X99664285Y-79180190D01*
X99497619Y-78680190D02*
X99497619Y-79180190D01*
X99164286Y-79180190D02*
X99069048Y-79180190D01*
X99069048Y-79180190D02*
X99021429Y-79156380D01*
X99021429Y-79156380D02*
X98973810Y-79108761D01*
X98973810Y-79108761D02*
X98950000Y-79013523D01*
X98950000Y-79013523D02*
X98950000Y-78846857D01*
X98950000Y-78846857D02*
X98973810Y-78751619D01*
X98973810Y-78751619D02*
X99021429Y-78704000D01*
X99021429Y-78704000D02*
X99069048Y-78680190D01*
X99069048Y-78680190D02*
X99164286Y-78680190D01*
X99164286Y-78680190D02*
X99211905Y-78704000D01*
X99211905Y-78704000D02*
X99259524Y-78751619D01*
X99259524Y-78751619D02*
X99283333Y-78846857D01*
X99283333Y-78846857D02*
X99283333Y-79013523D01*
X99283333Y-79013523D02*
X99259524Y-79108761D01*
X99259524Y-79108761D02*
X99211905Y-79156380D01*
X99211905Y-79156380D02*
X99164286Y-79180190D01*
X108347856Y-62170190D02*
X108347856Y-62670190D01*
X108347856Y-62670190D02*
X108181189Y-62313047D01*
X108181189Y-62313047D02*
X108014523Y-62670190D01*
X108014523Y-62670190D02*
X108014523Y-62170190D01*
X107800236Y-62194000D02*
X107728808Y-62170190D01*
X107728808Y-62170190D02*
X107609760Y-62170190D01*
X107609760Y-62170190D02*
X107562141Y-62194000D01*
X107562141Y-62194000D02*
X107538332Y-62217809D01*
X107538332Y-62217809D02*
X107514522Y-62265428D01*
X107514522Y-62265428D02*
X107514522Y-62313047D01*
X107514522Y-62313047D02*
X107538332Y-62360666D01*
X107538332Y-62360666D02*
X107562141Y-62384476D01*
X107562141Y-62384476D02*
X107609760Y-62408285D01*
X107609760Y-62408285D02*
X107704998Y-62432095D01*
X107704998Y-62432095D02*
X107752617Y-62455904D01*
X107752617Y-62455904D02*
X107776427Y-62479714D01*
X107776427Y-62479714D02*
X107800236Y-62527333D01*
X107800236Y-62527333D02*
X107800236Y-62574952D01*
X107800236Y-62574952D02*
X107776427Y-62622571D01*
X107776427Y-62622571D02*
X107752617Y-62646380D01*
X107752617Y-62646380D02*
X107704998Y-62670190D01*
X107704998Y-62670190D02*
X107585951Y-62670190D01*
X107585951Y-62670190D02*
X107514522Y-62646380D01*
X107347856Y-62670190D02*
X107038332Y-62670190D01*
X107038332Y-62670190D02*
X107204999Y-62479714D01*
X107204999Y-62479714D02*
X107133570Y-62479714D01*
X107133570Y-62479714D02*
X107085951Y-62455904D01*
X107085951Y-62455904D02*
X107062142Y-62432095D01*
X107062142Y-62432095D02*
X107038332Y-62384476D01*
X107038332Y-62384476D02*
X107038332Y-62265428D01*
X107038332Y-62265428D02*
X107062142Y-62217809D01*
X107062142Y-62217809D02*
X107085951Y-62194000D01*
X107085951Y-62194000D02*
X107133570Y-62170190D01*
X107133570Y-62170190D02*
X107276427Y-62170190D01*
X107276427Y-62170190D02*
X107324046Y-62194000D01*
X107324046Y-62194000D02*
X107347856Y-62217809D01*
D15*
%TO.C,J1*%
X70528000Y-90665600D02*
X70528000Y-81465600D01*
X79128000Y-90665600D02*
X70528000Y-90665600D01*
X85028000Y-90665600D02*
X83728000Y-90665600D01*
X85028000Y-88665600D02*
X85028000Y-90665600D01*
X85328000Y-82865600D02*
X85328000Y-81165600D01*
X70528000Y-81465600D02*
X85028000Y-81465600D01*
X85028000Y-81465600D02*
X85028000Y-83465600D01*
X85328000Y-81165600D02*
X84028000Y-81165600D01*
D16*
%TO.C,U1*%
X72850690Y-79514410D02*
X93178310Y-79514410D01*
X93178310Y-79514410D02*
X93178310Y-61716630D01*
X72180130Y-78843850D02*
X72850690Y-79514410D01*
D17*
X72096310Y-75831410D02*
X72096310Y-74053410D01*
X74763310Y-75831410D02*
X72096310Y-75831410D01*
X74763310Y-75831410D02*
X74763310Y-74053410D01*
X76160310Y-75831410D02*
X76160310Y-74053410D01*
X78829850Y-75831410D02*
X76160310Y-75831410D01*
X78829850Y-75831410D02*
X78829850Y-74053410D01*
D16*
X78108490Y-75120210D02*
X70755190Y-75120210D01*
X70755190Y-75115130D02*
X70755190Y-66120990D01*
D17*
X74763310Y-74053410D02*
X72096310Y-74053410D01*
X78829850Y-74053410D02*
X76160310Y-74053410D01*
X72858310Y-73164410D02*
X72858310Y-68084410D01*
X75398310Y-73164410D02*
X72858310Y-73164410D01*
X75398310Y-73164410D02*
X75398310Y-68084410D01*
X90003310Y-73164410D02*
X90003310Y-67449410D01*
X92543310Y-73164410D02*
X90003310Y-73164410D01*
X92543310Y-73164410D02*
X92543310Y-67449410D01*
X75398310Y-68084410D02*
X72858310Y-68084410D01*
X92543310Y-67449410D02*
X90003310Y-67449410D01*
X72096310Y-67195410D02*
X72096310Y-65417410D01*
X74763310Y-67195410D02*
X72096310Y-67195410D01*
X74763310Y-67195410D02*
X74763310Y-65417410D01*
X76160310Y-67195410D02*
X76160310Y-65417410D01*
X78829850Y-67195410D02*
X76160310Y-67195410D01*
X78829850Y-67195410D02*
X78829850Y-65417410D01*
D16*
X70755190Y-66120990D02*
X78108490Y-66120990D01*
X78108490Y-66120990D02*
X78108490Y-75120210D01*
D17*
X74763310Y-65417410D02*
X72096310Y-65417410D01*
X78829850Y-65417410D02*
X76160310Y-65417410D01*
D16*
X72180130Y-61716630D02*
X72180130Y-78843850D01*
X93178310Y-61716630D02*
X72180130Y-61716630D01*
D18*
X75144310Y-80403410D02*
G75*
G02*
X74890310Y-80403410I-127000J0D01*
G01*
X74890310Y-80403410D02*
G75*
G02*
X75144310Y-80403410I127000J0D01*
G01*
D15*
%TO.C,J2*%
X108227600Y-91679400D02*
X108867600Y-91679400D01*
X108867600Y-91679400D02*
X108867600Y-91279400D01*
X101887600Y-91439400D02*
X108627600Y-91439400D01*
X101887600Y-91439400D02*
X101887600Y-80578400D01*
X103007600Y-91439400D02*
X103007600Y-80578400D01*
X108107600Y-91439400D02*
X108107600Y-80578400D01*
X108627600Y-91439400D02*
X108627600Y-80578400D01*
X101887600Y-80578400D02*
X108627600Y-80578400D01*
%TO.C,J3*%
X90824600Y-86815400D02*
X90824600Y-87455400D01*
X90824600Y-87455400D02*
X91224600Y-87455400D01*
X91064600Y-80475400D02*
X91064600Y-87215400D01*
X91064600Y-80475400D02*
X99384600Y-80475400D01*
X91064600Y-81595400D02*
X99384600Y-81595400D01*
X91064600Y-86695400D02*
X99384600Y-86695400D01*
X91064600Y-87215400D02*
X99384600Y-87215400D01*
X99384600Y-80475400D02*
X99384600Y-87215400D01*
%TO.C,C1*%
X94985000Y-73570000D02*
X94985000Y-72570000D01*
X94485000Y-73070000D02*
X95485000Y-73070000D01*
X95620000Y-70550000D02*
X105780000Y-70550000D01*
X95620000Y-70510000D02*
X105780000Y-70510000D01*
X95620000Y-70470000D02*
X105780000Y-70470000D01*
X95621000Y-70430000D02*
X105779000Y-70430000D01*
X95622000Y-70390000D02*
X105778000Y-70390000D01*
X95623000Y-70350000D02*
X105777000Y-70350000D01*
X95625000Y-70310000D02*
X99660000Y-70310000D01*
X101740000Y-70310000D02*
X105775000Y-70310000D01*
X95627000Y-70270000D02*
X99660000Y-70270000D01*
X101740000Y-70270000D02*
X105773000Y-70270000D01*
X95630000Y-70230000D02*
X99660000Y-70230000D01*
X101740000Y-70230000D02*
X105770000Y-70230000D01*
X95632000Y-70190000D02*
X99660000Y-70190000D01*
X101740000Y-70190000D02*
X105768000Y-70190000D01*
X95635000Y-70150000D02*
X99660000Y-70150000D01*
X101740000Y-70150000D02*
X105765000Y-70150000D01*
X95638000Y-70110000D02*
X99660000Y-70110000D01*
X101740000Y-70110000D02*
X105762000Y-70110000D01*
X95642000Y-70070000D02*
X99660000Y-70070000D01*
X101740000Y-70070000D02*
X105758000Y-70070000D01*
X95646000Y-70030000D02*
X99660000Y-70030000D01*
X101740000Y-70030000D02*
X105754000Y-70030000D01*
X95650000Y-69990000D02*
X99660000Y-69990000D01*
X101740000Y-69990000D02*
X105750000Y-69990000D01*
X95655000Y-69950000D02*
X99660000Y-69950000D01*
X101740000Y-69950000D02*
X105745000Y-69950000D01*
X95660000Y-69910000D02*
X99660000Y-69910000D01*
X101740000Y-69910000D02*
X105740000Y-69910000D01*
X95665000Y-69870000D02*
X99660000Y-69870000D01*
X101740000Y-69870000D02*
X105735000Y-69870000D01*
X95670000Y-69829000D02*
X99660000Y-69829000D01*
X101740000Y-69829000D02*
X105730000Y-69829000D01*
X95676000Y-69789000D02*
X99660000Y-69789000D01*
X101740000Y-69789000D02*
X105724000Y-69789000D01*
X95682000Y-69749000D02*
X99660000Y-69749000D01*
X101740000Y-69749000D02*
X105718000Y-69749000D01*
X95689000Y-69709000D02*
X99660000Y-69709000D01*
X101740000Y-69709000D02*
X105711000Y-69709000D01*
X95696000Y-69669000D02*
X99660000Y-69669000D01*
X101740000Y-69669000D02*
X105704000Y-69669000D01*
X95703000Y-69629000D02*
X99660000Y-69629000D01*
X103340000Y-69629000D02*
X105697000Y-69629000D01*
X95710000Y-69589000D02*
X99660000Y-69589000D01*
X103340000Y-69589000D02*
X105690000Y-69589000D01*
X95718000Y-69549000D02*
X99660000Y-69549000D01*
X103340000Y-69549000D02*
X105682000Y-69549000D01*
X95726000Y-69509000D02*
X99660000Y-69509000D01*
X103340000Y-69509000D02*
X105674000Y-69509000D01*
X95735000Y-69469000D02*
X99660000Y-69469000D01*
X103340000Y-69469000D02*
X105665000Y-69469000D01*
X95744000Y-69429000D02*
X99660000Y-69429000D01*
X103340000Y-69429000D02*
X105656000Y-69429000D01*
X95753000Y-69389000D02*
X99660000Y-69389000D01*
X103340000Y-69389000D02*
X105647000Y-69389000D01*
X95762000Y-69349000D02*
X99660000Y-69349000D01*
X103340000Y-69349000D02*
X105638000Y-69349000D01*
X95772000Y-69309000D02*
X99660000Y-69309000D01*
X103340000Y-69309000D02*
X105628000Y-69309000D01*
X95782000Y-69269000D02*
X99660000Y-69269000D01*
X103340000Y-69269000D02*
X105618000Y-69269000D01*
X95793000Y-69229000D02*
X99660000Y-69229000D01*
X103340000Y-69229000D02*
X105607000Y-69229000D01*
X95803000Y-69189000D02*
X99660000Y-69189000D01*
X103340000Y-69189000D02*
X105597000Y-69189000D01*
X95815000Y-69149000D02*
X99660000Y-69149000D01*
X103340000Y-69149000D02*
X105585000Y-69149000D01*
X95826000Y-69109000D02*
X99660000Y-69109000D01*
X103340000Y-69109000D02*
X105574000Y-69109000D01*
X95838000Y-69069000D02*
X99660000Y-69069000D01*
X103340000Y-69069000D02*
X105562000Y-69069000D01*
X95850000Y-69029000D02*
X99660000Y-69029000D01*
X103340000Y-69029000D02*
X105550000Y-69029000D01*
X95863000Y-68989000D02*
X99660000Y-68989000D01*
X103340000Y-68989000D02*
X105537000Y-68989000D01*
X95876000Y-68949000D02*
X99660000Y-68949000D01*
X103340000Y-68949000D02*
X105524000Y-68949000D01*
X95889000Y-68909000D02*
X99660000Y-68909000D01*
X103340000Y-68909000D02*
X105511000Y-68909000D01*
X95903000Y-68869000D02*
X99660000Y-68869000D01*
X103340000Y-68869000D02*
X105497000Y-68869000D01*
X95917000Y-68829000D02*
X99660000Y-68829000D01*
X103340000Y-68829000D02*
X105483000Y-68829000D01*
X95932000Y-68789000D02*
X99660000Y-68789000D01*
X103340000Y-68789000D02*
X105468000Y-68789000D01*
X95946000Y-68749000D02*
X99660000Y-68749000D01*
X103340000Y-68749000D02*
X105454000Y-68749000D01*
X95962000Y-68709000D02*
X99660000Y-68709000D01*
X103340000Y-68709000D02*
X105438000Y-68709000D01*
X95977000Y-68669000D02*
X99660000Y-68669000D01*
X103340000Y-68669000D02*
X105423000Y-68669000D01*
X95993000Y-68629000D02*
X99660000Y-68629000D01*
X103340000Y-68629000D02*
X105407000Y-68629000D01*
X96010000Y-68589000D02*
X99660000Y-68589000D01*
X103340000Y-68589000D02*
X105390000Y-68589000D01*
X96026000Y-68549000D02*
X99660000Y-68549000D01*
X103340000Y-68549000D02*
X105374000Y-68549000D01*
X96043000Y-68509000D02*
X99660000Y-68509000D01*
X103340000Y-68509000D02*
X105357000Y-68509000D01*
X96061000Y-68469000D02*
X99660000Y-68469000D01*
X103340000Y-68469000D02*
X105339000Y-68469000D01*
X96079000Y-68429000D02*
X99660000Y-68429000D01*
X103340000Y-68429000D02*
X105321000Y-68429000D01*
X96097000Y-68389000D02*
X99660000Y-68389000D01*
X103340000Y-68389000D02*
X105303000Y-68389000D01*
X96116000Y-68349000D02*
X99660000Y-68349000D01*
X103340000Y-68349000D02*
X105284000Y-68349000D01*
X96136000Y-68309000D02*
X99660000Y-68309000D01*
X103340000Y-68309000D02*
X105264000Y-68309000D01*
X96155000Y-68269000D02*
X99660000Y-68269000D01*
X103340000Y-68269000D02*
X105245000Y-68269000D01*
X96175000Y-68229000D02*
X101260000Y-68229000D01*
X103340000Y-68229000D02*
X105225000Y-68229000D01*
X96196000Y-68189000D02*
X101260000Y-68189000D01*
X103340000Y-68189000D02*
X105204000Y-68189000D01*
X96217000Y-68149000D02*
X101260000Y-68149000D01*
X103340000Y-68149000D02*
X105183000Y-68149000D01*
X96238000Y-68109000D02*
X101260000Y-68109000D01*
X103340000Y-68109000D02*
X105162000Y-68109000D01*
X96260000Y-68069000D02*
X101260000Y-68069000D01*
X103340000Y-68069000D02*
X105140000Y-68069000D01*
X96283000Y-68029000D02*
X101260000Y-68029000D01*
X103340000Y-68029000D02*
X105117000Y-68029000D01*
X96305000Y-67989000D02*
X101260000Y-67989000D01*
X103340000Y-67989000D02*
X105095000Y-67989000D01*
X96329000Y-67949000D02*
X101260000Y-67949000D01*
X103340000Y-67949000D02*
X105071000Y-67949000D01*
X96353000Y-67909000D02*
X101260000Y-67909000D01*
X103340000Y-67909000D02*
X105047000Y-67909000D01*
X96377000Y-67869000D02*
X101260000Y-67869000D01*
X103340000Y-67869000D02*
X105023000Y-67869000D01*
X96402000Y-67829000D02*
X101260000Y-67829000D01*
X103340000Y-67829000D02*
X104998000Y-67829000D01*
X96427000Y-67789000D02*
X101260000Y-67789000D01*
X103340000Y-67789000D02*
X104973000Y-67789000D01*
X96453000Y-67749000D02*
X101260000Y-67749000D01*
X103340000Y-67749000D02*
X104947000Y-67749000D01*
X96479000Y-67709000D02*
X101260000Y-67709000D01*
X103340000Y-67709000D02*
X104921000Y-67709000D01*
X96506000Y-67669000D02*
X101260000Y-67669000D01*
X103340000Y-67669000D02*
X104894000Y-67669000D01*
X96534000Y-67629000D02*
X101260000Y-67629000D01*
X103340000Y-67629000D02*
X104866000Y-67629000D01*
X96562000Y-67589000D02*
X101260000Y-67589000D01*
X103340000Y-67589000D02*
X104838000Y-67589000D01*
X96590000Y-67549000D02*
X104810000Y-67549000D01*
X96620000Y-67509000D02*
X104780000Y-67509000D01*
X96650000Y-67469000D02*
X104750000Y-67469000D01*
X96680000Y-67429000D02*
X104720000Y-67429000D01*
X96711000Y-67389000D02*
X104689000Y-67389000D01*
X96743000Y-67349000D02*
X104657000Y-67349000D01*
X96775000Y-67309000D02*
X104625000Y-67309000D01*
X96808000Y-67269000D02*
X104592000Y-67269000D01*
X96842000Y-67229000D02*
X104558000Y-67229000D01*
X96876000Y-67189000D02*
X104524000Y-67189000D01*
X96911000Y-67149000D02*
X104489000Y-67149000D01*
X96947000Y-67109000D02*
X104453000Y-67109000D01*
X96984000Y-67069000D02*
X104416000Y-67069000D01*
X97021000Y-67029000D02*
X104379000Y-67029000D01*
X97060000Y-66989000D02*
X104340000Y-66989000D01*
X97099000Y-66949000D02*
X104301000Y-66949000D01*
X97139000Y-66909000D02*
X104261000Y-66909000D01*
X97180000Y-66869000D02*
X104220000Y-66869000D01*
X97222000Y-66829000D02*
X104178000Y-66829000D01*
X97264000Y-66789000D02*
X104136000Y-66789000D01*
X97308000Y-66749000D02*
X104092000Y-66749000D01*
X97353000Y-66709000D02*
X104047000Y-66709000D01*
X97399000Y-66669000D02*
X104001000Y-66669000D01*
X97446000Y-66629000D02*
X103954000Y-66629000D01*
X97494000Y-66589000D02*
X103906000Y-66589000D01*
X97544000Y-66549000D02*
X103856000Y-66549000D01*
X97594000Y-66509000D02*
X103806000Y-66509000D01*
X97646000Y-66469000D02*
X103754000Y-66469000D01*
X97700000Y-66429000D02*
X103700000Y-66429000D01*
X97755000Y-66389000D02*
X103645000Y-66389000D01*
X97811000Y-66349000D02*
X103589000Y-66349000D01*
X97870000Y-66309000D02*
X103530000Y-66309000D01*
X97930000Y-66269000D02*
X103470000Y-66269000D01*
X97991000Y-66229000D02*
X103409000Y-66229000D01*
X98055000Y-66189000D02*
X103345000Y-66189000D01*
X98121000Y-66149000D02*
X103279000Y-66149000D01*
X98190000Y-66109000D02*
X103210000Y-66109000D01*
X98261000Y-66069000D02*
X103139000Y-66069000D01*
X98335000Y-66029000D02*
X103065000Y-66029000D01*
X98411000Y-65989000D02*
X102989000Y-65989000D01*
X98491000Y-65949000D02*
X102909000Y-65949000D01*
X98575000Y-65909000D02*
X102825000Y-65909000D01*
X98663000Y-65869000D02*
X102737000Y-65869000D01*
X98756000Y-65829000D02*
X102644000Y-65829000D01*
X98854000Y-65789000D02*
X102546000Y-65789000D01*
X98958000Y-65749000D02*
X102442000Y-65749000D01*
X99070000Y-65709000D02*
X102330000Y-65709000D01*
X99190000Y-65669000D02*
X102210000Y-65669000D01*
X99322000Y-65629000D02*
X102078000Y-65629000D01*
X99470000Y-65589000D02*
X101930000Y-65589000D01*
X99638000Y-65549000D02*
X101762000Y-65549000D01*
X99838000Y-65509000D02*
X101562000Y-65509000D01*
X100101000Y-65469000D02*
X101299000Y-65469000D01*
X105820000Y-70550000D02*
G75*
G02*
X95580000Y-70550000I-5120000J0D01*
G01*
X95580000Y-70550000D02*
G75*
G02*
X105820000Y-70550000I5120000J0D01*
G01*
D10*
%TO.C,REF\u002A\u002A*%
X74125000Y-84100000D02*
X74125000Y-85000000D01*
X74125000Y-86100000D02*
X74125000Y-88100000D01*
X73450000Y-86850000D02*
G75*
G02*
X74875000Y-86775000I675000J750000D01*
G01*
X75050000Y-83100000D02*
G75*
G02*
X73200000Y-83100000I-925000J0D01*
G01*
X73200000Y-83100000D02*
G75*
G02*
X75050000Y-83100000I925000J0D01*
G01*
D19*
X74300000Y-86100000D02*
G75*
G02*
X73950000Y-86100000I-175000J0D01*
G01*
X73950000Y-86100000D02*
G75*
G02*
X74300000Y-86100000I175000J0D01*
G01*
D10*
X75050000Y-89100000D02*
G75*
G02*
X73200000Y-89100000I-925000J0D01*
G01*
X73200000Y-89100000D02*
G75*
G02*
X75050000Y-89100000I925000J0D01*
G01*
D15*
%TO.C,U2*%
X94370000Y-79540000D02*
X117230000Y-79540000D01*
X95640000Y-65505000D02*
X95640000Y-63600000D01*
X95640000Y-78205000D02*
X95640000Y-75665000D01*
X104530000Y-78270000D02*
X107070000Y-78270000D01*
X104530000Y-79540000D02*
X104530000Y-78270000D01*
X104784000Y-63030000D02*
X104784000Y-61760000D01*
X106816000Y-63030000D02*
X104784000Y-63030000D01*
X106816000Y-63030000D02*
X106816000Y-61760000D01*
X107070000Y-78270000D02*
X107070000Y-79540000D01*
X115960000Y-65505000D02*
X95640000Y-65505000D01*
X115960000Y-65505000D02*
X115960000Y-62965000D01*
X115960000Y-75665000D02*
X95640000Y-75665000D01*
X115960000Y-78205000D02*
X115960000Y-75665000D01*
X117230000Y-61760000D02*
X94370000Y-61760000D01*
%TD*%
M02*
