M48
; DRILL file {KiCad 8.0.6} date 2024-11-06T21:13:55+0100
; FORMAT={-:-/ absolute / inch / decimal}
; #@! TF.CreationDate,2024-11-06T21:13:55+01:00
; #@! TF.GenerationSoftware,Kicad,Pcbnew,8.0.6
; #@! TF.FileFunction,Plated,1,2,PTH
FMAT,2
INCH
; #@! TA.AperFunction,Plated,PTH,ViaDrill
T1C0.0157
; #@! TA.AperFunction,Plated,PTH,ComponentDrill
T2C0.0315
; #@! TA.AperFunction,Plated,PTH,ComponentDrill
T3C0.0394
; #@! TA.AperFunction,Plated,PTH,ComponentDrill
T4C0.0433
; #@! TA.AperFunction,Plated,PTH,ComponentDrill
T5C0.0866
%
G90
G05
T1
X3.0551Y-2.5827
X3.2283Y-2.6063
X3.563Y-2.9409
T2
X3.8154Y-2.5315
X3.8154Y-3.0315
X3.9016Y-2.8532
X3.9154Y-2.5315
X3.9154Y-3.0315
X3.9646Y-2.7283
X3.9646Y-2.8268
X4.0154Y-2.5315
X4.0154Y-3.0315
X4.0276Y-2.7019
X4.1154Y-2.5315
X4.1154Y-3.0315
X4.2154Y-2.5315
X4.2154Y-3.0315
X4.3154Y-2.5315
X4.3154Y-3.0315
X4.4154Y-2.5315
X4.4154Y-3.0315
X4.5154Y-2.5315
X4.5154Y-3.0315
T4
X3.649Y-3.301
X3.749Y-3.301
X3.849Y-3.301
X4.144Y-3.2362
X4.144Y-3.3362
X4.144Y-3.4362
X4.144Y-3.5362
T5
X3.5039Y-3.5433
X4.5276Y-2.7559
X4.5276Y-3.5433
T3
G00X3.072Y-3.3451
M15
G01X3.072Y-3.4317
M16
G05
G00X3.2491Y-3.5774
M15
G01X3.1625Y-3.5774
M16
G05
G00X3.32Y-3.3372
M15
G01X3.32Y-3.4396
M16
G05
M30
