%TF.GenerationSoftware,KiCad,Pcbnew,8.0.6*%
%TF.CreationDate,2024-11-06T21:14:03+01:00*%
%TF.ProjectId,ChocoEF,43686f63-6f45-4462-9e6b-696361645f70,rev?*%
%TF.SameCoordinates,Original*%
%TF.FileFunction,Copper,L2,Bot*%
%TF.FilePolarity,Positive*%
%FSLAX46Y46*%
G04 Gerber Fmt 4.6, Leading zero omitted, Abs format (unit mm)*
G04 Created by KiCad (PCBNEW 8.0.6) date 2024-11-06 21:14:03*
%MOMM*%
%LPD*%
G01*
G04 APERTURE LIST*
%TA.AperFunction,ComponentPad*%
%ADD10C,3.800000*%
%TD*%
%TA.AperFunction,ComponentPad*%
%ADD11O,4.200000X2.000000*%
%TD*%
%TA.AperFunction,ComponentPad*%
%ADD12O,2.000000X4.200000*%
%TD*%
%TA.AperFunction,ComponentPad*%
%ADD13R,2.000000X4.600000*%
%TD*%
%TA.AperFunction,ComponentPad*%
%ADD14R,2.100000X2.100000*%
%TD*%
%TA.AperFunction,ComponentPad*%
%ADD15C,2.100000*%
%TD*%
%TA.AperFunction,ComponentPad*%
%ADD16R,1.600000X1.600000*%
%TD*%
%TA.AperFunction,ComponentPad*%
%ADD17C,1.600000*%
%TD*%
%TA.AperFunction,ComponentPad*%
%ADD18C,1.700000*%
%TD*%
%TA.AperFunction,ViaPad*%
%ADD19C,0.800000*%
%TD*%
%TA.AperFunction,Conductor*%
%ADD20C,0.750000*%
%TD*%
%TA.AperFunction,Conductor*%
%ADD21C,0.250000*%
%TD*%
G04 APERTURE END LIST*
D10*
%TO.P,REF\u002A\u002A,1*%
%TO.N,N/C*%
X89000000Y-90000000D03*
%TD*%
%TO.P,REF\u002A\u002A,1*%
%TO.N,N/C*%
X115000000Y-90000000D03*
%TD*%
%TO.P,REF\u002A\u002A,1*%
%TO.N,N/C*%
X115000000Y-70000000D03*
%TD*%
D11*
%TO.P,J1,3*%
%TO.N,N/C*%
X81428000Y-90865600D03*
D12*
%TO.P,J1,2*%
%TO.N,GND*%
X78028000Y-86065600D03*
D13*
%TO.P,J1,1*%
%TO.N,VCC*%
X84328000Y-86065600D03*
%TD*%
D14*
%TO.P,J2,1,Pin_1*%
%TO.N,Net-(J2-Pin_1)*%
X105257600Y-89819400D03*
D15*
%TO.P,J2,2,Pin_2*%
%TO.N,Net-(J2-Pin_2)*%
X105257600Y-87279400D03*
%TO.P,J2,3,Pin_3*%
%TO.N,Net-(J2-Pin_3)*%
X105257600Y-84739400D03*
%TO.P,J2,4,Pin_4*%
%TO.N,Net-(J2-Pin_4)*%
X105257600Y-82199400D03*
%TD*%
D14*
%TO.P,J3,1,Pin_1*%
%TO.N,+3.3V*%
X92684600Y-83845400D03*
D15*
%TO.P,J3,2,Pin_2*%
%TO.N,TS_Data*%
X95224600Y-83845400D03*
%TO.P,J3,3,Pin_3*%
%TO.N,GND*%
X97764600Y-83845400D03*
%TD*%
D16*
%TO.P,C1,1*%
%TO.N,VCC*%
X99100000Y-72470937D03*
X100700000Y-71800000D03*
D17*
%TO.P,C1,2*%
%TO.N,GND*%
X100700000Y-69300000D03*
X102300000Y-68629063D03*
%TD*%
D18*
%TO.P,U2,16,DIR*%
%TO.N,DIR*%
X96910000Y-64300000D03*
%TO.P,U2,15,STP*%
%TO.N,STP*%
X99450000Y-64300000D03*
%TO.P,U2,14,SLP*%
%TO.N,SLP*%
X101990000Y-64300000D03*
%TO.P,U2,13,RST*%
%TO.N,RST*%
X104530000Y-64300000D03*
%TO.P,U2,12,MS3*%
%TO.N,MS3*%
X107070000Y-64300000D03*
%TO.P,U2,11,MS2*%
%TO.N,MS2*%
X109610000Y-64300000D03*
%TO.P,U2,10,MS1*%
%TO.N,MS1*%
X112150000Y-64300000D03*
%TO.P,U2,9,EN*%
%TO.N,EN*%
X114690000Y-64300000D03*
%TO.P,U2,8,GND*%
%TO.N,GND*%
X96910000Y-77000000D03*
%TO.P,U2,7,VIO*%
%TO.N,+3.3V*%
X99450000Y-77000000D03*
%TO.P,U2,6,A2*%
%TO.N,Net-(J2-Pin_1)*%
X101990000Y-77000000D03*
%TO.P,U2,5,A1*%
%TO.N,Net-(J2-Pin_2)*%
X104530000Y-77000000D03*
%TO.P,U2,4,B1*%
%TO.N,Net-(J2-Pin_3)*%
X107070000Y-77000000D03*
%TO.P,U2,3,B2*%
%TO.N,Net-(J2-Pin_4)*%
X109610000Y-77000000D03*
%TO.P,U2,2,GND*%
%TO.N,GND*%
X112150000Y-77000000D03*
%TO.P,U2,1,VMOT*%
%TO.N,VCC*%
X114690000Y-77000000D03*
%TD*%
D19*
%TO.N,GND*%
X77600490Y-65600490D03*
%TO.N,+3.3V*%
X82000000Y-66200000D03*
X90500000Y-74700000D03*
%TD*%
D20*
%TO.N,Net-(J2-Pin_3)*%
X106217800Y-84739400D02*
X105257600Y-84739400D01*
X107070000Y-77000000D02*
X107238800Y-77168800D01*
X107238800Y-77168800D02*
X107238800Y-83718400D01*
X107238800Y-83718400D02*
X106217800Y-84739400D01*
%TO.N,VCC*%
X95717677Y-71982323D02*
X84300000Y-83400000D01*
X84300000Y-83400000D02*
X84300000Y-86100000D01*
X107450000Y-74000000D02*
X105432323Y-71982323D01*
X111690000Y-74000000D02*
X107450000Y-74000000D01*
X105432323Y-71982323D02*
X95717677Y-71982323D01*
X114690000Y-77000000D02*
X111690000Y-74000000D01*
D21*
%TO.N,+3.3V*%
X90500000Y-74700000D02*
X82000000Y-66200000D01*
%TD*%
%TA.AperFunction,Conductor*%
%TO.N,GND*%
G36*
X115003525Y-60300697D02*
G01*
X115295185Y-60317077D01*
X115309221Y-60318658D01*
X115593727Y-60366998D01*
X115607485Y-60370138D01*
X115884792Y-60450029D01*
X115898123Y-60454694D01*
X116164742Y-60565131D01*
X116177452Y-60571252D01*
X116430026Y-60710844D01*
X116441985Y-60718358D01*
X116677341Y-60885352D01*
X116688388Y-60894162D01*
X116903558Y-61086450D01*
X116913549Y-61096441D01*
X117105837Y-61311611D01*
X117114647Y-61322658D01*
X117281641Y-61558014D01*
X117289158Y-61569978D01*
X117428740Y-61822533D01*
X117434871Y-61835264D01*
X117545304Y-62101873D01*
X117549971Y-62115210D01*
X117629859Y-62392506D01*
X117633003Y-62406281D01*
X117681340Y-62690776D01*
X117682922Y-62704817D01*
X117699302Y-62996474D01*
X117699500Y-63003539D01*
X117699500Y-89996460D01*
X117699302Y-90003525D01*
X117682922Y-90295182D01*
X117681340Y-90309223D01*
X117633003Y-90593718D01*
X117629859Y-90607493D01*
X117549971Y-90884789D01*
X117545304Y-90898126D01*
X117434871Y-91164735D01*
X117428740Y-91177466D01*
X117289158Y-91430021D01*
X117281641Y-91441985D01*
X117114647Y-91677341D01*
X117105837Y-91688388D01*
X116913549Y-91903558D01*
X116903558Y-91913549D01*
X116688388Y-92105837D01*
X116677341Y-92114647D01*
X116441985Y-92281641D01*
X116430021Y-92289158D01*
X116177466Y-92428740D01*
X116164735Y-92434871D01*
X115898126Y-92545304D01*
X115884789Y-92549971D01*
X115607493Y-92629859D01*
X115593718Y-92633003D01*
X115309223Y-92681340D01*
X115295182Y-92682922D01*
X115003526Y-92699302D01*
X114996461Y-92699500D01*
X75003539Y-92699500D01*
X74996474Y-92699302D01*
X74704817Y-92682922D01*
X74690776Y-92681340D01*
X74406281Y-92633003D01*
X74392506Y-92629859D01*
X74115210Y-92549971D01*
X74101873Y-92545304D01*
X73835264Y-92434871D01*
X73822539Y-92428743D01*
X73569978Y-92289158D01*
X73558014Y-92281641D01*
X73322658Y-92114647D01*
X73311611Y-92105837D01*
X73096441Y-91913549D01*
X73086450Y-91903558D01*
X72894162Y-91688388D01*
X72885352Y-91677341D01*
X72718358Y-91441985D01*
X72710841Y-91430021D01*
X72682035Y-91377900D01*
X72571252Y-91177452D01*
X72565131Y-91164742D01*
X72454694Y-90898123D01*
X72450028Y-90884789D01*
X72410296Y-90746878D01*
X78819500Y-90746878D01*
X78819500Y-90984322D01*
X78850091Y-91177466D01*
X78856645Y-91218846D01*
X78930016Y-91444658D01*
X78930018Y-91444663D01*
X79037815Y-91656227D01*
X79177380Y-91848322D01*
X79177382Y-91848324D01*
X79177384Y-91848327D01*
X79345272Y-92016215D01*
X79345275Y-92016217D01*
X79345278Y-92016220D01*
X79537373Y-92155785D01*
X79748937Y-92263582D01*
X79974759Y-92336956D01*
X80209278Y-92374100D01*
X80209281Y-92374100D01*
X82646719Y-92374100D01*
X82646722Y-92374100D01*
X82881241Y-92336956D01*
X83107063Y-92263582D01*
X83318627Y-92155785D01*
X83510722Y-92016220D01*
X83678620Y-91848322D01*
X83818185Y-91656227D01*
X83925982Y-91444663D01*
X83999356Y-91218841D01*
X84036500Y-90984322D01*
X84036500Y-90746878D01*
X83999356Y-90512359D01*
X83925982Y-90286537D01*
X83818185Y-90074973D01*
X83763709Y-89999993D01*
X86586738Y-89999993D01*
X86586738Y-90000006D01*
X86605765Y-90302449D01*
X86605767Y-90302466D01*
X86645806Y-90512353D01*
X86662555Y-90600154D01*
X86756206Y-90888381D01*
X86885242Y-91162598D01*
X86885244Y-91162601D01*
X86885247Y-91162607D01*
X87047624Y-91418473D01*
X87067075Y-91441985D01*
X87240808Y-91651992D01*
X87461729Y-91859450D01*
X87706910Y-92037584D01*
X87972483Y-92183585D01*
X88174527Y-92263580D01*
X88254255Y-92295147D01*
X88254258Y-92295147D01*
X88254261Y-92295149D01*
X88547800Y-92370516D01*
X88547806Y-92370516D01*
X88547807Y-92370517D01*
X88705384Y-92390423D01*
X88848470Y-92408500D01*
X88848473Y-92408500D01*
X89151527Y-92408500D01*
X89151530Y-92408500D01*
X89452200Y-92370516D01*
X89745739Y-92295149D01*
X90027517Y-92183585D01*
X90293090Y-92037584D01*
X90538271Y-91859450D01*
X90759192Y-91651992D01*
X90952370Y-91418480D01*
X90952372Y-91418475D01*
X90952375Y-91418473D01*
X91114752Y-91162607D01*
X91114758Y-91162598D01*
X91243794Y-90888381D01*
X91337445Y-90600154D01*
X91394233Y-90302462D01*
X91394234Y-90302449D01*
X91413262Y-90000006D01*
X91413262Y-89999993D01*
X91394234Y-89697550D01*
X91394232Y-89697533D01*
X91370937Y-89575417D01*
X91337445Y-89399846D01*
X91243794Y-89111619D01*
X91114758Y-88837402D01*
X91114752Y-88837392D01*
X90952375Y-88581526D01*
X90759192Y-88348008D01*
X90759190Y-88348006D01*
X90538270Y-88140549D01*
X90293092Y-87962417D01*
X90252386Y-87940038D01*
X90027517Y-87816415D01*
X89946414Y-87784304D01*
X89745744Y-87704852D01*
X89745737Y-87704850D01*
X89452192Y-87629482D01*
X89151544Y-87591501D01*
X89151532Y-87591500D01*
X89151530Y-87591500D01*
X88848470Y-87591500D01*
X88848467Y-87591500D01*
X88848455Y-87591501D01*
X88547807Y-87629482D01*
X88254262Y-87704850D01*
X88254255Y-87704852D01*
X87972483Y-87816415D01*
X87706907Y-87962417D01*
X87461730Y-88140549D01*
X87461729Y-88140549D01*
X87240809Y-88348006D01*
X87240807Y-88348008D01*
X87047624Y-88581526D01*
X86885247Y-88837392D01*
X86885240Y-88837406D01*
X86756209Y-89111612D01*
X86756207Y-89111616D01*
X86662556Y-89399842D01*
X86662554Y-89399850D01*
X86605767Y-89697533D01*
X86605765Y-89697550D01*
X86586738Y-89999993D01*
X83763709Y-89999993D01*
X83678620Y-89882878D01*
X83678617Y-89882875D01*
X83678615Y-89882872D01*
X83510727Y-89714984D01*
X83510724Y-89714982D01*
X83510722Y-89714980D01*
X83318627Y-89575415D01*
X83107063Y-89467618D01*
X83107060Y-89467617D01*
X83107058Y-89467616D01*
X82881246Y-89394245D01*
X82881242Y-89394244D01*
X82881241Y-89394244D01*
X82646722Y-89357100D01*
X80209278Y-89357100D01*
X79974759Y-89394244D01*
X79974753Y-89394245D01*
X79748941Y-89467616D01*
X79748935Y-89467619D01*
X79537369Y-89575417D01*
X79345275Y-89714982D01*
X79345272Y-89714984D01*
X79177384Y-89882872D01*
X79177382Y-89882875D01*
X79037817Y-90074969D01*
X78930019Y-90286535D01*
X78930016Y-90286541D01*
X78856645Y-90512353D01*
X78856644Y-90512358D01*
X78856644Y-90512359D01*
X78819500Y-90746878D01*
X72410296Y-90746878D01*
X72370138Y-90607485D01*
X72366998Y-90593727D01*
X72318658Y-90309221D01*
X72317077Y-90295182D01*
X72316591Y-90286535D01*
X72300698Y-90003525D01*
X72300500Y-89996460D01*
X72300500Y-84846921D01*
X76520000Y-84846921D01*
X76520000Y-85811600D01*
X77528000Y-85811600D01*
X77528000Y-86319600D01*
X76520000Y-86319600D01*
X76520000Y-87284278D01*
X76557133Y-87518729D01*
X76630480Y-87744467D01*
X76738245Y-87955967D01*
X76877764Y-88147998D01*
X76877766Y-88148001D01*
X77045598Y-88315833D01*
X77045601Y-88315835D01*
X77237632Y-88455354D01*
X77449132Y-88563119D01*
X77674871Y-88636466D01*
X77774000Y-88652166D01*
X77774000Y-87596302D01*
X77835007Y-87631525D01*
X77962174Y-87665600D01*
X78093826Y-87665600D01*
X78220993Y-87631525D01*
X78282000Y-87596302D01*
X78282000Y-88652166D01*
X78381128Y-88636466D01*
X78606867Y-88563119D01*
X78818367Y-88455354D01*
X79010398Y-88315835D01*
X79010401Y-88315833D01*
X79178233Y-88148001D01*
X79178235Y-88147998D01*
X79317754Y-87955967D01*
X79425519Y-87744467D01*
X79498866Y-87518729D01*
X79536000Y-87284278D01*
X79536000Y-86319600D01*
X78528000Y-86319600D01*
X78528000Y-85811600D01*
X79536000Y-85811600D01*
X79536000Y-84846921D01*
X79498866Y-84612470D01*
X79425519Y-84386732D01*
X79317754Y-84175232D01*
X79178235Y-83983201D01*
X79178233Y-83983198D01*
X79010401Y-83815366D01*
X79010398Y-83815364D01*
X78818367Y-83675845D01*
X78606867Y-83568080D01*
X78381128Y-83494733D01*
X78282000Y-83479032D01*
X78282000Y-84534897D01*
X78220993Y-84499675D01*
X78093826Y-84465600D01*
X77962174Y-84465600D01*
X77835007Y-84499675D01*
X77774000Y-84534897D01*
X77774000Y-83479032D01*
X77674871Y-83494733D01*
X77449132Y-83568080D01*
X77237632Y-83675845D01*
X77045601Y-83815364D01*
X77045598Y-83815366D01*
X76877766Y-83983198D01*
X76877764Y-83983201D01*
X76738245Y-84175232D01*
X76630480Y-84386732D01*
X76557133Y-84612470D01*
X76520000Y-84846921D01*
X72300500Y-84846921D01*
X72300500Y-66200000D01*
X81086496Y-66200000D01*
X81106457Y-66389927D01*
X81112883Y-66409703D01*
X81165473Y-66571556D01*
X81165476Y-66571561D01*
X81260958Y-66736941D01*
X81260965Y-66736951D01*
X81388744Y-66878864D01*
X81388743Y-66878864D01*
X81543245Y-66991116D01*
X81543248Y-66991118D01*
X81609330Y-67020539D01*
X81625734Y-67029349D01*
X81645977Y-67042233D01*
X81645981Y-67042235D01*
X81645989Y-67042240D01*
X82172443Y-67279858D01*
X82209703Y-67305607D01*
X89394390Y-74490294D01*
X89420137Y-74527551D01*
X89431244Y-74552158D01*
X89431245Y-74552159D01*
X89593642Y-74911957D01*
X89593643Y-74911958D01*
X89593644Y-74911963D01*
X89657753Y-75053997D01*
X89657768Y-75054029D01*
X89658940Y-75056340D01*
X89662740Y-75065542D01*
X89662786Y-75065522D01*
X89665474Y-75071558D01*
X89673421Y-75085324D01*
X89676684Y-75091348D01*
X89678716Y-75095357D01*
X89681876Y-75100362D01*
X89681721Y-75100459D01*
X89684904Y-75105212D01*
X89760960Y-75236944D01*
X89760962Y-75236947D01*
X89760965Y-75236951D01*
X89888744Y-75378864D01*
X89888747Y-75378866D01*
X90043248Y-75491118D01*
X90217712Y-75568794D01*
X90404513Y-75608500D01*
X90537852Y-75608500D01*
X90605973Y-75628502D01*
X90652466Y-75682158D01*
X90662570Y-75752432D01*
X90633076Y-75817012D01*
X90626947Y-75823595D01*
X84074539Y-82376001D01*
X84072213Y-82378269D01*
X84071892Y-82378573D01*
X84070220Y-82380320D01*
X83613739Y-82836803D01*
X83613738Y-82836805D01*
X83517052Y-82981505D01*
X83450450Y-83142296D01*
X83448653Y-83148221D01*
X83447699Y-83147931D01*
X83425800Y-83195315D01*
X83414753Y-83209278D01*
X83356800Y-83250290D01*
X83315939Y-83257100D01*
X83279350Y-83257100D01*
X83218803Y-83263609D01*
X83218795Y-83263611D01*
X83081797Y-83314710D01*
X83081792Y-83314712D01*
X82964738Y-83402338D01*
X82877112Y-83519392D01*
X82877110Y-83519397D01*
X82826011Y-83656395D01*
X82826009Y-83656403D01*
X82819500Y-83716950D01*
X82819500Y-88414249D01*
X82826009Y-88474796D01*
X82826011Y-88474804D01*
X82877110Y-88611802D01*
X82877112Y-88611807D01*
X82964738Y-88728861D01*
X83081792Y-88816487D01*
X83081794Y-88816488D01*
X83081796Y-88816489D01*
X83137839Y-88837392D01*
X83218795Y-88867588D01*
X83218803Y-88867590D01*
X83279350Y-88874099D01*
X83279355Y-88874099D01*
X83279362Y-88874100D01*
X83279368Y-88874100D01*
X85376632Y-88874100D01*
X85376638Y-88874100D01*
X85376645Y-88874099D01*
X85376649Y-88874099D01*
X85437196Y-88867590D01*
X85437199Y-88867589D01*
X85437201Y-88867589D01*
X85574204Y-88816489D01*
X85691261Y-88728861D01*
X85778889Y-88611804D01*
X85829989Y-88474801D01*
X85836500Y-88414238D01*
X85836500Y-83716962D01*
X85836342Y-83715499D01*
X85836034Y-83708728D01*
X85835821Y-83708740D01*
X85835569Y-83704253D01*
X85835570Y-83704240D01*
X85834434Y-83695358D01*
X85834432Y-83695349D01*
X85834172Y-83693668D01*
X85834235Y-83693658D01*
X85833314Y-83687336D01*
X85829989Y-83656399D01*
X85826926Y-83648188D01*
X85825185Y-83642895D01*
X85821664Y-83634004D01*
X85820754Y-83631637D01*
X85778890Y-83519397D01*
X85774570Y-83511486D01*
X85774688Y-83511421D01*
X85773304Y-83509140D01*
X85772980Y-83509326D01*
X85769952Y-83504035D01*
X85699657Y-83381222D01*
X85683178Y-83312169D01*
X85706649Y-83245164D01*
X85719911Y-83229545D01*
X86202706Y-82746750D01*
X91126100Y-82746750D01*
X91126100Y-84944049D01*
X91132609Y-85004596D01*
X91132611Y-85004604D01*
X91183710Y-85141602D01*
X91183712Y-85141607D01*
X91271338Y-85258661D01*
X91388392Y-85346287D01*
X91388394Y-85346288D01*
X91388396Y-85346289D01*
X91447475Y-85368324D01*
X91525395Y-85397388D01*
X91525403Y-85397390D01*
X91585950Y-85403899D01*
X91585955Y-85403899D01*
X91585962Y-85403900D01*
X91585968Y-85403900D01*
X93783232Y-85403900D01*
X93783238Y-85403900D01*
X93783245Y-85403899D01*
X93783249Y-85403899D01*
X93843796Y-85397390D01*
X93843799Y-85397389D01*
X93843801Y-85397389D01*
X93980804Y-85346289D01*
X93999620Y-85332204D01*
X94097861Y-85258661D01*
X94170628Y-85161456D01*
X94227463Y-85118909D01*
X94298279Y-85113844D01*
X94337326Y-85129530D01*
X94514868Y-85238327D01*
X94741508Y-85332205D01*
X94980043Y-85389472D01*
X95224600Y-85408719D01*
X95469157Y-85389472D01*
X95707692Y-85332205D01*
X95934332Y-85238327D01*
X96143496Y-85110152D01*
X96330033Y-84950833D01*
X96489352Y-84764296D01*
X96489360Y-84764281D01*
X96491104Y-84761882D01*
X96503957Y-84746831D01*
X97239616Y-84011171D01*
X97252082Y-84057692D01*
X97324490Y-84183108D01*
X97426892Y-84285510D01*
X97552308Y-84357918D01*
X97598826Y-84370382D01*
X96854347Y-85114860D01*
X96854347Y-85114862D01*
X97055091Y-85237879D01*
X97281664Y-85331728D01*
X97520121Y-85388976D01*
X97764600Y-85408217D01*
X98009078Y-85388976D01*
X98247535Y-85331728D01*
X98474108Y-85237879D01*
X98674851Y-85114862D01*
X98674852Y-85114861D01*
X97930373Y-84370382D01*
X97976892Y-84357918D01*
X98102308Y-84285510D01*
X98204710Y-84183108D01*
X98277118Y-84057692D01*
X98289582Y-84011173D01*
X99034061Y-84755652D01*
X99034062Y-84755651D01*
X99157079Y-84554908D01*
X99250928Y-84328335D01*
X99308176Y-84089878D01*
X99327417Y-83845400D01*
X99308176Y-83600921D01*
X99250928Y-83362464D01*
X99157079Y-83135891D01*
X99034062Y-82935147D01*
X99034060Y-82935147D01*
X98289582Y-83679625D01*
X98277118Y-83633108D01*
X98204710Y-83507692D01*
X98102308Y-83405290D01*
X97976892Y-83332882D01*
X97930373Y-83320417D01*
X98674851Y-82575938D01*
X98674851Y-82575937D01*
X98474103Y-82452918D01*
X98247535Y-82359071D01*
X98009078Y-82301823D01*
X97764600Y-82282582D01*
X97520121Y-82301823D01*
X97281664Y-82359071D01*
X97055096Y-82452918D01*
X96854347Y-82575937D01*
X96854347Y-82575938D01*
X97598826Y-83320417D01*
X97552308Y-83332882D01*
X97426892Y-83405290D01*
X97324490Y-83507692D01*
X97252082Y-83633108D01*
X97239617Y-83679626D01*
X96503957Y-82943966D01*
X96491117Y-82928934D01*
X96489357Y-82926512D01*
X96489352Y-82926504D01*
X96330033Y-82739967D01*
X96143496Y-82580648D01*
X96143494Y-82580646D01*
X96143492Y-82580645D01*
X95935058Y-82452918D01*
X95934332Y-82452473D01*
X95707692Y-82358595D01*
X95469157Y-82301328D01*
X95224600Y-82282081D01*
X94980043Y-82301328D01*
X94741507Y-82358595D01*
X94581245Y-82424978D01*
X94535428Y-82443957D01*
X94514866Y-82452474D01*
X94337330Y-82561267D01*
X94268797Y-82579805D01*
X94201120Y-82558348D01*
X94170628Y-82529343D01*
X94097861Y-82432138D01*
X93980807Y-82344512D01*
X93980802Y-82344510D01*
X93843804Y-82293411D01*
X93843796Y-82293409D01*
X93783249Y-82286900D01*
X93783238Y-82286900D01*
X91585962Y-82286900D01*
X91585950Y-82286900D01*
X91525403Y-82293409D01*
X91525395Y-82293411D01*
X91388397Y-82344510D01*
X91388392Y-82344512D01*
X91271338Y-82432138D01*
X91183712Y-82549192D01*
X91183710Y-82549197D01*
X91132611Y-82686195D01*
X91132609Y-82686203D01*
X91126100Y-82746750D01*
X86202706Y-82746750D01*
X96046729Y-72902728D01*
X96109041Y-72868702D01*
X96135824Y-72865823D01*
X97665500Y-72865823D01*
X97733621Y-72885825D01*
X97780114Y-72939481D01*
X97791500Y-72991823D01*
X97791500Y-73319586D01*
X97798009Y-73380133D01*
X97798011Y-73380141D01*
X97849110Y-73517139D01*
X97849112Y-73517144D01*
X97936738Y-73634198D01*
X98053792Y-73721824D01*
X98053794Y-73721825D01*
X98053796Y-73721826D01*
X98112875Y-73743861D01*
X98190795Y-73772925D01*
X98190803Y-73772927D01*
X98251350Y-73779436D01*
X98251355Y-73779436D01*
X98251362Y-73779437D01*
X98251368Y-73779437D01*
X99948632Y-73779437D01*
X99948638Y-73779437D01*
X99948645Y-73779436D01*
X99948649Y-73779436D01*
X100009196Y-73772927D01*
X100009199Y-73772926D01*
X100009201Y-73772926D01*
X100146204Y-73721826D01*
X100263261Y-73634198D01*
X100350889Y-73517141D01*
X100401989Y-73380138D01*
X100408500Y-73319575D01*
X100408500Y-73234500D01*
X100428502Y-73166379D01*
X100482158Y-73119886D01*
X100534500Y-73108500D01*
X101548632Y-73108500D01*
X101548638Y-73108500D01*
X101548645Y-73108499D01*
X101548649Y-73108499D01*
X101609196Y-73101990D01*
X101609199Y-73101989D01*
X101609201Y-73101989D01*
X101746204Y-73050889D01*
X101863261Y-72963261D01*
X101898404Y-72916314D01*
X101955240Y-72873768D01*
X101999273Y-72865823D01*
X105014175Y-72865823D01*
X105082296Y-72885825D01*
X105103270Y-72902728D01*
X106886793Y-74686252D01*
X106886797Y-74686255D01*
X106886801Y-74686259D01*
X106983490Y-74750864D01*
X107031506Y-74782948D01*
X107125692Y-74821961D01*
X107125693Y-74821962D01*
X107192292Y-74849548D01*
X107220613Y-74855181D01*
X107220616Y-74855181D01*
X107362983Y-74883500D01*
X111271852Y-74883500D01*
X111339973Y-74903502D01*
X111360947Y-74920405D01*
X111903010Y-75462468D01*
X111937036Y-75524780D01*
X111931971Y-75595595D01*
X111889424Y-75652431D01*
X111834654Y-75675844D01*
X111815502Y-75679039D01*
X111815483Y-75679044D01*
X111602630Y-75752116D01*
X111602628Y-75752118D01*
X111404700Y-75859230D01*
X111404693Y-75859235D01*
X111384311Y-75875099D01*
X111384310Y-75875100D01*
X112109210Y-76600000D01*
X112097339Y-76600000D01*
X111995606Y-76627259D01*
X111904394Y-76679920D01*
X111829920Y-76754394D01*
X111777259Y-76845606D01*
X111750000Y-76947339D01*
X111750000Y-76959210D01*
X111026921Y-76236131D01*
X111026919Y-76236132D01*
X110985781Y-76299100D01*
X110931777Y-76345189D01*
X110861430Y-76354764D01*
X110797072Y-76324787D01*
X110774816Y-76299101D01*
X110733676Y-76236131D01*
X110685724Y-76162734D01*
X110685720Y-76162729D01*
X110533237Y-75997091D01*
X110451382Y-75933381D01*
X110355576Y-75858811D01*
X110157574Y-75751658D01*
X110157572Y-75751657D01*
X110157571Y-75751656D01*
X109944639Y-75678557D01*
X109944630Y-75678555D01*
X109900476Y-75671187D01*
X109722569Y-75641500D01*
X109497431Y-75641500D01*
X109349211Y-75666233D01*
X109275369Y-75678555D01*
X109275360Y-75678557D01*
X109062428Y-75751656D01*
X109062426Y-75751658D01*
X108864432Y-75858807D01*
X108864426Y-75858810D01*
X108864424Y-75858811D01*
X108686762Y-75997091D01*
X108534279Y-76162729D01*
X108445483Y-76298643D01*
X108391479Y-76344731D01*
X108321131Y-76354306D01*
X108256774Y-76324329D01*
X108234517Y-76298643D01*
X108145720Y-76162729D01*
X107993237Y-75997091D01*
X107911382Y-75933381D01*
X107815576Y-75858811D01*
X107617574Y-75751658D01*
X107617572Y-75751657D01*
X107617571Y-75751656D01*
X107404639Y-75678557D01*
X107404630Y-75678555D01*
X107360476Y-75671187D01*
X107182569Y-75641500D01*
X106957431Y-75641500D01*
X106809211Y-75666233D01*
X106735369Y-75678555D01*
X106735360Y-75678557D01*
X106522428Y-75751656D01*
X106522426Y-75751658D01*
X106324432Y-75858807D01*
X106324426Y-75858810D01*
X106324424Y-75858811D01*
X106146762Y-75997091D01*
X105994279Y-76162729D01*
X105905483Y-76298643D01*
X105851479Y-76344731D01*
X105781131Y-76354306D01*
X105716774Y-76324329D01*
X105694517Y-76298643D01*
X105605720Y-76162729D01*
X105453237Y-75997091D01*
X105371382Y-75933381D01*
X105275576Y-75858811D01*
X105077574Y-75751658D01*
X105077572Y-75751657D01*
X105077571Y-75751656D01*
X104864639Y-75678557D01*
X104864630Y-75678555D01*
X104820476Y-75671187D01*
X104642569Y-75641500D01*
X104417431Y-75641500D01*
X104269211Y-75666233D01*
X104195369Y-75678555D01*
X104195360Y-75678557D01*
X103982428Y-75751656D01*
X103982426Y-75751658D01*
X103784432Y-75858807D01*
X103784426Y-75858810D01*
X103784424Y-75858811D01*
X103606762Y-75997091D01*
X103454279Y-76162729D01*
X103365483Y-76298643D01*
X103311479Y-76344731D01*
X103241131Y-76354306D01*
X103176774Y-76324329D01*
X103154517Y-76298643D01*
X103065720Y-76162729D01*
X102913237Y-75997091D01*
X102831382Y-75933381D01*
X102735576Y-75858811D01*
X102537574Y-75751658D01*
X102537572Y-75751657D01*
X102537571Y-75751656D01*
X102324639Y-75678557D01*
X102324630Y-75678555D01*
X102280476Y-75671187D01*
X102102569Y-75641500D01*
X101877431Y-75641500D01*
X101729211Y-75666233D01*
X101655369Y-75678555D01*
X101655360Y-75678557D01*
X101442428Y-75751656D01*
X101442426Y-75751658D01*
X101244432Y-75858807D01*
X101244426Y-75858810D01*
X101244424Y-75858811D01*
X101066762Y-75997091D01*
X100914279Y-76162729D01*
X100825483Y-76298643D01*
X100771479Y-76344731D01*
X100701131Y-76354306D01*
X100636774Y-76324329D01*
X100614517Y-76298643D01*
X100525720Y-76162729D01*
X100373237Y-75997091D01*
X100291382Y-75933381D01*
X100195576Y-75858811D01*
X99997574Y-75751658D01*
X99997572Y-75751657D01*
X99997571Y-75751656D01*
X99784639Y-75678557D01*
X99784630Y-75678555D01*
X99740476Y-75671187D01*
X99562569Y-75641500D01*
X99337431Y-75641500D01*
X99189211Y-75666233D01*
X99115369Y-75678555D01*
X99115360Y-75678557D01*
X98902428Y-75751656D01*
X98902426Y-75751658D01*
X98704432Y-75858807D01*
X98704426Y-75858810D01*
X98704424Y-75858811D01*
X98526762Y-75997091D01*
X98374279Y-76162729D01*
X98285183Y-76299101D01*
X98231179Y-76345189D01*
X98160831Y-76354764D01*
X98096474Y-76324786D01*
X98074217Y-76299100D01*
X98033078Y-76236132D01*
X97310000Y-76959209D01*
X97310000Y-76947339D01*
X97282741Y-76845606D01*
X97230080Y-76754394D01*
X97155606Y-76679920D01*
X97064394Y-76627259D01*
X96962661Y-76600000D01*
X96950789Y-76600000D01*
X97675688Y-75875100D01*
X97675687Y-75875099D01*
X97655308Y-75859237D01*
X97655298Y-75859231D01*
X97457371Y-75752117D01*
X97457369Y-75752116D01*
X97244516Y-75679044D01*
X97244509Y-75679042D01*
X97022523Y-75642000D01*
X96797477Y-75642000D01*
X96575490Y-75679042D01*
X96575483Y-75679044D01*
X96362630Y-75752116D01*
X96362628Y-75752118D01*
X96164700Y-75859230D01*
X96164693Y-75859235D01*
X96144311Y-75875099D01*
X96144310Y-75875100D01*
X96869210Y-76600000D01*
X96857339Y-76600000D01*
X96755606Y-76627259D01*
X96664394Y-76679920D01*
X96589920Y-76754394D01*
X96537259Y-76845606D01*
X96510000Y-76947339D01*
X96510000Y-76959210D01*
X95786921Y-76236131D01*
X95786920Y-76236132D01*
X95711586Y-76351439D01*
X95711579Y-76351453D01*
X95621179Y-76557543D01*
X95621176Y-76557550D01*
X95565932Y-76775707D01*
X95547346Y-77000000D01*
X95565932Y-77224292D01*
X95621176Y-77442449D01*
X95621179Y-77442456D01*
X95711580Y-77648548D01*
X95786921Y-77763866D01*
X96510000Y-77040787D01*
X96510000Y-77052661D01*
X96537259Y-77154394D01*
X96589920Y-77245606D01*
X96664394Y-77320080D01*
X96755606Y-77372741D01*
X96857339Y-77400000D01*
X96869209Y-77400000D01*
X96144310Y-78124898D01*
X96164697Y-78140766D01*
X96164701Y-78140768D01*
X96362628Y-78247882D01*
X96362630Y-78247883D01*
X96575483Y-78320955D01*
X96575490Y-78320957D01*
X96797477Y-78358000D01*
X97022523Y-78358000D01*
X97244509Y-78320957D01*
X97244516Y-78320955D01*
X97457369Y-78247883D01*
X97457371Y-78247881D01*
X97655298Y-78140769D01*
X97675688Y-78124898D01*
X96950790Y-77400000D01*
X96962661Y-77400000D01*
X97064394Y-77372741D01*
X97155606Y-77320080D01*
X97230080Y-77245606D01*
X97282741Y-77154394D01*
X97310000Y-77052661D01*
X97310000Y-77040789D01*
X98033077Y-77763866D01*
X98033078Y-77763866D01*
X98074217Y-77700899D01*
X98128221Y-77654810D01*
X98198568Y-77645235D01*
X98262926Y-77675212D01*
X98285183Y-77700898D01*
X98374279Y-77837270D01*
X98526762Y-78002908D01*
X98581331Y-78045381D01*
X98704424Y-78141189D01*
X98902426Y-78248342D01*
X98902427Y-78248342D01*
X98902428Y-78248343D01*
X99014227Y-78286723D01*
X99115365Y-78321444D01*
X99337431Y-78358500D01*
X99337435Y-78358500D01*
X99562565Y-78358500D01*
X99562569Y-78358500D01*
X99784635Y-78321444D01*
X99997574Y-78248342D01*
X100195576Y-78141189D01*
X100373240Y-78002906D01*
X100525722Y-77837268D01*
X100614518Y-77701354D01*
X100668520Y-77655268D01*
X100738868Y-77645692D01*
X100803225Y-77675669D01*
X100825480Y-77701353D01*
X100837359Y-77719534D01*
X100914275Y-77837265D01*
X100914279Y-77837270D01*
X101066762Y-78002908D01*
X101121331Y-78045381D01*
X101244424Y-78141189D01*
X101442426Y-78248342D01*
X101442427Y-78248342D01*
X101442428Y-78248343D01*
X101554227Y-78286723D01*
X101655365Y-78321444D01*
X101877431Y-78358500D01*
X101877435Y-78358500D01*
X102102565Y-78358500D01*
X102102569Y-78358500D01*
X102324635Y-78321444D01*
X102537574Y-78248342D01*
X102735576Y-78141189D01*
X102913240Y-78002906D01*
X103065722Y-77837268D01*
X103154518Y-77701354D01*
X103208520Y-77655268D01*
X103278868Y-77645692D01*
X103343225Y-77675669D01*
X103365480Y-77701353D01*
X103377359Y-77719534D01*
X103454275Y-77837265D01*
X103454279Y-77837270D01*
X103606762Y-78002908D01*
X103661331Y-78045381D01*
X103784424Y-78141189D01*
X103982426Y-78248342D01*
X103982427Y-78248342D01*
X103982428Y-78248343D01*
X104094227Y-78286723D01*
X104195365Y-78321444D01*
X104417431Y-78358500D01*
X104417435Y-78358500D01*
X104642565Y-78358500D01*
X104642569Y-78358500D01*
X104864635Y-78321444D01*
X105077574Y-78248342D01*
X105275576Y-78141189D01*
X105453240Y-78002906D01*
X105605722Y-77837268D01*
X105682643Y-77719531D01*
X105736644Y-77673445D01*
X105806991Y-77663869D01*
X105871349Y-77693846D01*
X105903801Y-77738499D01*
X106200540Y-78425721D01*
X106344977Y-78760223D01*
X106355300Y-78810172D01*
X106355300Y-80819230D01*
X106335298Y-80887351D01*
X106281642Y-80933844D01*
X106211368Y-80943948D01*
X106163466Y-80926663D01*
X106084754Y-80878428D01*
X105967332Y-80806473D01*
X105740692Y-80712595D01*
X105502157Y-80655328D01*
X105257600Y-80636081D01*
X105013043Y-80655328D01*
X104774507Y-80712595D01*
X104547866Y-80806474D01*
X104338707Y-80934645D01*
X104152167Y-81093967D01*
X103992845Y-81280507D01*
X103864674Y-81489666D01*
X103864673Y-81489668D01*
X103770795Y-81716308D01*
X103713528Y-81954843D01*
X103694281Y-82199400D01*
X103713528Y-82443957D01*
X103770795Y-82682492D01*
X103864673Y-82909132D01*
X103864674Y-82909133D01*
X103992845Y-83118292D01*
X103992846Y-83118294D01*
X103992848Y-83118296D01*
X104152167Y-83304833D01*
X104185008Y-83332882D01*
X104232669Y-83373589D01*
X104271478Y-83433040D01*
X104271984Y-83504035D01*
X104234028Y-83564033D01*
X104232669Y-83565211D01*
X104152167Y-83633967D01*
X103992845Y-83820507D01*
X103864674Y-84029666D01*
X103801116Y-84183108D01*
X103770795Y-84256308D01*
X103713528Y-84494843D01*
X103694281Y-84739400D01*
X103713528Y-84983957D01*
X103770795Y-85222492D01*
X103864673Y-85449132D01*
X103864674Y-85449133D01*
X103992845Y-85658292D01*
X103992846Y-85658294D01*
X103992848Y-85658296D01*
X104152167Y-85844833D01*
X104218503Y-85901489D01*
X104232669Y-85913589D01*
X104271478Y-85973040D01*
X104271984Y-86044035D01*
X104234028Y-86104033D01*
X104232669Y-86105211D01*
X104152167Y-86173967D01*
X103992845Y-86360507D01*
X103864674Y-86569666D01*
X103864673Y-86569668D01*
X103770795Y-86796308D01*
X103713528Y-87034843D01*
X103694281Y-87279400D01*
X103713528Y-87523957D01*
X103770795Y-87762492D01*
X103864673Y-87989132D01*
X103864674Y-87989133D01*
X103973467Y-88166670D01*
X103992005Y-88235203D01*
X103970548Y-88302880D01*
X103941543Y-88333372D01*
X103844338Y-88406138D01*
X103756712Y-88523192D01*
X103756710Y-88523197D01*
X103705611Y-88660195D01*
X103705609Y-88660203D01*
X103699100Y-88720750D01*
X103699100Y-90918049D01*
X103705609Y-90978596D01*
X103705611Y-90978604D01*
X103756710Y-91115602D01*
X103756712Y-91115607D01*
X103844338Y-91232661D01*
X103961392Y-91320287D01*
X103961394Y-91320288D01*
X103961396Y-91320289D01*
X104020475Y-91342324D01*
X104098395Y-91371388D01*
X104098403Y-91371390D01*
X104158950Y-91377899D01*
X104158955Y-91377899D01*
X104158962Y-91377900D01*
X104158968Y-91377900D01*
X106356232Y-91377900D01*
X106356238Y-91377900D01*
X106356245Y-91377899D01*
X106356249Y-91377899D01*
X106416796Y-91371390D01*
X106416799Y-91371389D01*
X106416801Y-91371389D01*
X106553804Y-91320289D01*
X106670861Y-91232661D01*
X106723310Y-91162598D01*
X106758487Y-91115607D01*
X106758487Y-91115606D01*
X106758489Y-91115604D01*
X106809589Y-90978601D01*
X106816100Y-90918038D01*
X106816100Y-89999993D01*
X112586738Y-89999993D01*
X112586738Y-90000006D01*
X112605765Y-90302449D01*
X112605767Y-90302466D01*
X112645806Y-90512353D01*
X112662555Y-90600154D01*
X112756206Y-90888381D01*
X112885242Y-91162598D01*
X112885244Y-91162601D01*
X112885247Y-91162607D01*
X113047624Y-91418473D01*
X113067075Y-91441985D01*
X113240808Y-91651992D01*
X113461729Y-91859450D01*
X113706910Y-92037584D01*
X113972483Y-92183585D01*
X114174527Y-92263580D01*
X114254255Y-92295147D01*
X114254258Y-92295147D01*
X114254261Y-92295149D01*
X114547800Y-92370516D01*
X114547806Y-92370516D01*
X114547807Y-92370517D01*
X114705384Y-92390423D01*
X114848470Y-92408500D01*
X114848473Y-92408500D01*
X115151527Y-92408500D01*
X115151530Y-92408500D01*
X115452200Y-92370516D01*
X115745739Y-92295149D01*
X116027517Y-92183585D01*
X116293090Y-92037584D01*
X116538271Y-91859450D01*
X116759192Y-91651992D01*
X116952370Y-91418480D01*
X116952372Y-91418475D01*
X116952375Y-91418473D01*
X117114752Y-91162607D01*
X117114758Y-91162598D01*
X117243794Y-90888381D01*
X117337445Y-90600154D01*
X117394233Y-90302462D01*
X117394234Y-90302449D01*
X117413262Y-90000006D01*
X117413262Y-89999993D01*
X117394234Y-89697550D01*
X117394232Y-89697533D01*
X117370937Y-89575417D01*
X117337445Y-89399846D01*
X117243794Y-89111619D01*
X117114758Y-88837402D01*
X117114752Y-88837392D01*
X116952375Y-88581526D01*
X116759192Y-88348008D01*
X116759190Y-88348006D01*
X116538270Y-88140549D01*
X116293092Y-87962417D01*
X116252386Y-87940038D01*
X116027517Y-87816415D01*
X115946414Y-87784304D01*
X115745744Y-87704852D01*
X115745737Y-87704850D01*
X115452192Y-87629482D01*
X115151544Y-87591501D01*
X115151532Y-87591500D01*
X115151530Y-87591500D01*
X114848470Y-87591500D01*
X114848467Y-87591500D01*
X114848455Y-87591501D01*
X114547807Y-87629482D01*
X114254262Y-87704850D01*
X114254255Y-87704852D01*
X113972483Y-87816415D01*
X113706907Y-87962417D01*
X113461730Y-88140549D01*
X113461729Y-88140549D01*
X113240809Y-88348006D01*
X113240807Y-88348008D01*
X113047624Y-88581526D01*
X112885247Y-88837392D01*
X112885240Y-88837406D01*
X112756209Y-89111612D01*
X112756207Y-89111616D01*
X112662556Y-89399842D01*
X112662554Y-89399850D01*
X112605767Y-89697533D01*
X112605765Y-89697550D01*
X112586738Y-89999993D01*
X106816100Y-89999993D01*
X106816100Y-88720762D01*
X106816099Y-88720750D01*
X106809590Y-88660203D01*
X106809588Y-88660195D01*
X106758489Y-88523197D01*
X106758487Y-88523192D01*
X106670862Y-88406140D01*
X106670859Y-88406138D01*
X106627410Y-88373612D01*
X106573655Y-88333371D01*
X106531109Y-88276535D01*
X106526045Y-88205719D01*
X106541729Y-88166675D01*
X106650527Y-87989132D01*
X106744405Y-87762492D01*
X106801672Y-87523957D01*
X106820919Y-87279400D01*
X106801672Y-87034843D01*
X106744405Y-86796308D01*
X106650527Y-86569668D01*
X106522352Y-86360504D01*
X106363033Y-86173967D01*
X106282529Y-86105209D01*
X106243721Y-86045760D01*
X106243215Y-85974766D01*
X106281171Y-85914767D01*
X106282531Y-85913589D01*
X106363025Y-85844840D01*
X106363026Y-85844838D01*
X106363033Y-85844833D01*
X106363038Y-85844826D01*
X106365206Y-85842659D01*
X106369218Y-85838931D01*
X106370614Y-85837540D01*
X106370618Y-85837538D01*
X107618954Y-84594736D01*
X107629439Y-84583988D01*
X107629457Y-84583969D01*
X107656505Y-84553026D01*
X107656512Y-84553012D01*
X107658176Y-84550717D01*
X107671125Y-84535531D01*
X107925059Y-84281599D01*
X108021747Y-84136895D01*
X108021748Y-84136894D01*
X108088348Y-83976107D01*
X108088410Y-83975798D01*
X108095615Y-83939575D01*
X108122300Y-83805417D01*
X108122300Y-78751896D01*
X108124375Y-78729125D01*
X108192476Y-78358500D01*
X108285280Y-77853426D01*
X108317263Y-77790044D01*
X108378437Y-77754013D01*
X108449380Y-77756776D01*
X108507568Y-77797454D01*
X108514688Y-77807284D01*
X108534275Y-77837264D01*
X108534279Y-77837270D01*
X108686762Y-78002908D01*
X108741331Y-78045381D01*
X108864424Y-78141189D01*
X109062426Y-78248342D01*
X109062427Y-78248342D01*
X109062428Y-78248343D01*
X109174227Y-78286723D01*
X109275365Y-78321444D01*
X109497431Y-78358500D01*
X109497435Y-78358500D01*
X109722565Y-78358500D01*
X109722569Y-78358500D01*
X109944635Y-78321444D01*
X110157574Y-78248342D01*
X110355576Y-78141189D01*
X110533240Y-78002906D01*
X110685722Y-77837268D01*
X110774816Y-77700898D01*
X110828819Y-77654810D01*
X110899167Y-77645235D01*
X110963524Y-77675212D01*
X110985782Y-77700899D01*
X111026920Y-77763866D01*
X111026921Y-77763866D01*
X111750000Y-77040787D01*
X111750000Y-77052661D01*
X111777259Y-77154394D01*
X111829920Y-77245606D01*
X111904394Y-77320080D01*
X111995606Y-77372741D01*
X112097339Y-77400000D01*
X112109209Y-77400000D01*
X111384310Y-78124898D01*
X111404697Y-78140766D01*
X111404701Y-78140768D01*
X111602628Y-78247882D01*
X111602630Y-78247883D01*
X111815483Y-78320955D01*
X111815490Y-78320957D01*
X112037477Y-78358000D01*
X112262523Y-78358000D01*
X112484509Y-78320957D01*
X112484516Y-78320955D01*
X112697369Y-78247883D01*
X112697371Y-78247881D01*
X112895298Y-78140769D01*
X112915688Y-78124898D01*
X112190790Y-77400000D01*
X112202661Y-77400000D01*
X112304394Y-77372741D01*
X112395606Y-77320080D01*
X112470080Y-77245606D01*
X112522741Y-77154394D01*
X112550000Y-77052661D01*
X112550000Y-77040790D01*
X113273076Y-77763866D01*
X113273078Y-77763866D01*
X113314217Y-77700899D01*
X113368221Y-77654810D01*
X113438568Y-77645235D01*
X113502926Y-77675212D01*
X113525183Y-77700898D01*
X113614279Y-77837270D01*
X113766762Y-78002908D01*
X113821331Y-78045381D01*
X113944424Y-78141189D01*
X114142426Y-78248342D01*
X114142427Y-78248342D01*
X114142428Y-78248343D01*
X114254227Y-78286723D01*
X114355365Y-78321444D01*
X114577431Y-78358500D01*
X114577435Y-78358500D01*
X114802565Y-78358500D01*
X114802569Y-78358500D01*
X115024635Y-78321444D01*
X115237574Y-78248342D01*
X115435576Y-78141189D01*
X115613240Y-78002906D01*
X115765722Y-77837268D01*
X115888860Y-77648791D01*
X115979296Y-77442616D01*
X116034564Y-77224368D01*
X116053156Y-77000000D01*
X116034564Y-76775632D01*
X116029186Y-76754394D01*
X115979297Y-76557387D01*
X115979296Y-76557386D01*
X115979296Y-76557384D01*
X115888860Y-76351209D01*
X115871597Y-76324786D01*
X115765724Y-76162734D01*
X115765720Y-76162729D01*
X115613237Y-75997091D01*
X115531382Y-75933381D01*
X115435576Y-75858811D01*
X115435569Y-75858807D01*
X115259463Y-75763502D01*
X115251794Y-75758995D01*
X115250092Y-75757912D01*
X114063961Y-75117061D01*
X114034759Y-75095301D01*
X112253204Y-73313745D01*
X112253198Y-73313740D01*
X112205183Y-73281657D01*
X112108495Y-73217052D01*
X111947708Y-73150452D01*
X111777020Y-73116500D01*
X111777017Y-73116500D01*
X107868148Y-73116500D01*
X107800027Y-73096498D01*
X107779053Y-73079595D01*
X105995527Y-71296068D01*
X105995521Y-71296063D01*
X105947506Y-71263980D01*
X105850818Y-71199375D01*
X105690031Y-71132775D01*
X105519343Y-71098823D01*
X105519340Y-71098823D01*
X102134500Y-71098823D01*
X102066379Y-71078821D01*
X102019886Y-71025165D01*
X102008500Y-70972823D01*
X102008500Y-70951367D01*
X102008499Y-70951350D01*
X102001990Y-70890803D01*
X102001988Y-70890795D01*
X101950889Y-70753797D01*
X101950887Y-70753792D01*
X101863261Y-70636738D01*
X101746207Y-70549112D01*
X101746202Y-70549110D01*
X101609204Y-70498011D01*
X101609196Y-70498009D01*
X101545283Y-70491139D01*
X101545394Y-70490103D01*
X101482528Y-70467916D01*
X101438982Y-70411842D01*
X101436672Y-70395881D01*
X100740791Y-69700000D01*
X100752661Y-69700000D01*
X100854394Y-69672741D01*
X100945606Y-69620080D01*
X101020080Y-69545606D01*
X101072741Y-69454394D01*
X101100000Y-69352661D01*
X101100000Y-69340790D01*
X101787097Y-70027888D01*
X101787099Y-70027888D01*
X101806631Y-69999993D01*
X112586738Y-69999993D01*
X112586738Y-70000006D01*
X112605765Y-70302449D01*
X112605767Y-70302466D01*
X112643070Y-70498011D01*
X112662555Y-70600154D01*
X112756206Y-70888381D01*
X112885242Y-71162598D01*
X112885244Y-71162601D01*
X112885247Y-71162607D01*
X113047624Y-71418473D01*
X113047630Y-71418480D01*
X113240808Y-71651992D01*
X113461729Y-71859450D01*
X113706910Y-72037584D01*
X113972483Y-72183585D01*
X114177322Y-72264686D01*
X114254255Y-72295147D01*
X114254258Y-72295147D01*
X114254261Y-72295149D01*
X114547800Y-72370516D01*
X114547806Y-72370516D01*
X114547807Y-72370517D01*
X114705384Y-72390423D01*
X114848470Y-72408500D01*
X114848473Y-72408500D01*
X115151527Y-72408500D01*
X115151530Y-72408500D01*
X115452200Y-72370516D01*
X115745739Y-72295149D01*
X116027517Y-72183585D01*
X116293090Y-72037584D01*
X116538271Y-71859450D01*
X116759192Y-71651992D01*
X116952370Y-71418480D01*
X116952372Y-71418475D01*
X116952375Y-71418473D01*
X117059399Y-71249828D01*
X117114758Y-71162598D01*
X117243794Y-70888381D01*
X117337445Y-70600154D01*
X117394233Y-70302462D01*
X117394234Y-70302449D01*
X117413262Y-70000006D01*
X117413262Y-69999993D01*
X117394234Y-69697550D01*
X117394232Y-69697533D01*
X117389503Y-69672741D01*
X117337445Y-69399846D01*
X117243794Y-69111619D01*
X117114758Y-68837402D01*
X117114752Y-68837392D01*
X116952375Y-68581526D01*
X116759192Y-68348008D01*
X116759190Y-68348006D01*
X116538270Y-68140549D01*
X116293092Y-67962417D01*
X116181688Y-67901172D01*
X116027517Y-67816415D01*
X115946414Y-67784304D01*
X115745744Y-67704852D01*
X115745737Y-67704850D01*
X115452192Y-67629482D01*
X115151544Y-67591501D01*
X115151532Y-67591500D01*
X115151530Y-67591500D01*
X114848470Y-67591500D01*
X114848467Y-67591500D01*
X114848455Y-67591501D01*
X114547807Y-67629482D01*
X114254262Y-67704850D01*
X114254255Y-67704852D01*
X113972483Y-67816415D01*
X113706907Y-67962417D01*
X113461730Y-68140549D01*
X113461729Y-68140549D01*
X113240809Y-68348006D01*
X113240807Y-68348008D01*
X113047624Y-68581526D01*
X112885247Y-68837392D01*
X112885240Y-68837406D01*
X112756209Y-69111612D01*
X112756207Y-69111616D01*
X112662556Y-69399842D01*
X112662554Y-69399850D01*
X112605767Y-69697533D01*
X112605765Y-69697550D01*
X112586738Y-69999993D01*
X101806631Y-69999993D01*
X101837089Y-69956495D01*
X101837412Y-69955937D01*
X101837618Y-69955740D01*
X101840243Y-69951992D01*
X101840996Y-69952519D01*
X101888795Y-69906943D01*
X101958509Y-69893508D01*
X101979142Y-69897230D01*
X102072001Y-69922111D01*
X102300000Y-69942058D01*
X102528002Y-69922111D01*
X102749068Y-69862876D01*
X102749073Y-69862874D01*
X102956497Y-69766151D01*
X103027888Y-69716162D01*
X103027888Y-69716161D01*
X102340789Y-69029063D01*
X102352661Y-69029063D01*
X102454394Y-69001804D01*
X102545606Y-68949143D01*
X102620080Y-68874669D01*
X102672741Y-68783457D01*
X102700000Y-68681724D01*
X102700000Y-68669854D01*
X103387097Y-69356951D01*
X103387099Y-69356951D01*
X103437088Y-69285560D01*
X103533811Y-69078136D01*
X103533813Y-69078131D01*
X103593048Y-68857065D01*
X103612995Y-68629063D01*
X103593048Y-68401060D01*
X103533813Y-68179994D01*
X103533811Y-68179989D01*
X103437086Y-67972561D01*
X103387100Y-67901173D01*
X103387098Y-67901173D01*
X102700000Y-68588271D01*
X102700000Y-68576402D01*
X102672741Y-68474669D01*
X102620080Y-68383457D01*
X102545606Y-68308983D01*
X102454394Y-68256322D01*
X102352661Y-68229063D01*
X102340790Y-68229063D01*
X103027888Y-67541962D01*
X103027888Y-67541961D01*
X102956501Y-67491976D01*
X102749073Y-67395251D01*
X102749068Y-67395249D01*
X102528000Y-67336014D01*
X102528004Y-67336014D01*
X102300000Y-67316067D01*
X102071997Y-67336014D01*
X101850931Y-67395249D01*
X101850926Y-67395251D01*
X101643500Y-67491976D01*
X101572109Y-67541963D01*
X102259209Y-68229063D01*
X102247339Y-68229063D01*
X102145606Y-68256322D01*
X102054394Y-68308983D01*
X101979920Y-68383457D01*
X101927259Y-68474669D01*
X101900000Y-68576402D01*
X101900000Y-68588272D01*
X101212900Y-67901172D01*
X101162905Y-67972575D01*
X101162577Y-67973143D01*
X101162367Y-67973342D01*
X101159757Y-67977071D01*
X101159007Y-67976545D01*
X101111186Y-68022128D01*
X101041470Y-68035552D01*
X101020857Y-68031832D01*
X100928000Y-68006951D01*
X100928004Y-68006951D01*
X100700000Y-67987004D01*
X100471997Y-68006951D01*
X100250931Y-68066186D01*
X100250926Y-68066188D01*
X100043500Y-68162913D01*
X99972109Y-68212899D01*
X100659211Y-68900000D01*
X100647339Y-68900000D01*
X100545606Y-68927259D01*
X100454394Y-68979920D01*
X100379920Y-69054394D01*
X100327259Y-69145606D01*
X100300000Y-69247339D01*
X100300000Y-69259209D01*
X99612900Y-68572109D01*
X99562913Y-68643500D01*
X99466188Y-68850926D01*
X99466186Y-68850931D01*
X99406951Y-69071997D01*
X99387004Y-69300000D01*
X99406951Y-69528002D01*
X99466186Y-69749068D01*
X99466188Y-69749073D01*
X99562913Y-69956501D01*
X99612899Y-70027888D01*
X100300000Y-69340788D01*
X100300000Y-69352661D01*
X100327259Y-69454394D01*
X100379920Y-69545606D01*
X100454394Y-69620080D01*
X100545606Y-69672741D01*
X100647339Y-69700000D01*
X100659210Y-69700000D01*
X99960429Y-70398779D01*
X99955290Y-70424350D01*
X99905891Y-70475342D01*
X99854631Y-70490342D01*
X99854717Y-70491139D01*
X99790803Y-70498009D01*
X99790795Y-70498011D01*
X99653797Y-70549110D01*
X99653792Y-70549112D01*
X99536738Y-70636738D01*
X99449112Y-70753792D01*
X99449110Y-70753797D01*
X99398011Y-70890795D01*
X99398009Y-70890803D01*
X99391500Y-70951350D01*
X99391500Y-70972823D01*
X99371498Y-71040944D01*
X99317842Y-71087437D01*
X99265500Y-71098823D01*
X95630656Y-71098823D01*
X95459968Y-71132775D01*
X95459963Y-71132777D01*
X95299182Y-71199374D01*
X95154475Y-71296066D01*
X95154473Y-71296068D01*
X91625516Y-74825024D01*
X91563204Y-74859050D01*
X91492388Y-74853985D01*
X91435553Y-74811438D01*
X91410742Y-74744918D01*
X91411112Y-74722755D01*
X91413504Y-74700001D01*
X91393542Y-74510072D01*
X91387116Y-74490294D01*
X91334527Y-74328444D01*
X91239040Y-74163056D01*
X91239038Y-74163054D01*
X91239034Y-74163048D01*
X91111255Y-74021135D01*
X91051910Y-73978019D01*
X90956752Y-73908882D01*
X90956750Y-73908881D01*
X90956749Y-73908880D01*
X90890669Y-73879459D01*
X90874268Y-73870651D01*
X90854022Y-73857765D01*
X90854016Y-73857762D01*
X90854011Y-73857760D01*
X90854010Y-73857759D01*
X90327553Y-73620139D01*
X90290294Y-73594390D01*
X83105607Y-66409703D01*
X83079858Y-66372443D01*
X83002025Y-66200000D01*
X82842240Y-65845989D01*
X82841060Y-65843662D01*
X82837257Y-65834453D01*
X82837211Y-65834474D01*
X82834523Y-65828436D01*
X82826570Y-65814661D01*
X82823299Y-65808621D01*
X82821286Y-65804649D01*
X82818120Y-65799633D01*
X82818276Y-65799534D01*
X82815099Y-65794794D01*
X82739040Y-65663056D01*
X82739038Y-65663054D01*
X82739034Y-65663048D01*
X82611255Y-65521135D01*
X82456752Y-65408882D01*
X82282288Y-65331206D01*
X82095487Y-65291500D01*
X81904513Y-65291500D01*
X81717711Y-65331206D01*
X81543247Y-65408882D01*
X81388744Y-65521135D01*
X81260965Y-65663048D01*
X81260958Y-65663058D01*
X81165476Y-65828438D01*
X81165473Y-65828445D01*
X81106457Y-66010072D01*
X81086496Y-66200000D01*
X72300500Y-66200000D01*
X72300500Y-64300000D01*
X95546844Y-64300000D01*
X95565437Y-64524375D01*
X95620702Y-64742612D01*
X95620703Y-64742613D01*
X95711141Y-64948793D01*
X95834275Y-65137265D01*
X95834279Y-65137270D01*
X95986762Y-65302908D01*
X96023119Y-65331206D01*
X96164424Y-65441189D01*
X96362426Y-65548342D01*
X96362427Y-65548342D01*
X96362428Y-65548343D01*
X96474227Y-65586723D01*
X96575365Y-65621444D01*
X96797431Y-65658500D01*
X96797435Y-65658500D01*
X97022565Y-65658500D01*
X97022569Y-65658500D01*
X97244635Y-65621444D01*
X97457574Y-65548342D01*
X97655576Y-65441189D01*
X97833240Y-65302906D01*
X97985722Y-65137268D01*
X98074518Y-65001354D01*
X98128520Y-64955268D01*
X98198868Y-64945692D01*
X98263225Y-64975669D01*
X98285480Y-65001353D01*
X98318607Y-65052058D01*
X98374275Y-65137265D01*
X98374279Y-65137270D01*
X98526762Y-65302908D01*
X98563119Y-65331206D01*
X98704424Y-65441189D01*
X98902426Y-65548342D01*
X98902427Y-65548342D01*
X98902428Y-65548343D01*
X99014227Y-65586723D01*
X99115365Y-65621444D01*
X99337431Y-65658500D01*
X99337435Y-65658500D01*
X99562565Y-65658500D01*
X99562569Y-65658500D01*
X99784635Y-65621444D01*
X99997574Y-65548342D01*
X100195576Y-65441189D01*
X100373240Y-65302906D01*
X100525722Y-65137268D01*
X100614518Y-65001354D01*
X100668520Y-64955268D01*
X100738868Y-64945692D01*
X100803225Y-64975669D01*
X100825480Y-65001353D01*
X100858607Y-65052058D01*
X100914275Y-65137265D01*
X100914279Y-65137270D01*
X101066762Y-65302908D01*
X101103119Y-65331206D01*
X101244424Y-65441189D01*
X101442426Y-65548342D01*
X101442427Y-65548342D01*
X101442428Y-65548343D01*
X101554227Y-65586723D01*
X101655365Y-65621444D01*
X101877431Y-65658500D01*
X101877435Y-65658500D01*
X102102565Y-65658500D01*
X102102569Y-65658500D01*
X102324635Y-65621444D01*
X102537574Y-65548342D01*
X102735576Y-65441189D01*
X102913240Y-65302906D01*
X103065722Y-65137268D01*
X103154518Y-65001354D01*
X103208520Y-64955268D01*
X103278868Y-64945692D01*
X103343225Y-64975669D01*
X103365480Y-65001353D01*
X103398607Y-65052058D01*
X103454275Y-65137265D01*
X103454279Y-65137270D01*
X103606762Y-65302908D01*
X103643119Y-65331206D01*
X103784424Y-65441189D01*
X103982426Y-65548342D01*
X103982427Y-65548342D01*
X103982428Y-65548343D01*
X104094227Y-65586723D01*
X104195365Y-65621444D01*
X104417431Y-65658500D01*
X104417435Y-65658500D01*
X104642565Y-65658500D01*
X104642569Y-65658500D01*
X104864635Y-65621444D01*
X105077574Y-65548342D01*
X105275576Y-65441189D01*
X105453240Y-65302906D01*
X105605722Y-65137268D01*
X105694518Y-65001354D01*
X105748520Y-64955268D01*
X105818868Y-64945692D01*
X105883225Y-64975669D01*
X105905480Y-65001353D01*
X105938607Y-65052058D01*
X105994275Y-65137265D01*
X105994279Y-65137270D01*
X106146762Y-65302908D01*
X106183119Y-65331206D01*
X106324424Y-65441189D01*
X106522426Y-65548342D01*
X106522427Y-65548342D01*
X106522428Y-65548343D01*
X106634227Y-65586723D01*
X106735365Y-65621444D01*
X106957431Y-65658500D01*
X106957435Y-65658500D01*
X107182565Y-65658500D01*
X107182569Y-65658500D01*
X107404635Y-65621444D01*
X107617574Y-65548342D01*
X107815576Y-65441189D01*
X107993240Y-65302906D01*
X108145722Y-65137268D01*
X108234518Y-65001354D01*
X108288520Y-64955268D01*
X108358868Y-64945692D01*
X108423225Y-64975669D01*
X108445480Y-65001353D01*
X108478607Y-65052058D01*
X108534275Y-65137265D01*
X108534279Y-65137270D01*
X108686762Y-65302908D01*
X108723119Y-65331206D01*
X108864424Y-65441189D01*
X109062426Y-65548342D01*
X109062427Y-65548342D01*
X109062428Y-65548343D01*
X109174227Y-65586723D01*
X109275365Y-65621444D01*
X109497431Y-65658500D01*
X109497435Y-65658500D01*
X109722565Y-65658500D01*
X109722569Y-65658500D01*
X109944635Y-65621444D01*
X110157574Y-65548342D01*
X110355576Y-65441189D01*
X110533240Y-65302906D01*
X110685722Y-65137268D01*
X110774518Y-65001354D01*
X110828520Y-64955268D01*
X110898868Y-64945692D01*
X110963225Y-64975669D01*
X110985480Y-65001353D01*
X111018607Y-65052058D01*
X111074275Y-65137265D01*
X111074279Y-65137270D01*
X111226762Y-65302908D01*
X111263119Y-65331206D01*
X111404424Y-65441189D01*
X111602426Y-65548342D01*
X111602427Y-65548342D01*
X111602428Y-65548343D01*
X111714227Y-65586723D01*
X111815365Y-65621444D01*
X112037431Y-65658500D01*
X112037435Y-65658500D01*
X112262565Y-65658500D01*
X112262569Y-65658500D01*
X112484635Y-65621444D01*
X112697574Y-65548342D01*
X112895576Y-65441189D01*
X113073240Y-65302906D01*
X113225722Y-65137268D01*
X113314518Y-65001354D01*
X113368520Y-64955268D01*
X113438868Y-64945692D01*
X113503225Y-64975669D01*
X113525480Y-65001353D01*
X113558607Y-65052058D01*
X113614275Y-65137265D01*
X113614279Y-65137270D01*
X113766762Y-65302908D01*
X113803119Y-65331206D01*
X113944424Y-65441189D01*
X114142426Y-65548342D01*
X114142427Y-65548342D01*
X114142428Y-65548343D01*
X114254227Y-65586723D01*
X114355365Y-65621444D01*
X114577431Y-65658500D01*
X114577435Y-65658500D01*
X114802565Y-65658500D01*
X114802569Y-65658500D01*
X115024635Y-65621444D01*
X115237574Y-65548342D01*
X115435576Y-65441189D01*
X115613240Y-65302906D01*
X115765722Y-65137268D01*
X115888860Y-64948791D01*
X115979296Y-64742616D01*
X116034564Y-64524368D01*
X116053156Y-64300000D01*
X116034564Y-64075632D01*
X115979296Y-63857384D01*
X115888860Y-63651209D01*
X115882140Y-63640924D01*
X115765724Y-63462734D01*
X115765720Y-63462729D01*
X115613237Y-63297091D01*
X115531382Y-63233381D01*
X115435576Y-63158811D01*
X115237574Y-63051658D01*
X115237572Y-63051657D01*
X115237571Y-63051656D01*
X115024639Y-62978557D01*
X115024630Y-62978555D01*
X114980476Y-62971187D01*
X114802569Y-62941500D01*
X114577431Y-62941500D01*
X114429211Y-62966233D01*
X114355369Y-62978555D01*
X114355360Y-62978557D01*
X114142428Y-63051656D01*
X114142426Y-63051658D01*
X113944426Y-63158810D01*
X113944424Y-63158811D01*
X113766762Y-63297091D01*
X113614279Y-63462729D01*
X113525483Y-63598643D01*
X113471479Y-63644731D01*
X113401131Y-63654306D01*
X113336774Y-63624329D01*
X113314517Y-63598643D01*
X113225720Y-63462729D01*
X113073237Y-63297091D01*
X112991382Y-63233381D01*
X112895576Y-63158811D01*
X112697574Y-63051658D01*
X112697572Y-63051657D01*
X112697571Y-63051656D01*
X112484639Y-62978557D01*
X112484630Y-62978555D01*
X112440476Y-62971187D01*
X112262569Y-62941500D01*
X112037431Y-62941500D01*
X111889211Y-62966233D01*
X111815369Y-62978555D01*
X111815360Y-62978557D01*
X111602428Y-63051656D01*
X111602426Y-63051658D01*
X111404426Y-63158810D01*
X111404424Y-63158811D01*
X111226762Y-63297091D01*
X111074279Y-63462729D01*
X110985483Y-63598643D01*
X110931479Y-63644731D01*
X110861131Y-63654306D01*
X110796774Y-63624329D01*
X110774517Y-63598643D01*
X110685720Y-63462729D01*
X110533237Y-63297091D01*
X110451382Y-63233381D01*
X110355576Y-63158811D01*
X110157574Y-63051658D01*
X110157572Y-63051657D01*
X110157571Y-63051656D01*
X109944639Y-62978557D01*
X109944630Y-62978555D01*
X109900476Y-62971187D01*
X109722569Y-62941500D01*
X109497431Y-62941500D01*
X109349211Y-62966233D01*
X109275369Y-62978555D01*
X109275360Y-62978557D01*
X109062428Y-63051656D01*
X109062426Y-63051658D01*
X108864426Y-63158810D01*
X108864424Y-63158811D01*
X108686762Y-63297091D01*
X108534279Y-63462729D01*
X108445483Y-63598643D01*
X108391479Y-63644731D01*
X108321131Y-63654306D01*
X108256774Y-63624329D01*
X108234517Y-63598643D01*
X108145720Y-63462729D01*
X107993237Y-63297091D01*
X107911382Y-63233381D01*
X107815576Y-63158811D01*
X107617574Y-63051658D01*
X107617572Y-63051657D01*
X107617571Y-63051656D01*
X107404639Y-62978557D01*
X107404630Y-62978555D01*
X107360476Y-62971187D01*
X107182569Y-62941500D01*
X106957431Y-62941500D01*
X106809211Y-62966233D01*
X106735369Y-62978555D01*
X106735360Y-62978557D01*
X106522428Y-63051656D01*
X106522426Y-63051658D01*
X106324426Y-63158810D01*
X106324424Y-63158811D01*
X106146762Y-63297091D01*
X105994279Y-63462729D01*
X105905483Y-63598643D01*
X105851479Y-63644731D01*
X105781131Y-63654306D01*
X105716774Y-63624329D01*
X105694517Y-63598643D01*
X105605720Y-63462729D01*
X105453237Y-63297091D01*
X105371382Y-63233381D01*
X105275576Y-63158811D01*
X105077574Y-63051658D01*
X105077572Y-63051657D01*
X105077571Y-63051656D01*
X104864639Y-62978557D01*
X104864630Y-62978555D01*
X104820476Y-62971187D01*
X104642569Y-62941500D01*
X104417431Y-62941500D01*
X104269211Y-62966233D01*
X104195369Y-62978555D01*
X104195360Y-62978557D01*
X103982428Y-63051656D01*
X103982426Y-63051658D01*
X103784426Y-63158810D01*
X103784424Y-63158811D01*
X103606762Y-63297091D01*
X103454279Y-63462729D01*
X103365483Y-63598643D01*
X103311479Y-63644731D01*
X103241131Y-63654306D01*
X103176774Y-63624329D01*
X103154517Y-63598643D01*
X103065720Y-63462729D01*
X102913237Y-63297091D01*
X102831382Y-63233381D01*
X102735576Y-63158811D01*
X102537574Y-63051658D01*
X102537572Y-63051657D01*
X102537571Y-63051656D01*
X102324639Y-62978557D01*
X102324630Y-62978555D01*
X102280476Y-62971187D01*
X102102569Y-62941500D01*
X101877431Y-62941500D01*
X101729211Y-62966233D01*
X101655369Y-62978555D01*
X101655360Y-62978557D01*
X101442428Y-63051656D01*
X101442426Y-63051658D01*
X101244426Y-63158810D01*
X101244424Y-63158811D01*
X101066762Y-63297091D01*
X100914279Y-63462729D01*
X100825483Y-63598643D01*
X100771479Y-63644731D01*
X100701131Y-63654306D01*
X100636774Y-63624329D01*
X100614517Y-63598643D01*
X100525720Y-63462729D01*
X100373237Y-63297091D01*
X100291382Y-63233381D01*
X100195576Y-63158811D01*
X99997574Y-63051658D01*
X99997572Y-63051657D01*
X99997571Y-63051656D01*
X99784639Y-62978557D01*
X99784630Y-62978555D01*
X99740476Y-62971187D01*
X99562569Y-62941500D01*
X99337431Y-62941500D01*
X99189211Y-62966233D01*
X99115369Y-62978555D01*
X99115360Y-62978557D01*
X98902428Y-63051656D01*
X98902426Y-63051658D01*
X98704426Y-63158810D01*
X98704424Y-63158811D01*
X98526762Y-63297091D01*
X98374279Y-63462729D01*
X98285483Y-63598643D01*
X98231479Y-63644731D01*
X98161131Y-63654306D01*
X98096774Y-63624329D01*
X98074517Y-63598643D01*
X97985720Y-63462729D01*
X97833237Y-63297091D01*
X97751382Y-63233381D01*
X97655576Y-63158811D01*
X97457574Y-63051658D01*
X97457572Y-63051657D01*
X97457571Y-63051656D01*
X97244639Y-62978557D01*
X97244630Y-62978555D01*
X97200476Y-62971187D01*
X97022569Y-62941500D01*
X96797431Y-62941500D01*
X96649211Y-62966233D01*
X96575369Y-62978555D01*
X96575360Y-62978557D01*
X96362428Y-63051656D01*
X96362426Y-63051658D01*
X96164426Y-63158810D01*
X96164424Y-63158811D01*
X95986762Y-63297091D01*
X95834279Y-63462729D01*
X95834275Y-63462734D01*
X95711141Y-63651206D01*
X95620703Y-63857386D01*
X95620702Y-63857387D01*
X95565437Y-64075624D01*
X95546844Y-64300000D01*
X72300500Y-64300000D01*
X72300500Y-63003539D01*
X72300698Y-62996474D01*
X72317077Y-62704817D01*
X72318659Y-62690776D01*
X72366998Y-62406268D01*
X72370137Y-62392518D01*
X72450030Y-62115201D01*
X72454692Y-62101881D01*
X72565134Y-61835250D01*
X72571248Y-61822554D01*
X72710848Y-61569965D01*
X72718358Y-61558014D01*
X72759842Y-61499548D01*
X72885358Y-61322650D01*
X72894156Y-61311618D01*
X73086450Y-61096440D01*
X73096441Y-61086450D01*
X73311618Y-60894156D01*
X73322650Y-60885358D01*
X73558020Y-60718354D01*
X73569965Y-60710848D01*
X73822554Y-60571248D01*
X73835250Y-60565134D01*
X74101881Y-60454692D01*
X74115201Y-60450030D01*
X74392518Y-60370137D01*
X74406268Y-60366998D01*
X74690780Y-60318658D01*
X74704812Y-60317077D01*
X74996474Y-60300697D01*
X75003539Y-60300500D01*
X75047595Y-60300500D01*
X114952405Y-60300500D01*
X114996461Y-60300500D01*
X115003525Y-60300697D01*
G37*
%TD.AperFunction*%
%TD*%
%TA.AperFunction,Conductor*%
%TO.N,Net-(J2-Pin_3)*%
G36*
X107905972Y-76999983D02*
G01*
X107914240Y-77003420D01*
X107917657Y-77011697D01*
X107917464Y-77013797D01*
X107615561Y-78656838D01*
X107610696Y-78664356D01*
X107604054Y-78666424D01*
X106871492Y-78666424D01*
X106863219Y-78662997D01*
X106860751Y-78659362D01*
X106671969Y-78222160D01*
X106289403Y-77336170D01*
X106289270Y-77327218D01*
X106295507Y-77320793D01*
X106295602Y-77320752D01*
X107067843Y-76999896D01*
X107072338Y-76999002D01*
X107905972Y-76999983D01*
G37*
%TD.AperFunction*%
%TD*%
%TA.AperFunction,Conductor*%
%TO.N,Net-(J2-Pin_3)*%
G36*
X106729809Y-83692218D02*
G01*
X106738059Y-83695645D01*
X107256680Y-84214266D01*
X107260107Y-84222539D01*
X107256680Y-84230812D01*
X107256662Y-84230831D01*
X106008326Y-85473633D01*
X106000045Y-85477041D01*
X105991806Y-85473622D01*
X105260331Y-84743538D01*
X105256896Y-84735268D01*
X105256896Y-84735249D01*
X105257236Y-84230831D01*
X105257592Y-83701113D01*
X105261024Y-83692843D01*
X105269299Y-83689422D01*
X106729809Y-83692218D01*
G37*
%TD.AperFunction*%
%TD*%
%TA.AperFunction,Conductor*%
%TO.N,VCC*%
G36*
X84491703Y-82694638D02*
G01*
X84492716Y-82695540D01*
X85012648Y-83215472D01*
X85014529Y-83217933D01*
X85325083Y-83760504D01*
X85326219Y-83769386D01*
X85325658Y-83770983D01*
X84339982Y-86037133D01*
X84333540Y-86043352D01*
X84324586Y-86043195D01*
X84318367Y-86036753D01*
X84318057Y-86035862D01*
X83631139Y-83771456D01*
X83632016Y-83762545D01*
X83633154Y-83760808D01*
X84475268Y-82696552D01*
X84483089Y-82692192D01*
X84491703Y-82694638D01*
G37*
%TD.AperFunction*%
%TD*%
%TA.AperFunction,Conductor*%
%TO.N,VCC*%
G36*
X113760750Y-75536896D02*
G01*
X115006003Y-76209689D01*
X115011652Y-76216637D01*
X115011255Y-76224449D01*
X114692562Y-76996214D01*
X114686237Y-77002553D01*
X114686214Y-77002562D01*
X113914449Y-77321255D01*
X113905494Y-77321246D01*
X113899689Y-77316003D01*
X113729339Y-77000707D01*
X113226896Y-76070751D01*
X113225980Y-76061846D01*
X113228916Y-76056921D01*
X113746920Y-75538917D01*
X113755192Y-75535491D01*
X113760750Y-75536896D01*
G37*
%TD.AperFunction*%
%TD*%
%TA.AperFunction,Conductor*%
%TO.N,+3.3V*%
G36*
X82368044Y-66051253D02*
G01*
X82374206Y-66057239D01*
X82650747Y-66669928D01*
X82651027Y-66678878D01*
X82648356Y-66683014D01*
X82483014Y-66848356D01*
X82474741Y-66851783D01*
X82469928Y-66850747D01*
X81857239Y-66574206D01*
X81851108Y-66567679D01*
X81851232Y-66559090D01*
X81997437Y-66203802D01*
X82003753Y-66197457D01*
X82359090Y-66051232D01*
X82368044Y-66051253D01*
G37*
%TD.AperFunction*%
%TD*%
%TA.AperFunction,Conductor*%
%TO.N,+3.3V*%
G36*
X90030071Y-74049252D02*
G01*
X90642760Y-74325793D01*
X90648891Y-74332320D01*
X90648767Y-74340909D01*
X90502563Y-74696195D01*
X90496245Y-74702542D01*
X90496195Y-74702563D01*
X90140909Y-74848767D01*
X90131955Y-74848746D01*
X90125793Y-74842760D01*
X90061676Y-74700707D01*
X89899279Y-74340909D01*
X89849252Y-74230071D01*
X89848972Y-74221121D01*
X89851641Y-74216987D01*
X90016986Y-74051642D01*
X90025258Y-74048216D01*
X90030071Y-74049252D01*
G37*
%TD.AperFunction*%
%TD*%
M02*
