%TF.GenerationSoftware,KiCad,Pcbnew,8.0.6*%
%TF.CreationDate,2024-11-06T21:14:03+01:00*%
%TF.ProjectId,ChocoEF,43686f63-6f45-4462-9e6b-696361645f70,rev?*%
%TF.SameCoordinates,Original*%
%TF.FileFunction,Soldermask,Top*%
%TF.FilePolarity,Negative*%
%FSLAX46Y46*%
G04 Gerber Fmt 4.6, Leading zero omitted, Abs format (unit mm)*
G04 Created by KiCad (PCBNEW 8.0.6) date 2024-11-06 21:14:03*
%MOMM*%
%LPD*%
G01*
G04 APERTURE LIST*
%ADD10C,3.800000*%
%ADD11O,4.200000X2.000000*%
%ADD12O,2.000000X4.200000*%
%ADD13R,2.000000X4.600000*%
%ADD14O,1.998980X2.748280*%
%ADD15O,2.032000X1.016000*%
%ADD16C,1.143000*%
%ADD17R,2.100000X2.100000*%
%ADD18C,2.100000*%
%ADD19R,1.600000X1.600000*%
%ADD20C,1.600000*%
%ADD21C,1.700000*%
G04 APERTURE END LIST*
D10*
%TO.C,REF\u002A\u002A*%
X89000000Y-90000000D03*
%TD*%
%TO.C,REF\u002A\u002A*%
X115000000Y-90000000D03*
%TD*%
%TO.C,REF\u002A\u002A*%
X115000000Y-70000000D03*
%TD*%
D11*
%TO.C,J1*%
X81428000Y-90865600D03*
D12*
X78028000Y-86065600D03*
D13*
X84328000Y-86065600D03*
%TD*%
D14*
%TO.C,U1*%
X75060490Y-78681290D03*
X77600490Y-78681290D03*
X80140490Y-78681290D03*
X82680490Y-78681290D03*
X85220490Y-78681290D03*
X87760490Y-78681290D03*
X90300490Y-78681290D03*
X90300490Y-62516730D03*
X87760490Y-62516730D03*
X85220490Y-62516730D03*
X82680490Y-62516730D03*
X80140490Y-62516730D03*
X77600490Y-62516730D03*
X75060490Y-62516730D03*
D15*
X91378310Y-71814410D03*
X91378310Y-69264410D03*
D16*
X74374123Y-71815607D03*
X74374123Y-69275607D03*
X76914123Y-71815607D03*
X76914123Y-69275607D03*
%TD*%
D17*
%TO.C,J2*%
X105257600Y-89819400D03*
D18*
X105257600Y-87279400D03*
X105257600Y-84739400D03*
X105257600Y-82199400D03*
%TD*%
D17*
%TO.C,J3*%
X92684600Y-83845400D03*
D18*
X95224600Y-83845400D03*
X97764600Y-83845400D03*
%TD*%
D19*
%TO.C,C1*%
X99100000Y-72470937D03*
X100700000Y-71800000D03*
D20*
X100700000Y-69300000D03*
X102300000Y-68629063D03*
%TD*%
D21*
%TO.C,U2*%
X96910000Y-64300000D03*
X99450000Y-64300000D03*
X101990000Y-64300000D03*
X104530000Y-64300000D03*
X107070000Y-64300000D03*
X109610000Y-64300000D03*
X112150000Y-64300000D03*
X114690000Y-64300000D03*
X96910000Y-77000000D03*
X99450000Y-77000000D03*
X101990000Y-77000000D03*
X104530000Y-77000000D03*
X107070000Y-77000000D03*
X109610000Y-77000000D03*
X112150000Y-77000000D03*
X114690000Y-77000000D03*
%TD*%
M02*
