%TF.GenerationSoftware,KiCad,Pcbnew,8.0.6*%
%TF.CreationDate,2024-11-06T21:14:03+01:00*%
%TF.ProjectId,ChocoEF,43686f63-6f45-4462-9e6b-696361645f70,rev?*%
%TF.SameCoordinates,Original*%
%TF.FileFunction,Copper,L1,Top*%
%TF.FilePolarity,Positive*%
%FSLAX46Y46*%
G04 Gerber Fmt 4.6, Leading zero omitted, Abs format (unit mm)*
G04 Created by KiCad (PCBNEW 8.0.6) date 2024-11-06 21:14:03*
%MOMM*%
%LPD*%
G01*
G04 APERTURE LIST*
%TA.AperFunction,ComponentPad*%
%ADD10C,3.800000*%
%TD*%
%TA.AperFunction,ComponentPad*%
%ADD11O,4.200000X2.000000*%
%TD*%
%TA.AperFunction,ComponentPad*%
%ADD12O,2.000000X4.200000*%
%TD*%
%TA.AperFunction,ComponentPad*%
%ADD13R,2.000000X4.600000*%
%TD*%
%TA.AperFunction,SMDPad,CuDef*%
%ADD14O,1.998980X2.748280*%
%TD*%
%TA.AperFunction,SMDPad,CuDef*%
%ADD15O,2.032000X1.016000*%
%TD*%
%TA.AperFunction,SMDPad,CuDef*%
%ADD16C,1.143000*%
%TD*%
%TA.AperFunction,ComponentPad*%
%ADD17R,2.100000X2.100000*%
%TD*%
%TA.AperFunction,ComponentPad*%
%ADD18C,2.100000*%
%TD*%
%TA.AperFunction,ComponentPad*%
%ADD19R,1.600000X1.600000*%
%TD*%
%TA.AperFunction,ComponentPad*%
%ADD20C,1.600000*%
%TD*%
%TA.AperFunction,ComponentPad*%
%ADD21C,1.700000*%
%TD*%
%TA.AperFunction,ViaPad*%
%ADD22C,0.800000*%
%TD*%
%TA.AperFunction,Conductor*%
%ADD23C,0.250000*%
%TD*%
%TA.AperFunction,Conductor*%
%ADD24C,0.750000*%
%TD*%
G04 APERTURE END LIST*
D10*
%TO.P,REF\u002A\u002A,1*%
%TO.N,N/C*%
X89000000Y-90000000D03*
%TD*%
%TO.P,REF\u002A\u002A,1*%
%TO.N,N/C*%
X115000000Y-90000000D03*
%TD*%
%TO.P,REF\u002A\u002A,1*%
%TO.N,N/C*%
X115000000Y-70000000D03*
%TD*%
D11*
%TO.P,J1,3*%
%TO.N,N/C*%
X81428000Y-90865600D03*
D12*
%TO.P,J1,2*%
%TO.N,GND*%
X78028000Y-86065600D03*
D13*
%TO.P,J1,1*%
%TO.N,VCC*%
X84328000Y-86065600D03*
%TD*%
D14*
%TO.P,U1,1,D0*%
%TO.N,DIR*%
X75060490Y-78681290D03*
%TO.P,U1,2,D1*%
%TO.N,STP*%
X77600490Y-78681290D03*
%TO.P,U1,3,D2*%
%TO.N,SLP*%
X80140490Y-78681290D03*
%TO.P,U1,4,D3*%
%TO.N,MS3*%
X82680490Y-78681290D03*
%TO.P,U1,5,D4*%
%TO.N,MS2*%
X85220490Y-78681290D03*
%TO.P,U1,6,D5*%
%TO.N,MS1*%
X87760490Y-78681290D03*
%TO.P,U1,7,D6*%
%TO.N,TS_Data*%
X90300490Y-78681290D03*
%TO.P,U1,8,D7*%
%TO.N,unconnected-(U1-D7-Pad8)*%
X90300490Y-62516730D03*
%TO.P,U1,9,D8*%
%TO.N,EN*%
X87760490Y-62516730D03*
%TO.P,U1,10,D9*%
%TO.N,RST*%
X85220490Y-62516730D03*
%TO.P,U1,11,D10*%
%TO.N,unconnected-(U1-D10-Pad11)*%
X82680490Y-62516730D03*
%TO.P,U1,12,3V3*%
%TO.N,+3.3V*%
X80140490Y-62516730D03*
%TO.P,U1,13,GND*%
%TO.N,GND*%
X77600490Y-62516730D03*
%TO.P,U1,14,5V*%
%TO.N,unconnected-(U1-5V-Pad14)*%
X75060490Y-62516730D03*
D15*
%TO.P,U1,15,5V*%
%TO.N,unconnected-(U1-5V-Pad15)*%
X91378310Y-71814410D03*
%TO.P,U1,16,GND*%
%TO.N,GND*%
X91378310Y-69264410D03*
D16*
%TO.P,U1,17,PA31_SWDIO*%
%TO.N,unconnected-(U1-PA31_SWDIO-Pad17)*%
X74374123Y-71815607D03*
%TO.P,U1,18,PA30_SWCLK*%
%TO.N,unconnected-(U1-PA30_SWCLK-Pad18)*%
X74374123Y-69275607D03*
%TO.P,U1,19,RESET*%
%TO.N,unconnected-(U1-RESET-Pad19)*%
X76914123Y-71815607D03*
%TO.P,U1,20,GND*%
%TO.N,GND*%
X76914123Y-69275607D03*
%TD*%
D17*
%TO.P,J2,1,Pin_1*%
%TO.N,Net-(J2-Pin_1)*%
X105257600Y-89819400D03*
D18*
%TO.P,J2,2,Pin_2*%
%TO.N,Net-(J2-Pin_2)*%
X105257600Y-87279400D03*
%TO.P,J2,3,Pin_3*%
%TO.N,Net-(J2-Pin_3)*%
X105257600Y-84739400D03*
%TO.P,J2,4,Pin_4*%
%TO.N,Net-(J2-Pin_4)*%
X105257600Y-82199400D03*
%TD*%
D17*
%TO.P,J3,1,Pin_1*%
%TO.N,+3.3V*%
X92684600Y-83845400D03*
D18*
%TO.P,J3,2,Pin_2*%
%TO.N,TS_Data*%
X95224600Y-83845400D03*
%TO.P,J3,3,Pin_3*%
%TO.N,GND*%
X97764600Y-83845400D03*
%TD*%
D19*
%TO.P,C1,1*%
%TO.N,VCC*%
X99100000Y-72470937D03*
X100700000Y-71800000D03*
D20*
%TO.P,C1,2*%
%TO.N,GND*%
X100700000Y-69300000D03*
X102300000Y-68629063D03*
%TD*%
D21*
%TO.P,U2,16,DIR*%
%TO.N,DIR*%
X96910000Y-64300000D03*
%TO.P,U2,15,STP*%
%TO.N,STP*%
X99450000Y-64300000D03*
%TO.P,U2,14,SLP*%
%TO.N,SLP*%
X101990000Y-64300000D03*
%TO.P,U2,13,RST*%
%TO.N,RST*%
X104530000Y-64300000D03*
%TO.P,U2,12,MS3*%
%TO.N,MS3*%
X107070000Y-64300000D03*
%TO.P,U2,11,MS2*%
%TO.N,MS2*%
X109610000Y-64300000D03*
%TO.P,U2,10,MS1*%
%TO.N,MS1*%
X112150000Y-64300000D03*
%TO.P,U2,9,EN*%
%TO.N,EN*%
X114690000Y-64300000D03*
%TO.P,U2,8,GND*%
%TO.N,GND*%
X96910000Y-77000000D03*
%TO.P,U2,7,VIO*%
%TO.N,+3.3V*%
X99450000Y-77000000D03*
%TO.P,U2,6,A2*%
%TO.N,Net-(J2-Pin_1)*%
X101990000Y-77000000D03*
%TO.P,U2,5,A1*%
%TO.N,Net-(J2-Pin_2)*%
X104530000Y-77000000D03*
%TO.P,U2,4,B1*%
%TO.N,Net-(J2-Pin_3)*%
X107070000Y-77000000D03*
%TO.P,U2,3,B2*%
%TO.N,Net-(J2-Pin_4)*%
X109610000Y-77000000D03*
%TO.P,U2,2,GND*%
%TO.N,GND*%
X112150000Y-77000000D03*
%TO.P,U2,1,VMOT*%
%TO.N,VCC*%
X114690000Y-77000000D03*
%TD*%
D22*
%TO.N,GND*%
X77600490Y-65600490D03*
%TO.N,+3.3V*%
X82000000Y-66200000D03*
X90500000Y-74700000D03*
%TD*%
D23*
%TO.N,+3.3V*%
X93550000Y-87200000D02*
X92684600Y-86334600D01*
X92684600Y-86334600D02*
X92684600Y-83845400D01*
X99872800Y-85674200D02*
X98347000Y-87200000D01*
X98347000Y-87200000D02*
X93550000Y-87200000D01*
X99872800Y-81372800D02*
X99872800Y-85674200D01*
X98200000Y-79700000D02*
X99872800Y-81372800D01*
%TO.N,TS_Data*%
X95199200Y-81699200D02*
X95199200Y-83870800D01*
X92181290Y-78681290D02*
X95199200Y-81699200D01*
X90740490Y-78681290D02*
X92181290Y-78681290D01*
%TO.N,RST*%
X85220490Y-63720490D02*
X85220490Y-62516730D01*
X86900000Y-65400000D02*
X85220490Y-63720490D01*
X92500000Y-65400000D02*
X86900000Y-65400000D01*
X104530000Y-63130000D02*
X103706200Y-62306200D01*
X95593800Y-62306200D02*
X92500000Y-65400000D01*
X104530000Y-64300000D02*
X104530000Y-63130000D01*
X103706200Y-62306200D02*
X95593800Y-62306200D01*
%TO.N,EN*%
X95108200Y-61391800D02*
X112991800Y-61391800D01*
X114690000Y-63090000D02*
X114690000Y-64300000D01*
X92000000Y-64500000D02*
X95108200Y-61391800D01*
X112991800Y-61391800D02*
X114690000Y-63090000D01*
X89100000Y-64500000D02*
X92000000Y-64500000D01*
X88200490Y-63600490D02*
X89100000Y-64500000D01*
X88200490Y-62516730D02*
X88200490Y-63600490D01*
D24*
%TO.N,Net-(J2-Pin_4)*%
X105257600Y-81711800D02*
X105257600Y-82199400D01*
X109610000Y-77359400D02*
X105257600Y-81711800D01*
X109610000Y-77000000D02*
X109610000Y-77359400D01*
%TO.N,Net-(J2-Pin_2)*%
X103789400Y-87279400D02*
X105257600Y-87279400D01*
X103098600Y-86588600D02*
X103789400Y-87279400D01*
X104530000Y-78985000D02*
X103098600Y-80416400D01*
X104530000Y-77000000D02*
X104530000Y-78985000D01*
X103098600Y-80416400D02*
X103098600Y-86588600D01*
%TO.N,Net-(J2-Pin_1)*%
X102870000Y-89839800D02*
X104902000Y-89839800D01*
X101396800Y-77593200D02*
X101396800Y-88366600D01*
X101990000Y-77000000D02*
X101396800Y-77593200D01*
X101396800Y-88366600D02*
X102870000Y-89839800D01*
D23*
%TO.N,GND*%
X100446733Y-69264410D02*
X100600000Y-69417677D01*
X77600490Y-68589240D02*
X76914123Y-69275607D01*
X91378310Y-69264410D02*
X100446733Y-69264410D01*
X77600490Y-62516730D02*
X77600490Y-68589240D01*
%TO.N,+3.3V*%
X82000000Y-66200000D02*
X80140490Y-64340490D01*
X95600000Y-79700000D02*
X98200000Y-79700000D01*
X90600000Y-74700000D02*
X95600000Y-79700000D01*
X90500000Y-74700000D02*
X90600000Y-74700000D01*
X99450000Y-78450000D02*
X99450000Y-77000000D01*
X98200000Y-79700000D02*
X99450000Y-78450000D01*
X80140490Y-64340490D02*
X80140490Y-62516730D01*
%TO.N,MS1*%
X94100000Y-74900000D02*
X103400000Y-74900000D01*
X90100000Y-73400000D02*
X92600000Y-73400000D01*
X112150000Y-66150000D02*
X112150000Y-64300000D01*
X87760490Y-75739510D02*
X90100000Y-73400000D01*
X92600000Y-73400000D02*
X94100000Y-74900000D01*
X87760490Y-78681290D02*
X87760490Y-75739510D01*
X103400000Y-74900000D02*
X112150000Y-66150000D01*
%TO.N,MS2*%
X109600000Y-67600000D02*
X109600000Y-64310000D01*
X96200000Y-74300000D02*
X102900000Y-74300000D01*
X109600000Y-64310000D02*
X109610000Y-64300000D01*
X85220490Y-78681290D02*
X85220490Y-74879510D01*
X85220490Y-74879510D02*
X89400000Y-70700000D01*
X89400000Y-70700000D02*
X92600000Y-70700000D01*
X102900000Y-74300000D02*
X109600000Y-67600000D01*
X92600000Y-70700000D02*
X96200000Y-74300000D01*
%TO.N,MS3*%
X105570000Y-65800000D02*
X101400000Y-65800000D01*
X82680490Y-73419510D02*
X82680490Y-78681290D01*
X88000000Y-68100000D02*
X82680490Y-73419510D01*
X101400000Y-65800000D02*
X100100000Y-67100000D01*
X107070000Y-64300000D02*
X105570000Y-65800000D01*
X94400000Y-67100000D02*
X93400000Y-68100000D01*
X100100000Y-67100000D02*
X94400000Y-67100000D01*
X93400000Y-68100000D02*
X88000000Y-68100000D01*
%TO.N,SLP*%
X87600000Y-67500000D02*
X93100000Y-67500000D01*
X94100000Y-66500000D02*
X99790000Y-66500000D01*
X99790000Y-66500000D02*
X101990000Y-64300000D01*
X93100000Y-67500000D02*
X94100000Y-66500000D01*
X101990000Y-64300000D02*
X101400000Y-64300000D01*
X80140490Y-78681290D02*
X80140490Y-74959510D01*
X80140490Y-74959510D02*
X87600000Y-67500000D01*
%TO.N,STP*%
X87200000Y-66800000D02*
X92900000Y-66800000D01*
X93800000Y-65900000D02*
X97850000Y-65900000D01*
X92900000Y-66800000D02*
X93800000Y-65900000D01*
X97850000Y-65900000D02*
X99450000Y-64300000D01*
X77600490Y-78681290D02*
X77600490Y-76399510D01*
X77600490Y-76399510D02*
X87200000Y-66800000D01*
%TO.N,DIR*%
X86900000Y-66200000D02*
X92700000Y-66200000D01*
X92700000Y-66200000D02*
X94600000Y-64300000D01*
X94600000Y-64300000D02*
X96910000Y-64300000D01*
X75500490Y-77599510D02*
X86900000Y-66200000D01*
X75500490Y-78681290D02*
X75500490Y-77599510D01*
%TD*%
%TA.AperFunction,Conductor*%
%TO.N,+3.3V*%
G36*
X92692665Y-83852897D02*
G01*
X92693076Y-83853308D01*
X93677240Y-84887665D01*
X93680460Y-84896021D01*
X93677569Y-84903435D01*
X92813096Y-85891405D01*
X92805069Y-85895374D01*
X92804291Y-85895400D01*
X92564909Y-85895400D01*
X92556636Y-85891973D01*
X92556104Y-85891405D01*
X91691629Y-84903433D01*
X91688761Y-84894952D01*
X91691958Y-84887666D01*
X92676124Y-83853307D01*
X92684309Y-83849677D01*
X92692665Y-83852897D01*
G37*
%TD.AperFunction*%
%TD*%
%TA.AperFunction,Conductor*%
%TO.N,TS_Data*%
G36*
X95325431Y-81803879D02*
G01*
X95327496Y-81806673D01*
X95623987Y-82366339D01*
X96188658Y-83432227D01*
X96189503Y-83441142D01*
X96183796Y-83448043D01*
X96182806Y-83448509D01*
X95229087Y-83844536D01*
X95220132Y-83844544D01*
X95220113Y-83844536D01*
X94266105Y-83448390D01*
X94259779Y-83442053D01*
X94259787Y-83433098D01*
X94260110Y-83432386D01*
X95070969Y-81806929D01*
X95077729Y-81801056D01*
X95081439Y-81800452D01*
X95317158Y-81800452D01*
X95325431Y-81803879D01*
G37*
%TD.AperFunction*%
%TD*%
%TA.AperFunction,Conductor*%
%TO.N,TS_Data*%
G36*
X91103404Y-77721108D02*
G01*
X92342626Y-78668351D01*
X92347117Y-78676096D01*
X92344815Y-78684750D01*
X92343793Y-78685918D01*
X92177060Y-78852651D01*
X92175805Y-78853740D01*
X91040055Y-79705114D01*
X91031380Y-79707334D01*
X91023675Y-79702770D01*
X91023489Y-79702514D01*
X90304946Y-78687874D01*
X90302961Y-78679142D01*
X90305454Y-78673685D01*
X91087266Y-77722971D01*
X91095166Y-77718759D01*
X91103404Y-77721108D01*
G37*
%TD.AperFunction*%
%TD*%
%TA.AperFunction,Conductor*%
%TO.N,RST*%
G36*
X85229975Y-62519847D02*
G01*
X86212117Y-62888429D01*
X86218658Y-62894544D01*
X86219700Y-62899772D01*
X86166952Y-64485405D01*
X86163531Y-64493289D01*
X85997023Y-64659797D01*
X85988750Y-64663224D01*
X85981959Y-64661051D01*
X85343943Y-64206253D01*
X84673084Y-63728044D01*
X84668337Y-63720453D01*
X84669244Y-63713634D01*
X85215236Y-62525913D01*
X85221805Y-62519830D01*
X85229975Y-62519847D01*
G37*
%TD.AperFunction*%
%TD*%
%TA.AperFunction,Conductor*%
%TO.N,RST*%
G36*
X104251247Y-62675766D02*
G01*
X104251846Y-62676411D01*
X105123975Y-63690741D01*
X105126770Y-63699247D01*
X105123386Y-63706631D01*
X104536238Y-64295162D01*
X104527969Y-64298599D01*
X104523473Y-64297706D01*
X103754326Y-63978710D01*
X103747997Y-63972376D01*
X103747555Y-63964701D01*
X104066015Y-62846538D01*
X104068992Y-62841475D01*
X104234702Y-62675765D01*
X104242974Y-62672339D01*
X104251247Y-62675766D01*
G37*
%TD.AperFunction*%
%TD*%
%TA.AperFunction,Conductor*%
%TO.N,EN*%
G36*
X114439337Y-62664245D02*
G01*
X114440098Y-62665083D01*
X115284300Y-63690769D01*
X115286911Y-63699334D01*
X115283549Y-63706467D01*
X114696238Y-64295162D01*
X114687969Y-64298599D01*
X114683473Y-64297706D01*
X114103107Y-64057005D01*
X113914521Y-63978791D01*
X113908193Y-63972458D01*
X113907818Y-63964556D01*
X114254277Y-62834687D01*
X114257187Y-62829849D01*
X114422792Y-62664244D01*
X114431064Y-62660818D01*
X114439337Y-62664245D01*
G37*
%TD.AperFunction*%
%TD*%
%TA.AperFunction,Conductor*%
%TO.N,EN*%
G36*
X88756172Y-62220604D02*
G01*
X88761832Y-62227543D01*
X88762166Y-62228979D01*
X89113243Y-64331518D01*
X89111226Y-64340243D01*
X89109976Y-64341718D01*
X88943236Y-64508458D01*
X88934963Y-64511885D01*
X88930046Y-64510802D01*
X87427993Y-63815143D01*
X87421926Y-63808556D01*
X87421595Y-63801552D01*
X87758114Y-62522365D01*
X87763533Y-62515237D01*
X87766061Y-62514138D01*
X88747265Y-62219700D01*
X88756172Y-62220604D01*
G37*
%TD.AperFunction*%
%TD*%
%TA.AperFunction,Conductor*%
%TO.N,Net-(J2-Pin_4)*%
G36*
X108836316Y-76679515D02*
G01*
X108990698Y-76743265D01*
X109608544Y-76998400D01*
X109612360Y-77000950D01*
X110201608Y-77591586D01*
X110205025Y-77599863D01*
X110201588Y-77608132D01*
X110200427Y-77609147D01*
X108896664Y-78604986D01*
X108888009Y-78607284D01*
X108881289Y-78603961D01*
X108363304Y-78085976D01*
X108359877Y-78077703D01*
X108360472Y-78074019D01*
X108515034Y-77608132D01*
X108820745Y-76686644D01*
X108826603Y-76679872D01*
X108835534Y-76679224D01*
X108836316Y-76679515D01*
G37*
%TD.AperFunction*%
%TD*%
%TA.AperFunction,Conductor*%
%TO.N,Net-(J2-Pin_4)*%
G36*
X106156728Y-80296380D02*
G01*
X106675324Y-80814976D01*
X106678751Y-80823249D01*
X106678386Y-80826149D01*
X106242752Y-82528938D01*
X106237381Y-82536104D01*
X106228517Y-82537373D01*
X106227580Y-82537091D01*
X105259967Y-82201174D01*
X105254811Y-82197606D01*
X104602345Y-81413710D01*
X104599687Y-81405159D01*
X104603853Y-81397232D01*
X104604505Y-81396728D01*
X106141641Y-80295142D01*
X106150360Y-80293109D01*
X106156728Y-80296380D01*
G37*
%TD.AperFunction*%
%TD*%
%TA.AperFunction,Conductor*%
%TO.N,Net-(J2-Pin_2)*%
G36*
X104854902Y-86313065D02*
G01*
X104859615Y-86318571D01*
X105256217Y-87275068D01*
X105256220Y-87284022D01*
X105255789Y-87284947D01*
X104786293Y-88187749D01*
X104779436Y-88193508D01*
X104770515Y-88192731D01*
X104769612Y-88192209D01*
X103125104Y-87141010D01*
X103119978Y-87133667D01*
X103121547Y-87124851D01*
X103123127Y-87122884D01*
X103640847Y-86605164D01*
X103646362Y-86602068D01*
X104846055Y-86311680D01*
X104854902Y-86313065D01*
G37*
%TD.AperFunction*%
%TD*%
%TA.AperFunction,Conductor*%
%TO.N,Net-(J2-Pin_2)*%
G36*
X104534489Y-77000865D02*
G01*
X105305560Y-77321235D01*
X105311885Y-77327574D01*
X105312282Y-77335386D01*
X104907493Y-78691646D01*
X104901844Y-78698594D01*
X104896282Y-78700000D01*
X104163718Y-78700000D01*
X104155445Y-78696573D01*
X104152507Y-78691646D01*
X104046561Y-78336672D01*
X103747717Y-77335383D01*
X103748634Y-77326478D01*
X103754438Y-77321235D01*
X104525511Y-77000864D01*
X104534466Y-77000856D01*
X104534489Y-77000865D01*
G37*
%TD.AperFunction*%
%TD*%
%TA.AperFunction,Conductor*%
%TO.N,Net-(J2-Pin_1)*%
G36*
X104214218Y-88836035D02*
G01*
X105249647Y-89810970D01*
X105253321Y-89819136D01*
X105250144Y-89827509D01*
X105249735Y-89827922D01*
X104214127Y-90823627D01*
X104205788Y-90826891D01*
X104199888Y-90825159D01*
X103213170Y-90218226D01*
X103207919Y-90210972D01*
X103207600Y-90208260D01*
X103207600Y-89471230D01*
X103211027Y-89462957D01*
X103213028Y-89461353D01*
X104199926Y-88834675D01*
X104208746Y-88833134D01*
X104214218Y-88836035D01*
G37*
%TD.AperFunction*%
%TD*%
%TA.AperFunction,Conductor*%
%TO.N,Net-(J2-Pin_1)*%
G36*
X101993415Y-77002421D02*
G01*
X102354935Y-77364543D01*
X102582957Y-77592944D01*
X102586377Y-77601220D01*
X102583126Y-77609303D01*
X101775255Y-78452673D01*
X101767057Y-78456277D01*
X101766806Y-78456280D01*
X101034489Y-78456280D01*
X101026216Y-78452853D01*
X101022789Y-78444580D01*
X101022827Y-78443633D01*
X101139128Y-77010740D01*
X101143213Y-77002772D01*
X101150775Y-76999987D01*
X101985141Y-76999005D01*
X101993415Y-77002421D01*
G37*
%TD.AperFunction*%
%TD*%
%TA.AperFunction,Conductor*%
%TO.N,GND*%
G36*
X77718588Y-68420335D02*
G01*
X77722015Y-68428608D01*
X77721630Y-68431584D01*
X77445523Y-69481369D01*
X77440105Y-69488498D01*
X77431232Y-69489708D01*
X77429750Y-69489211D01*
X77331815Y-69448830D01*
X76918617Y-69278459D01*
X76912275Y-69272137D01*
X76912265Y-69272112D01*
X76699849Y-68758326D01*
X76699855Y-68749371D01*
X76706093Y-68743084D01*
X77473301Y-68417835D01*
X77477868Y-68416908D01*
X77710315Y-68416908D01*
X77718588Y-68420335D01*
G37*
%TD.AperFunction*%
%TD*%
%TA.AperFunction,Conductor*%
%TO.N,GND*%
G36*
X100398340Y-68571706D02*
G01*
X100398473Y-68572014D01*
X100699134Y-69295510D01*
X100699144Y-69304463D01*
X100699135Y-69304485D01*
X100699134Y-69304490D01*
X100398686Y-70027473D01*
X100392347Y-70033798D01*
X100383392Y-70033787D01*
X100382609Y-70033427D01*
X99113506Y-69392655D01*
X99107665Y-69385867D01*
X99107079Y-69382211D01*
X99107079Y-69146977D01*
X99110506Y-69138704D01*
X99113976Y-69136308D01*
X100382871Y-68565832D01*
X100391822Y-68565566D01*
X100398340Y-68571706D01*
G37*
%TD.AperFunction*%
%TD*%
%TA.AperFunction,Conductor*%
%TO.N,GND*%
G36*
X91991874Y-68768828D02*
G01*
X92885302Y-69136428D01*
X92891648Y-69142744D01*
X92892549Y-69147247D01*
X92892549Y-69381572D01*
X92889122Y-69389845D01*
X92885301Y-69392392D01*
X91991877Y-69759990D01*
X91982922Y-69759969D01*
X91980010Y-69758220D01*
X91533513Y-69392392D01*
X91388354Y-69273459D01*
X91384127Y-69265566D01*
X91386720Y-69256995D01*
X91388352Y-69255362D01*
X91980012Y-68770598D01*
X91988581Y-68768006D01*
X91991874Y-68768828D01*
G37*
%TD.AperFunction*%
%TD*%
%TA.AperFunction,Conductor*%
%TO.N,GND*%
G36*
X77608282Y-62524571D02*
G01*
X77609218Y-62525507D01*
X78426268Y-63440766D01*
X78429221Y-63449220D01*
X78428023Y-63453754D01*
X77728714Y-64864651D01*
X77721970Y-64870542D01*
X77718231Y-64871155D01*
X77482749Y-64871155D01*
X77474476Y-64867728D01*
X77472266Y-64864651D01*
X76772955Y-63453752D01*
X76772352Y-63444819D01*
X76774709Y-63440768D01*
X77591762Y-62525506D01*
X77599828Y-62521618D01*
X77608282Y-62524571D01*
G37*
%TD.AperFunction*%
%TD*%
%TA.AperFunction,Conductor*%
%TO.N,GND*%
G36*
X77656392Y-65603917D02*
G01*
X77659819Y-65612190D01*
X77656392Y-65620463D01*
X77651578Y-65623367D01*
X77316727Y-65727009D01*
X77307811Y-65726181D01*
X77302091Y-65719291D01*
X77302919Y-65710375D01*
X77307058Y-65705916D01*
X77472641Y-65602272D01*
X77478849Y-65600490D01*
X77648119Y-65600490D01*
X77656392Y-65603917D01*
G37*
%TD.AperFunction*%
%TD*%
%TA.AperFunction,Conductor*%
%TO.N,+3.3V*%
G36*
X81530071Y-65549252D02*
G01*
X82142760Y-65825793D01*
X82148891Y-65832320D01*
X82148767Y-65840909D01*
X82002563Y-66196195D01*
X81996245Y-66202542D01*
X81996195Y-66202563D01*
X81640909Y-66348767D01*
X81631955Y-66348746D01*
X81625793Y-66342760D01*
X81561676Y-66200707D01*
X81399279Y-65840909D01*
X81349252Y-65730071D01*
X81348972Y-65721121D01*
X81351641Y-65716987D01*
X81516986Y-65551642D01*
X81525258Y-65548216D01*
X81530071Y-65549252D01*
G37*
%TD.AperFunction*%
%TD*%
%TA.AperFunction,Conductor*%
%TO.N,+3.3V*%
G36*
X90868979Y-74550868D02*
G01*
X90874646Y-74555881D01*
X90958816Y-74703804D01*
X91189717Y-75109599D01*
X91190830Y-75118483D01*
X91187821Y-75123657D01*
X91022472Y-75289006D01*
X91014199Y-75292433D01*
X91010483Y-75291827D01*
X90358792Y-75073526D01*
X90352035Y-75067649D01*
X90351414Y-75058716D01*
X90351678Y-75058005D01*
X90497437Y-74703802D01*
X90503753Y-74697457D01*
X90860026Y-74550847D01*
X90868979Y-74550868D01*
G37*
%TD.AperFunction*%
%TD*%
%TA.AperFunction,Conductor*%
%TO.N,+3.3V*%
G36*
X100208550Y-77314167D02*
G01*
X100222513Y-77319969D01*
X100228838Y-77326308D01*
X100228829Y-77335263D01*
X100227930Y-77337001D01*
X99369418Y-78702746D01*
X99362113Y-78707926D01*
X99353285Y-78706425D01*
X99351239Y-78704792D01*
X99186427Y-78539980D01*
X99183947Y-78536318D01*
X98669366Y-77336161D01*
X98669256Y-77327208D01*
X98675509Y-77320799D01*
X98675534Y-77320788D01*
X99446222Y-77001152D01*
X99455174Y-77001149D01*
X100208550Y-77314167D01*
G37*
%TD.AperFunction*%
%TD*%
%TA.AperFunction,Conductor*%
%TO.N,+3.3V*%
G36*
X80148034Y-62520820D02*
G01*
X81054837Y-63048035D01*
X81112531Y-63081578D01*
X81117960Y-63088699D01*
X81117743Y-63095412D01*
X80604989Y-64624729D01*
X80602169Y-64629283D01*
X80436450Y-64795002D01*
X80428177Y-64798429D01*
X80419904Y-64795002D01*
X80419150Y-64794173D01*
X79315818Y-63454407D01*
X79313205Y-63445844D01*
X79316119Y-63439184D01*
X80133427Y-62523146D01*
X80141491Y-62519255D01*
X80148034Y-62520820D01*
G37*
%TD.AperFunction*%
%TD*%
%TA.AperFunction,Conductor*%
%TO.N,MS1*%
G36*
X112154489Y-64300865D02*
G01*
X112923892Y-64620542D01*
X112930217Y-64626881D01*
X112930208Y-64635836D01*
X112929950Y-64636413D01*
X112278186Y-65993366D01*
X112271515Y-65999339D01*
X112267639Y-66000000D01*
X112032361Y-66000000D01*
X112024088Y-65996573D01*
X112021814Y-65993366D01*
X111370049Y-64636413D01*
X111369557Y-64627471D01*
X111375530Y-64620800D01*
X111376095Y-64620547D01*
X112145511Y-64300864D01*
X112154466Y-64300856D01*
X112154489Y-64300865D01*
G37*
%TD.AperFunction*%
%TD*%
%TA.AperFunction,Conductor*%
%TO.N,MS1*%
G36*
X87886504Y-76330292D02*
G01*
X87888714Y-76333369D01*
X88588023Y-77744265D01*
X88588627Y-77753200D01*
X88586268Y-77757253D01*
X87769218Y-78672512D01*
X87761152Y-78676401D01*
X87752698Y-78673448D01*
X87751762Y-78672512D01*
X86934711Y-77757253D01*
X86931758Y-77748799D01*
X86932954Y-77744270D01*
X87632266Y-76333368D01*
X87639010Y-76327478D01*
X87642749Y-76326865D01*
X87878231Y-76326865D01*
X87886504Y-76330292D01*
G37*
%TD.AperFunction*%
%TD*%
%TA.AperFunction,Conductor*%
%TO.N,MS2*%
G36*
X109614484Y-64300863D02*
G01*
X110383818Y-64620511D01*
X110390143Y-64626850D01*
X110390134Y-64635805D01*
X110389843Y-64636450D01*
X109728206Y-65991445D01*
X109721496Y-65997375D01*
X109717692Y-65998011D01*
X109482404Y-65998011D01*
X109474131Y-65994584D01*
X109471830Y-65991320D01*
X108829960Y-64636381D01*
X108829515Y-64627437D01*
X108835525Y-64620798D01*
X108836005Y-64620584D01*
X109605511Y-64300864D01*
X109614466Y-64300856D01*
X109614484Y-64300863D01*
G37*
%TD.AperFunction*%
%TD*%
%TA.AperFunction,Conductor*%
%TO.N,MS2*%
G36*
X85346504Y-76330292D02*
G01*
X85348714Y-76333369D01*
X86048023Y-77744265D01*
X86048627Y-77753200D01*
X86046268Y-77757253D01*
X85229218Y-78672512D01*
X85221152Y-78676401D01*
X85212698Y-78673448D01*
X85211762Y-78672512D01*
X84394711Y-77757253D01*
X84391758Y-77748799D01*
X84392954Y-77744270D01*
X85092266Y-76333368D01*
X85099010Y-76327478D01*
X85102749Y-76326865D01*
X85338231Y-76326865D01*
X85346504Y-76330292D01*
G37*
%TD.AperFunction*%
%TD*%
%TA.AperFunction,Conductor*%
%TO.N,MS3*%
G36*
X82806504Y-76330292D02*
G01*
X82808714Y-76333369D01*
X83508023Y-77744265D01*
X83508627Y-77753200D01*
X83506268Y-77757253D01*
X82689218Y-78672512D01*
X82681152Y-78676401D01*
X82672698Y-78673448D01*
X82671762Y-78672512D01*
X81854711Y-77757253D01*
X81851758Y-77748799D01*
X81852954Y-77744270D01*
X82552266Y-76333368D01*
X82559010Y-76327478D01*
X82562749Y-76326865D01*
X82798231Y-76326865D01*
X82806504Y-76330292D01*
G37*
%TD.AperFunction*%
%TD*%
%TA.AperFunction,Conductor*%
%TO.N,MS3*%
G36*
X106296106Y-63979428D02*
G01*
X107066215Y-64297438D01*
X107072552Y-64303761D01*
X107072562Y-64303785D01*
X107390567Y-65073883D01*
X107390558Y-65082838D01*
X107384219Y-65089163D01*
X107383629Y-65089388D01*
X105963251Y-65588031D01*
X105954309Y-65587539D01*
X105951102Y-65585265D01*
X105784734Y-65418897D01*
X105781307Y-65410624D01*
X105781968Y-65406748D01*
X105893461Y-65089163D01*
X106280612Y-63986368D01*
X106286584Y-63979699D01*
X106295526Y-63979207D01*
X106296106Y-63979428D01*
G37*
%TD.AperFunction*%
%TD*%
%TA.AperFunction,Conductor*%
%TO.N,SLP*%
G36*
X101216106Y-63979428D02*
G01*
X101986215Y-64297438D01*
X101992552Y-64303761D01*
X101992562Y-64303785D01*
X102310567Y-65073883D01*
X102310558Y-65082838D01*
X102304219Y-65089163D01*
X102303629Y-65089388D01*
X100883251Y-65588031D01*
X100874309Y-65587539D01*
X100871102Y-65585265D01*
X100704734Y-65418897D01*
X100701307Y-65410624D01*
X100701968Y-65406748D01*
X100813461Y-65089163D01*
X101200612Y-63986368D01*
X101206584Y-63979699D01*
X101215526Y-63979207D01*
X101216106Y-63979428D01*
G37*
%TD.AperFunction*%
%TD*%
%TA.AperFunction,Conductor*%
%TO.N,SLP*%
G36*
X80266504Y-76330292D02*
G01*
X80268714Y-76333369D01*
X80968023Y-77744265D01*
X80968627Y-77753200D01*
X80966268Y-77757253D01*
X80149218Y-78672512D01*
X80141152Y-78676401D01*
X80132698Y-78673448D01*
X80131762Y-78672512D01*
X79314711Y-77757253D01*
X79311758Y-77748799D01*
X79312954Y-77744270D01*
X80012266Y-76333368D01*
X80019010Y-76327478D01*
X80022749Y-76326865D01*
X80258231Y-76326865D01*
X80266504Y-76330292D01*
G37*
%TD.AperFunction*%
%TD*%
%TA.AperFunction,Conductor*%
%TO.N,STP*%
G36*
X98676106Y-63979428D02*
G01*
X99446215Y-64297438D01*
X99452552Y-64303761D01*
X99452562Y-64303785D01*
X99770567Y-65073883D01*
X99770558Y-65082838D01*
X99764219Y-65089163D01*
X99763629Y-65089388D01*
X98343251Y-65588031D01*
X98334309Y-65587539D01*
X98331102Y-65585265D01*
X98164734Y-65418897D01*
X98161307Y-65410624D01*
X98161968Y-65406748D01*
X98273461Y-65089163D01*
X98660612Y-63986368D01*
X98666584Y-63979699D01*
X98675526Y-63979207D01*
X98676106Y-63979428D01*
G37*
%TD.AperFunction*%
%TD*%
%TA.AperFunction,Conductor*%
%TO.N,STP*%
G36*
X77571869Y-76268873D02*
G01*
X77574644Y-76270928D01*
X77738988Y-76435272D01*
X77741071Y-76438100D01*
X78427756Y-77744165D01*
X78428573Y-77753083D01*
X78426124Y-77757407D01*
X77608513Y-78672228D01*
X77600444Y-78676113D01*
X77591992Y-78673155D01*
X77591066Y-78672227D01*
X76774873Y-77757438D01*
X76771923Y-77748985D01*
X76773274Y-77744157D01*
X77556045Y-76273700D01*
X77562956Y-76268011D01*
X77571869Y-76268873D01*
G37*
%TD.AperFunction*%
%TD*%
%TA.AperFunction,Conductor*%
%TO.N,DIR*%
G36*
X96589199Y-63525530D02*
G01*
X96589457Y-63526107D01*
X96909134Y-64295511D01*
X96909143Y-64304466D01*
X96909134Y-64304489D01*
X96589457Y-65073892D01*
X96583118Y-65080217D01*
X96574163Y-65080208D01*
X96573586Y-65079950D01*
X95216634Y-64428186D01*
X95210661Y-64421515D01*
X95210000Y-64417639D01*
X95210000Y-64182360D01*
X95213427Y-64174087D01*
X95216631Y-64171814D01*
X96573586Y-63520048D01*
X96582528Y-63519557D01*
X96589199Y-63525530D01*
G37*
%TD.AperFunction*%
%TD*%
%TA.AperFunction,Conductor*%
%TO.N,DIR*%
G36*
X76244220Y-76690545D02*
G01*
X76410964Y-76857289D01*
X76414391Y-76865562D01*
X76414230Y-76867495D01*
X76062172Y-78969372D01*
X76057426Y-78976965D01*
X76048700Y-78978978D01*
X76047267Y-78978644D01*
X75066068Y-78683885D01*
X75059130Y-78678223D01*
X75058119Y-78675655D01*
X74722472Y-77396104D01*
X74723687Y-77387232D01*
X74728877Y-77382517D01*
X76231041Y-76688197D01*
X76239986Y-76687837D01*
X76244220Y-76690545D01*
G37*
%TD.AperFunction*%
%TD*%
M02*
